<?xml version="1.0" encoding="UTF-8" standalone="no"?>
<!-- Created with Inkscape (http://www.inkscape.org/) -->

<svg
   width="512"
   height="512"
   viewBox="0 0 512 512"
   version="1.1"
   id="svg1"
   sodipodi:docname="Title.svg"
   inkscape:version="1.4 (86a8ad7, 2024-10-11)"
   xmlns:inkscape="http://www.inkscape.org/namespaces/inkscape"
   xmlns:sodipodi="http://sodipodi.sourceforge.net/DTD/sodipodi-0.dtd"
   xmlns:xlink="http://www.w3.org/1999/xlink"
   xmlns="http://www.w3.org/2000/svg"
   xmlns:svg="http://www.w3.org/2000/svg">
  <sodipodi:namedview
     id="namedview1"
     pagecolor="#ffffff"
     bordercolor="#000000"
     borderopacity="0.25"
     inkscape:showpageshadow="2"
     inkscape:pageopacity="0.0"
     inkscape:pagecheckerboard="0"
     inkscape:deskcolor="#d1d1d1"
     inkscape:document-units="px"
     inkscape:zoom="0.94921875"
     inkscape:cx="48.987654"
     inkscape:cy="347.65432"
     inkscape:window-width="1920"
     inkscape:window-height="1010"
     inkscape:window-x="2553"
     inkscape:window-y="-6"
     inkscape:window-maximized="1"
     inkscape:current-layer="svg1" />
  <defs
     id="defs1">
    <linearGradient
       id="linearGradient23"
       inkscape:collect="always">
      <stop
         style="stop-color:#ffffff;stop-opacity:1;"
         offset="0.67924017"
         id="stop22" />
      <stop
         style="stop-color:#ffffff;stop-opacity:0.92888892;"
         offset="1"
         id="stop23" />
    </linearGradient>
    <linearGradient
       id="linearGradient21"
       inkscape:collect="always">
      <stop
         style="stop-color:#ffffff;stop-opacity:1;"
         offset="0.47413275"
         id="stop20" />
      <stop
         style="stop-color:#ffffff;stop-opacity:0.92888892;"
         offset="1"
         id="stop21" />
    </linearGradient>
    <linearGradient
       id="linearGradient17"
       inkscape:collect="always">
      <stop
         style="stop-color:#ffffff;stop-opacity:1;"
         offset="0.65582657"
         id="stop18" />
      <stop
         style="stop-color:#ffffff;stop-opacity:0.92888892;"
         offset="1"
         id="stop19" />
    </linearGradient>
    <inkscape:path-effect
       effect="perspective-envelope"
       up_left_point="64,231"
       up_right_point="435,231"
       down_left_point="30,300"
       down_right_point="460,300"
       id="path-effect18"
       is_visible="true"
       lpeversion="1"
       deform_type="perspective"
       horizontal_mirror="false"
       vertical_mirror="false"
       overflow_perspective="false" />
    <rect
       x="65.554327"
       y="84.922651"
       width="402.26518"
       height="143.77256"
       id="rect1" />
    <radialGradient
       inkscape:collect="always"
       xlink:href="#linearGradient17"
       id="radialGradient19"
       cx="89.129387"
       cy="364.4874"
       fx="89.129387"
       fy="364.4874"
       r="23.917595"
       gradientTransform="matrix(1,0,0,0.33533099,0,242.26348)"
       gradientUnits="userSpaceOnUse" />
    <radialGradient
       inkscape:collect="always"
       xlink:href="#linearGradient17"
       id="radialGradient19-5"
       cx="89.129387"
       cy="364.4874"
       fx="89.129387"
       fy="364.4874"
       r="23.917595"
       gradientTransform="matrix(1.0506121,-0.04282564,0.01365761,0.33505275,42.443917,246.05032)"
       gradientUnits="userSpaceOnUse" />
    <radialGradient
       inkscape:collect="always"
       xlink:href="#linearGradient17"
       id="radialGradient19-5-7"
       cx="89.129387"
       cy="364.4874"
       fx="89.129387"
       fy="364.4874"
       r="23.917595"
       gradientTransform="matrix(0.27322475,-0.03303524,0.04025127,0.33290646,152.42356,247.78597)"
       gradientUnits="userSpaceOnUse" />
    <radialGradient
       inkscape:collect="always"
       xlink:href="#linearGradient21"
       id="radialGradient19-5-7-3"
       cx="89.129387"
       cy="364.4874"
       fx="89.129387"
       fy="364.4874"
       r="23.917595"
       gradientTransform="matrix(1,0,0,0.33533099,164.10306,243.4072)"
       gradientUnits="userSpaceOnUse" />
    <radialGradient
       inkscape:collect="always"
       xlink:href="#linearGradient17"
       id="radialGradient19-5-7-3-7"
       cx="89.129387"
       cy="364.4874"
       fx="89.129387"
       fy="364.4874"
       r="23.917595"
       gradientTransform="matrix(1,0,0,0.33533099,217.57267,242.44772)"
       gradientUnits="userSpaceOnUse" />
    <radialGradient
       inkscape:collect="always"
       xlink:href="#linearGradient23"
       id="radialGradient19-5-7-3-7-1"
       cx="88.077751"
       cy="358.40152"
       fx="88.077751"
       fy="358.40152"
       r="23.917595"
       gradientTransform="matrix(0.1945311,-0.34116837,0.16465414,0.09388429,282.67331,358.2792)"
       gradientUnits="userSpaceOnUse" />
    <radialGradient
       inkscape:collect="always"
       xlink:href="#linearGradient17"
       id="radialGradient19-5-7-3-7-1-8"
       cx="89.129387"
       cy="364.4874"
       fx="89.129387"
       fy="364.4874"
       r="23.917595"
       gradientTransform="matrix(1,0,0,0.33533099,328.35812,242.1724)"
       gradientUnits="userSpaceOnUse" />
  </defs>
  <g
     inkscape:groupmode="layer"
     id="layer6"
     inkscape:label="Background"
     style="display:none">
    <rect
       style="fill:#0c2959;fill-opacity:1;stroke:#cff4f8;stroke-width:1.2735;stroke-opacity:0.269103"
       id="rect16"
       width="479.59482"
       height="284.69769"
       x="22.786959"
       y="179.75815" />
  </g>
  <g
     inkscape:label="Text"
     inkscape:groupmode="layer"
     id="layer1">
    <path
       id="path1"
       style="font-weight:bold;font-size:96px;font-family:Consolas;-inkscape-font-specification:'Consolas Bold';white-space:pre;fill:#6b5add;fill-opacity:1"
       inkscape:label="bottom"
       d="m 302.58008,369.57812 c -9.69996,0.45501 -18.84981,7.34297 -21.71485,16.66211 -1.53175,4.88437 -0.86909,10.39162 1.82224,14.75182 1.00312,1.65649 2.25778,3.14074 3.47397,4.64015 3.48153,3.87963 8.5296,5.73358 13.36775,7.28084 4.1379,1.40116 8.56213,2.44396 12.08553,5.15783 1.52884,1.20291 2.73468,2.84769 3.31301,4.70843 -0.99457,2.12272 -3.1411,3.55694 -5.45709,3.79858 -2.97202,0.3944 -5.95611,-0.22504 -8.84173,-0.89624 -0.31931,-0.0784 -1.06609,-0.26984 -1.54883,-0.39258 -4.02859,-1.01598 -7.98793,-2.49983 -12.16074,-2.79792 -2.28103,-0.17945 -4.88965,0.4881 -6.14077,2.56212 -1.34552,2.15427 -1.06683,4.83495 -0.71434,7.22376 -0.49008,3.48502 0.29971,7.32767 2.88428,9.85533 3.02336,3.00668 7.38819,4.02305 11.49657,4.44548 8.18486,0.75378 16.3527,-0.5854 24.47563,-1.40203 6.00224,-0.91477 11.39481,-4.66109 14.61973,-9.76649 4.83,-7.46191 5.54492,-17.62894 1.11972,-25.44251 -1.05671,-1.92233 -2.49416,-3.60347 -4.0211,-5.15665 -2.45598,-3.51778 -6.56856,-5.30776 -10.48633,-6.68177 -4.49599,-1.60094 -9.2487,-2.50312 -13.56484,-4.58728 -1.70802,-0.85692 -3.62754,-2.20648 -3.6559,-4.32273 -0.0473,-0.54197 -0.0391,-1.14698 0.66957,-1.08751 5.57719,-1.2236 11.22841,0.25002 16.8091,0.6453 2.5502,0.16927 5.50224,0.0522 7.37645,-1.93827 1.85411,-2.03452 1.75368,-5.03099 1.27884,-7.56637 -0.44601,-2.43569 -1.2665,-4.78 -2.09329,-7.10746 -6.68526,-1.45559 -13.50115,-2.51831 -20.36133,-2.39648 -1.3344,-0.18747 -2.68522,-0.24595 -4.03125,-0.18946 z m -210.310549,0.35352 c -9.444443,0.16116 -18.710811,3.41992 -26.437008,8.79955 -10.608975,7.35272 -18.562742,18.15545 -23.423033,30.04056 -2.126183,5.28883 -3.72993,10.82248 -4.436125,16.48717 -0.505604,4.72065 0.946459,9.64991 4.142544,13.19307 4.036832,4.56125 9.983657,6.97752 15.899074,7.89828 4.394179,0.65421 8.930929,0.56103 13.250642,-0.52215 4.260523,0.91614 8.765404,-0.52115 12.065884,-3.27385 4.038707,-3.31894 6.856959,-7.98689 8.394766,-12.94978 0.759278,-2.65735 1.340394,-5.69311 -0.0015,-8.26766 -0.276437,-0.45571 -0.426579,-1.32464 -0.777957,-1.53516 -2.279082,1.52197 -4.657002,2.93283 -7.277871,3.78319 -4.740942,1.59756 -9.890302,2.34127 -14.850613,1.44639 -2.537955,-0.50205 -5.360484,-1.64555 -6.408203,-4.20898 -1.022943,-2.80263 0.04819,-5.81947 1.21875,-8.39844 0.586272,-1.14346 1.191766,-2.27168 1.557419,-3.5104 2.576529,-6.65789 6.81727,-12.80854 12.623887,-17.03946 4.262519,-3.11911 9.671509,-4.88968 14.964472,-4.10919 0.919449,0.16422 1.912683,0.25958 2.754613,0.63756 1.841431,2.02068 4.692323,3.37832 7.443083,2.66075 3.34892,-0.84127 5.66521,-3.80266 7.01437,-6.82684 1.31807,-3.06277 1.98486,-6.6979 0.65192,-9.86906 -0.96518,-2.34967 -3.46745,-3.80555 -5.96987,-3.74197 -0.83773,0.0184 -1.66389,0.12175 -2.48521,-0.11741 -3.280282,-0.49077 -6.600937,-0.61643 -9.914059,-0.57617 z m 338.277349,0.21289 c -1.28369,0.0135 -2.52745,0.39689 -3.77852,0.57422 -11.64609,0 -23.29219,0 -34.93828,0 6.82232,24.89204 13.65425,49.78144 20.48242,74.67187 17.60742,10e-6 35.21484,0 52.82227,0 -1.2215,-3.48018 -2.21217,-6.95888 -3.37681,-10.44972 -1.18035,-3.39908 -2.82016,-6.99422 -6.05484,-8.88621 -2.657,-1.56773 -5.9498,-1.45874 -8.82421,-0.60938 -6.06576,0 -12.13151,0 -18.19727,0 -1.08672,-3.23512 -2.54588,-6.40102 -2.96129,-9.8166 -0.0762,-0.81629 -0.0999,-2.07931 0.96129,-2.22637 1.78316,-0.38314 3.56689,0.2406 5.31055,0.50391 6.76367,0 13.52734,0 20.29101,0 -1.29554,-4.2298 -2.19181,-8.62788 -4.17767,-12.60985 -1.39767,-2.852 -3.86171,-5.39521 -7.07462,-6.02532 -2.09485,-0.46918 -4.26935,-0.14647 -6.31646,0.37345 -5.10208,0 -10.20416,0 -15.30625,0 -0.98321,-1.88978 -2.09393,-3.88591 -2.06647,-6.07414 0.0152,-1.31508 1.53352,-1.67145 2.58405,-1.79305 2.06892,-0.25968 4.13519,0.14233 6.18438,0.33985 6.03359,0 12.06718,0 18.10078,0 -1.24467,-4.41771 -2.10468,-9.06461 -4.53841,-13.02724 -1.60368,-2.67841 -4.4154,-4.70085 -7.58287,-4.90624 -0.51274,-0.0551 -1.02817,-0.0531 -1.54278,-0.0392 z m -53.13477,0.125 c -1.66976,0.004 -3.32002,0.31216 -4.97422,0.44922 -13.27226,0 -26.54453,0 -39.8168,0 0.16022,1.47675 0.48336,2.95667 0.54142,4.43133 -0.57548,3.2011 -0.66062,6.86482 1.3887,9.58934 1.95102,2.60399 5.36459,3.41684 8.45789,3.52667 2.56952,0.14728 5.12846,-0.22291 7.68875,-0.31979 1.42184,-0.0364 2.56247,1.06541 2.9916,2.35253 1.15122,3.21013 1.05199,6.69636 1.29252,10.03131 0.20572,3.28669 0.39669,6.69179 1.81277,9.71755 2.08052,11.78103 4.16324,23.56166 6.24237,35.34293 7.46419,10e-6 14.92838,0 22.39258,0 -3.92094,-19.13716 -7.83968,-38.27477 -11.75977,-57.4121 5.78386,0 11.56771,0 17.35156,0 0.21183,-3.8445 0.35063,-7.90356 -1.38275,-11.45635 -1.41757,-3.10924 -4.47378,-5.25126 -7.79303,-5.87959 -1.45591,-0.30964 -2.94796,-0.39901 -4.43359,-0.37305 z m -220.61133,0.0781 c -1.99152,0.0332 -3.94941,0.49705 -5.94531,0.37109 -10.14388,0 -20.28776,0 -30.43164,0 -8.84623,24.89067 -17.6922,49.78143 -26.539064,74.67187 17.610024,0 35.220054,10e-6 52.830074,0 1.14247,-4.08262 2.78329,-8.03366 3.54636,-12.21604 0.42207,-2.36028 0.35543,-5.19234 -1.56589,-6.91091 -2.06417,-1.79486 -5.0298,-1.6039 -7.53907,-1.11092 -1.01901,0.29856 -2.06239,0.33423 -3.11835,0.29256 -5.01003,0 -10.02005,0 -15.03008,0 1.25847,-3.84635 2.51693,-7.69271 3.77539,-11.53906 8.99024,0 17.98047,0 26.97071,0 1.29169,-3.91235 2.99111,-7.7655 3.40379,-11.90257 0.24858,-2.24985 -0.41195,-4.86049 -2.49559,-6.06032 -2.47874,-1.42623 -5.49105,-0.90641 -8.13477,-0.29883 -4.81575,0 -9.63151,0 -14.44726,0 0.19655,-2.53642 1.08077,-5.35369 3.45891,-6.64787 2.81377,-1.50604 6.14192,-1.32195 9.22468,-1.07478 0.98275,0.0794 1.97344,0.36624 2.93153,0.0113 3.67481,-0.38421 7.35019,1.0008 11.01764,0.299 2.15372,-0.34372 4.04816,-1.98519 4.51958,-4.14233 0.2046,-1.17742 1.01299,-2.14158 1.39297,-3.2715 0.98438,-2.35018 1.66714,-5.25458 0.22617,-7.56639 -1.41114,-2.23807 -4.25449,-2.85627 -6.72889,-2.90803 -0.44076,-0.0148 -0.88115,-0.008 -1.32189,0.004 z m 110.51172,0.16992 c -2.96307,0.0977 -5.94169,0.65534 -8.89688,0.20117 -9.74726,0 -19.49453,0 -29.24179,0 -2.58254,24.88663 -5.156,49.78149 -7.73047,74.67187 17.47331,10e-6 34.94661,10e-6 52.41992,0 0.18713,-4.25374 0.84388,-8.50799 0.50977,-12.76953 -0.21753,-2.65993 -1.22349,-5.57606 -3.70889,-6.91548 -2.52126,-1.39475 -5.54758,-0.93044 -8.20752,-0.2603 -5.82213,0 -11.64427,0 -17.46641,0 0.10318,-3.26049 -0.10962,-6.64338 1.01557,-9.76112 0.43793,-1.35223 1.68169,-2.39598 3.13286,-2.39919 1.50952,-0.15542 2.9658,0.38836 4.42384,0.62125 6.46289,0 12.92578,0 19.38867,0 0.40149,-4.24807 1.19679,-8.57165 0.39063,-12.82031 -0.4589,-2.46366 -2.05656,-4.84387 -4.52735,-5.625 -2.32674,-0.79685 -4.84124,-0.3666 -7.1664,0.18359 -4.94193,0 -9.88386,0 -14.82578,0 -0.32129,-1.97124 -0.62646,-4.26016 0.59961,-5.99414 1.45722,-1.68795 3.88752,-1.7989 5.95937,-1.875 1.9458,-0.0555 3.88755,0.24827 5.81822,0.326 2.122,-0.37055 4.24094,-0.0279 6.3164,0.1007 2.63897,0.16989 5.5501,0.48201 7.90796,-0.97357 1.92677,-1.18973 2.50979,-3.67005 2.12096,-5.7835 -0.0381,-0.74773 -0.43038,-1.48073 -0.40767,-2.19921 0.68924,-2.21167 0.91511,-4.94893 -0.76298,-6.78855 -1.76557,-1.92804 -4.63506,-2.01127 -7.06164,-1.93968 z m -92.21484,1.75976 c -5.55303,24.37166 -11.112,48.74253 -16.66993,73.11328 17.80534,10e-6 35.61068,0 53.41602,0 0.66225,-4.1709 1.79567,-8.27851 2.03516,-12.50781 0.11263,-2.50426 -0.34457,-5.386 -2.49415,-6.9759 -2.31606,-1.71443 -5.41936,-1.40447 -8.06275,-0.77646 -1.29976,0.31272 -2.66694,0.0707 -3.99545,0.14689 -4.85234,0 -9.70469,0 -14.55703,0 3.63799,-18.1862 7.27625,-36.37235 10.91406,-54.55859 -6.74414,0 -13.48828,0 -20.23242,0 -0.11784,0.51953 -0.23568,1.03906 -0.35351,1.55859 z" />
    <path
       id="text1"
       style="font-weight:bold;font-size:96px;font-family:Consolas;-inkscape-font-specification:'Consolas Bold';white-space:pre;fill:#00d6ff;fill-opacity:1"
       d="m 302.58008,357.46289 c -9.69996,0.455 -18.84981,7.34297 -21.71485,16.66211 -1.53175,4.88437 -0.86909,10.39162 1.82224,14.75181 1.00312,1.6565 2.25778,3.14075 3.47397,4.64016 3.48153,3.87962 8.5296,5.73358 13.36775,7.28084 4.1379,1.40116 8.56213,2.44395 12.08553,5.15783 1.52884,1.20291 2.73468,2.84768 3.31301,4.70842 -0.99457,2.12272 -3.1411,3.55694 -5.45709,3.79859 -2.97202,0.3944 -5.95611,-0.22505 -8.84173,-0.89624 -0.31931,-0.0784 -1.06609,-0.26984 -1.54883,-0.39258 -4.02859,-1.01598 -7.98793,-2.49983 -12.16074,-2.79793 -2.28103,-0.17945 -4.88965,0.4881 -6.14077,2.56212 -1.34552,2.15428 -1.06683,4.83496 -0.71434,7.22376 -0.49008,3.48503 0.29971,7.32768 2.88428,9.85534 3.02336,3.00667 7.38819,4.02304 11.49657,4.44547 8.18486,0.75378 16.3527,-0.58539 24.47563,-1.40203 6.00224,-0.91477 11.39481,-4.66109 14.61973,-9.76648 4.83,-7.46192 5.54492,-17.62895 1.11972,-25.44252 -1.05671,-1.92232 -2.49416,-3.60346 -4.0211,-5.15664 -2.45598,-3.51778 -6.56856,-5.30777 -10.48633,-6.68177 -4.49599,-1.60094 -9.2487,-2.50312 -13.56484,-4.58728 -1.70802,-0.85693 -3.62754,-2.20649 -3.6559,-4.32273 -0.0473,-0.54197 -0.0391,-1.14699 0.66957,-1.08752 5.57719,-1.22359 11.22841,0.25003 16.8091,0.6453 2.5502,0.16927 5.50224,0.0522 7.37645,-1.93826 1.85411,-2.03452 1.75368,-5.031 1.27884,-7.56638 -0.44601,-2.43568 -1.2665,-4.77999 -2.09329,-7.10745 -6.68526,-1.4556 -13.50115,-2.51832 -20.36133,-2.39649 -1.3344,-0.18746 -2.68522,-0.24594 -4.03125,-0.18945 z m -210.310549,0.35352 c -9.444443,0.16115 -18.710811,3.41991 -26.437008,8.79955 -10.608975,7.35271 -18.562742,18.15545 -23.423033,30.04056 -2.126183,5.28882 -3.72993,10.82248 -4.436125,16.48716 -0.505604,4.72065 0.946459,9.64992 4.142544,13.19308 4.036832,4.56125 9.983657,6.97752 15.899074,7.89828 4.394179,0.65421 8.930929,0.56102 13.250642,-0.52215 4.260523,0.91614 8.765404,-0.52115 12.065884,-3.27385 4.038707,-3.31895 6.856959,-7.9869 8.394766,-12.94978 0.759278,-2.65736 1.340394,-5.69312 -0.0015,-8.26767 -0.276437,-0.45571 -0.426579,-1.32464 -0.777957,-1.53515 -2.279082,1.52197 -4.657002,2.93283 -7.277871,3.78319 -4.740942,1.59755 -9.890302,2.34127 -14.850613,1.44639 -2.537955,-0.50206 -5.360484,-1.64555 -6.408203,-4.20899 -1.022943,-2.80262 0.04819,-5.81947 1.21875,-8.39844 0.586272,-1.14346 1.191766,-2.27167 1.557419,-3.5104 2.576529,-6.65788 6.81727,-12.80853 12.623887,-17.03945 4.262519,-3.11911 9.671509,-4.88968 14.964472,-4.1092 0.919449,0.16423 1.912683,0.25958 2.754613,0.63757 1.841431,2.02068 4.692323,3.37831 7.443083,2.66074 3.34892,-0.84127 5.66521,-3.80265 7.01437,-6.82683 1.31807,-3.06277 1.98486,-6.6979 0.65192,-9.86907 -0.96518,-2.34966 -3.46745,-3.80555 -5.96987,-3.74196 -0.83773,0.0184 -1.66389,0.12175 -2.48521,-0.11741 -3.280282,-0.49078 -6.600937,-0.61644 -9.914059,-0.57617 z m 338.277349,0.21289 c -1.28369,0.0135 -2.52745,0.39688 -3.77852,0.57422 -11.64609,0 -23.29219,0 -34.93828,0 6.82232,24.89203 13.65425,49.78144 20.48242,74.67187 17.60742,0 35.21484,0 52.82227,0 -1.2215,-3.48018 -2.21217,-6.95888 -3.37681,-10.44973 -1.18035,-3.39908 -2.82016,-6.99422 -6.05484,-8.88621 -2.657,-1.56772 -5.9498,-1.45873 -8.82421,-0.60937 -6.06576,0 -12.13151,0 -18.19727,0 -1.08672,-3.23513 -2.54588,-6.40102 -2.96129,-9.81661 -0.0762,-0.81629 -0.0999,-2.0793 0.96129,-2.22636 1.78316,-0.38315 3.56689,0.2406 5.31055,0.50391 6.76367,0 13.52734,0 20.29101,0 -1.29554,-4.22981 -2.19181,-8.62789 -4.17767,-12.60985 -1.39767,-2.852 -3.86171,-5.39522 -7.07462,-6.02533 -2.09485,-0.46917 -4.26935,-0.14646 -6.31646,0.37346 -5.10208,0 -10.20416,0 -15.30625,0 -0.98321,-1.88979 -2.09393,-3.88592 -2.06647,-6.07414 0.0152,-1.31509 1.53352,-1.67146 2.58405,-1.79305 2.06892,-0.25969 4.13519,0.14233 6.18438,0.33984 6.03359,0 12.06718,0 18.10078,0 -1.24467,-4.4177 -2.10468,-9.06461 -4.53841,-13.02724 -1.60368,-2.67841 -4.4154,-4.70085 -7.58287,-4.90623 -0.51274,-0.0551 -1.02817,-0.0531 -1.54278,-0.0392 z m -53.13477,0.125 c -1.66976,0.004 -3.32002,0.31215 -4.97422,0.44922 -13.27226,0 -26.54453,0 -39.8168,0 0.16022,1.47674 0.48336,2.95666 0.54142,4.43133 -0.57548,3.2011 -0.66062,6.86482 1.3887,9.58933 1.95102,2.604 5.36459,3.41685 8.45789,3.52667 2.56952,0.14728 5.12846,-0.2229 7.68875,-0.31979 1.42184,-0.0364 2.56247,1.06542 2.9916,2.35253 1.15122,3.21014 1.05199,6.69637 1.29252,10.03131 0.20572,3.28669 0.39669,6.69179 1.81277,9.71756 2.08052,11.78102 4.16324,23.56166 6.24237,35.34293 7.46419,0 14.92838,0 22.39258,0 -3.92094,-19.13716 -7.83968,-38.27477 -11.75977,-57.41211 5.78386,0 11.56771,0 17.35156,0 0.21183,-3.8445 0.35063,-7.90355 -1.38275,-11.45634 -1.41757,-3.10924 -4.47378,-5.25127 -7.79303,-5.8796 -1.45591,-0.30964 -2.94796,-0.399 -4.43359,-0.37304 z m -220.61133,0.0781 c -1.99152,0.0332 -3.94941,0.49706 -5.94531,0.3711 -10.14388,0 -20.28776,0 -30.43164,0 -8.84623,24.89067 -17.6922,49.78143 -26.539064,74.67187 17.610024,0 35.220054,0 52.830074,0 1.14247,-4.08263 2.78329,-8.03367 3.54636,-12.21604 0.42207,-2.36028 0.35543,-5.19234 -1.56589,-6.91091 -2.06417,-1.79486 -5.0298,-1.6039 -7.53907,-1.11093 -1.01901,0.29857 -2.06239,0.33424 -3.11835,0.29257 -5.01003,0 -10.02005,0 -15.03008,0 1.25847,-3.84636 2.51693,-7.69271 3.77539,-11.53906 8.99024,0 17.98047,0 26.97071,0 1.29169,-3.91235 2.99111,-7.7655 3.40379,-11.90257 0.24858,-2.24985 -0.41195,-4.86049 -2.49559,-6.06033 -2.47874,-1.42622 -5.49105,-0.9064 -8.13477,-0.29882 -4.81575,0 -9.63151,0 -14.44726,0 0.19655,-2.53642 1.08077,-5.35369 3.45891,-6.64788 2.81377,-1.50604 6.14192,-1.32194 9.22468,-1.07478 0.98275,0.0795 1.97344,0.36625 2.93153,0.0113 3.67481,-0.38421 7.35019,1.0008 11.01764,0.29901 2.15372,-0.34373 4.04816,-1.98519 4.51958,-4.14233 0.2046,-1.17742 1.01299,-2.14158 1.39297,-3.2715 0.98438,-2.35019 1.66714,-5.25459 0.22617,-7.56639 -1.41114,-2.23807 -4.25449,-2.85628 -6.72889,-2.90803 -0.44076,-0.0148 -0.88115,-0.008 -1.32189,0.004 z m 110.51172,0.16992 c -2.96307,0.0977 -5.94169,0.65534 -8.89688,0.20118 -9.74726,0 -19.49453,0 -29.24179,0 -2.58254,24.88663 -5.156,49.78149 -7.73047,74.67187 17.47331,0 34.94661,0 52.41992,0 0.18713,-4.25374 0.84388,-8.508 0.50977,-12.76953 -0.21753,-2.65994 -1.22349,-5.57607 -3.70889,-6.91549 -2.52126,-1.39474 -5.54758,-0.93043 -8.20752,-0.26029 -5.82213,0 -11.64427,0 -17.46641,0 0.10318,-3.2605 -0.10962,-6.64338 1.01557,-9.76113 0.43793,-1.35223 1.68169,-2.39597 3.13286,-2.39919 1.50952,-0.15542 2.9658,0.38836 4.42384,0.62126 6.46289,0 12.92578,0 19.38867,0 0.40149,-4.24808 1.19679,-8.57165 0.39063,-12.82032 -0.4589,-2.46366 -2.05656,-4.84386 -4.52735,-5.625 -2.32674,-0.79685 -4.84124,-0.36659 -7.1664,0.1836 -4.94193,0 -9.88386,0 -14.82578,0 -0.32129,-1.97124 -0.62646,-4.26016 0.59961,-5.99414 1.45722,-1.68796 3.88752,-1.7989 5.95937,-1.875 1.9458,-0.0555 3.88755,0.24827 5.81822,0.326 2.122,-0.37056 4.24094,-0.0279 6.3164,0.10069 2.63897,0.16989 5.5501,0.48202 7.90796,-0.97357 1.92677,-1.18972 2.50979,-3.67005 2.12096,-5.78349 -0.0381,-0.74773 -0.43038,-1.48074 -0.40767,-2.19922 0.68924,-2.21166 0.91511,-4.94892 -0.76298,-6.78855 -1.76557,-1.92803 -4.63506,-2.01127 -7.06164,-1.93968 z m -92.21484,1.75977 c -5.55303,24.37166 -11.112,48.74252 -16.66993,73.11328 17.80534,0 35.61068,0 53.41602,0 0.66225,-4.17091 1.79567,-8.27852 2.03516,-12.50781 0.11263,-2.50426 -0.34457,-5.386 -2.49415,-6.9759 -2.31606,-1.71443 -5.41936,-1.40447 -8.06275,-0.77647 -1.29976,0.31272 -2.66694,0.0707 -3.99545,0.1469 -4.85234,0 -9.70469,0 -14.55703,0 3.63799,-18.18621 7.27625,-36.37236 10.91406,-54.55859 -6.74414,0 -13.48828,0 -20.23242,0 -0.11784,0.51953 -0.23568,1.03906 -0.35351,1.55859 z" />
    <g
       inkscape:groupmode="layer"
       id="layer5"
       inkscape:label="Snow">
      <path
         style="opacity:0.976048;fill:url(#radialGradient19);stroke:#ccecfb;stroke-opacity:0.269103"
         d="m 66.37037,365.03704 c 5.060931,-3.51884 10.842716,-5.89746 16.794278,-7.41038 2.670266,-1.08523 5.547625,0.002 8.312291,-0.18823 6.083085,0.0178 12.548071,-0.74166 18.199891,2.02611 2.04068,1.00342 3.0031,3.25062 2.79856,5.4338 0.10209,2.20862 0.34254,4.78195 -1.15532,6.5931 -1.7003,1.19875 -3.68437,-0.15354 -5.07878,-1.19702 -1.53953,-1.43648 -3.47839,-2.34259 -5.52933,-2.77711 -7.872188,-2.0386 -16.087171,-3.59067 -24.224806,-2.4528 -1.903325,0.78387 -3.613456,2.06747 -5.751886,2.1876 -1.688627,0.34257 -4.092875,0.41055 -4.935014,-1.3979 l -0.06865,-0.34104 -0.01967,-0.34444"
         id="path16" />
      <path
         style="opacity:0.976048;fill:url(#radialGradient19-5);stroke:#ccecfb;stroke-opacity:0.269103"
         d="m 125.00776,360.43583 c 2.33724,-2.1927 5.7004,-2.32587 8.70223,-2.67198 2.94017,-0.74334 5.95808,-1.49581 9.01375,-1.16176 6.92304,-0.0368 14.21456,-0.43686 20.63599,2.62209 1.88129,0.5679 3.16715,2.55416 2.81252,4.50808 -0.3316,2.57176 -1.18215,5.16756 -2.73519,7.26358 -1.22347,1.37213 -3.37346,0.68777 -4.61281,-0.316 -1.02859,-0.79286 -1.74825,-2.01525 -3.10261,-2.31904 -1.77291,-0.54944 -3.82152,-0.7783 -5.05373,-2.34312 -1.12743,-1.80755 -2.88603,-3.39347 -5.15664,-2.60032 -1.96419,0.32378 -4.21907,-1.28855 -5.9023,0.21848 -1.24464,1.38337 -2.50065,3.09218 -4.61207,2.91625 -2.71552,0.35027 -5.84007,0.65827 -8.13463,-1.16581 -1.42626,-0.31305 -0.92083,-2.85417 0.50851,-2.19052 1.15376,-0.45659 3.64686,-1.14894 3.9557,-1.4568 -1.12757,-0.038 -3.20016,0.15642 -3.75545,-0.0223 1.00571,-0.50723 2.01143,-1.01445 3.01715,-1.52168"
         id="path16-8" />
      <path
         style="opacity:0.976048;fill:url(#radialGradient19-5-7);stroke:#ccecfb;stroke-opacity:0.269103"
         d="m 174.87728,358.96186 c 2.12322,-1.83916 5.07361,-1.27262 7.60414,-0.94181 2.54378,0.31961 5.0286,-0.56167 7.57698,-0.34798 1.85839,0.0942 3.75675,0.14837 5.56629,0.58117 1.55639,0.93486 1.04445,3.05905 0.74837,4.51782 -0.65439,2.97184 -2.13081,4.1836 -2.53883,7.21425 0.73267,2.08224 -1.71239,4.00151 -2.22756,2.15045 -0.85163,-2.09543 -2.98694,-1.4111 -4.71547,-1.6766 -1.32486,-0.34857 -4.30385,-0.46932 -4.49798,-1.21025 -0.95209,-0.46258 -2.60775,-0.10888 -3.52136,0.67932 -1.6592,1.06873 -2.88409,2.61478 -4.27847,3.98075 -0.81641,1.04049 -3.73074,1.38346 -3.07015,-1.14744 0.64263,-3.87169 2.2432,-7.69765 2.63268,-9.93221 l -0.0739,-0.3751 -0.19236,-0.33198"
         id="path16-8-3"
         sodipodi:nodetypes="ccccccccccccccc" />
      <path
         style="opacity:0.976048;fill:url(#radialGradient19-5-7-3);stroke:#ccecfb;stroke-opacity:0.269103"
         d="m 228.49812,362.23014 c -0.58168,-3.02263 -0.1522,-6.50886 3.85835,-5.19696 9.49715,-0.34682 18.96818,1.10971 28.46606,0.57934 3.93572,0.0881 15.72111,2.08892 12.94748,1.78742 -2.50581,-0.89626 -10.6638,-1.21469 -9.20878,2.38674 1.28183,1.1548 2.6512,3.93112 -1.31725,2.5043 -2.78556,-1.14041 -1.74186,1.91048 -4.26394,-0.0792 -2.56498,-1.12428 -6.72816,-1.87158 -8.25183,1.17497 -2.38842,2.48145 -6.83142,0.28427 -9.04835,3.61299 -2.70839,3.62481 -7.05691,1.42491 -10.41784,3.34177 -3.51141,1.81401 -4.16374,-3.05829 -3.93153,-5.46702 -1.19663,-3.51289 3.03124,-2.97874 1.03633,-6.35631"
         id="path16-8-3-1"
         sodipodi:nodetypes="cccccccccccc" />
      <path
         style="opacity:0.976048;fill:url(#radialGradient19-5-7-3-7);stroke:#ccecfb;stroke-opacity:0.269103"
         d="m 286.55031,362.98647 c 4.77826,-3.51119 10.85072,-4.44228 16.50437,-5.59603 4.64181,0.22095 9.27669,0.26572 13.92074,0.14518 4.29571,0.18603 8.94819,0.79187 12.49081,3.33464 1.15199,4.05134 0.419,8.62113 -0.88808,12.58399 -2.12885,4.68605 -3.13851,-1.49293 -4.93772,-2.78976 -2.11909,0.53017 -7.40557,1.02633 -5.25868,-2.79048 -4.61873,-1.54573 -9.50583,-2.30079 -14.34486,-2.82329 -3.36958,-0.14883 -7.07293,-0.55183 -10.23652,0.46695 0.0346,1.91105 2.45997,5.12104 -1.46441,4.16692 -3.48347,-1.13393 -8.10975,-2.54218 -9.47258,2.28586 -1.62587,1.68948 0.44523,-3.60655 0.4055,-4.79081 0.12941,-0.60889 0.25881,-1.21778 0.38822,-1.82667"
         id="path16-8-3-1-7" />
      <path
         style="opacity:0.976048;fill:url(#radialGradient19-5-7-3-7-1);stroke:#ccecfb;stroke-opacity:0.269103"
         d="m 336.43291,364.47634 c 3.90232,-3.10601 -8.6336,-5.26635 -2.28665,-6.65051 12.89871,-1.13054 26.64234,-0.51488 39.52582,-1.73303 4.35527,1.57349 11.35082,0.27946 13.71893,4.22734 2.84212,3.56855 7.29061,7.67289 0.019,7.91442 -5.76384,-0.70774 -6.79488,-6.05931 -12.70366,-6.33822 -8.15833,-1.2983 -16.35832,0.37798 -24.43199,1.49007 -4.19169,-2.41753 -12.48442,3.00896 -12.4513,0.66292"
         id="path16-8-3-1-7-5"
         sodipodi:nodetypes="cccccccc" />
      <path
         style="opacity:0.976048;fill:url(#radialGradient19-5-7-3-7-1-8);stroke:#ccecfb;stroke-opacity:0.269103"
         d="m 393.67499,357.96654 c 5.73024,-3.57534 12.27122,1.3433 18.34715,-0.55803 4.08391,-0.83408 8.23561,0.33908 12.37121,-0.1102 5.16809,-0.003 11.14705,-0.20273 15.29826,3.33645 1.57,3.12 0.6418,4.68807 2.87087,7.59828 2.91915,3.96275 -1.50217,9.31942 -5.11679,7.95077 -3.76223,-0.18492 -6.62304,-3.19709 -10.36531,-3.27961 -3.53748,1.45215 -7.19509,0.0119 -10.83097,0.22695 -4.50965,0.92775 -8.26212,-2.49003 -12.21231,-4.05284 -2.88274,-2.27858 -6.76213,-1.21828 -9.74178,-2.98908 -2.51974,-1.7668 -0.77805,-5.00827 -2.79314,-7.20088"
         id="path16-8-3-1-7-5-4"
         sodipodi:nodetypes="ccccccccccc" />
    </g>
  </g>
  <g
     inkscape:groupmode="layer"
     id="layer2"
     inkscape:label="Image"
     style="display:inline">
    <path
       style="fill:#8e89d7;fill-opacity:1"
       d="m 206.48559,146.43622 -21.5967,50.56789 -18.43622,40.55968 -17.90946,-17.38272 -28.97119,38.97942 -24.757205,-23.17694 -60.049383,104.82304 c 0,0 86.913578,4.74074 89.020578,5.79424 2.10699,1.05349 42.66666,-5.79424 53.72839,-0.52675 11.06173,5.26749 63.20988,-0.52675 63.20988,-0.52675 0,0 76.3786,0.52674 82.17284,-0.52676 5.79423,-1.05349 62.68313,-4.74073 67.42387,-3.68723 4.74074,1.05349 55.87283,5.62899 55.87283,5.62899 L 397.16872,225.97531 376.09877,245.46503 333.4321,158.02469 311.83539,177.5144 292.87243,153.28396 272.32922,88.493827 246.51852,65.316872 Z"
       id="path2"
       sodipodi:nodetypes="cccccccsscssccccccccc"
       inkscape:label="bottom" />
    <path
       style="fill:#b9b2ef;fill-opacity:1"
       d="m 206.48559,146.43622 -21.5967,50.56789 -7.63465,53.59605 -28.71103,-30.41909 -25.24651,44.19397 -28.481885,-28.39149 -5.296621,57.51963 c 0,0 31.043416,-14.25511 33.150416,-13.20161 2.10699,1.05349 96.26093,32.22193 97.67958,31.50548 l 39.49975,-9.95075 26.54734,39.4396 c 3.28852,4.88554 56.30941,-44.00509 60.34698,-41.30648 2.13347,1.42596 71.14401,31.70173 71.14401,31.70173 l -20.71755,-105.71584 -27.77437,24.3318 -35.96225,-92.28242 -26.06632,21.72452 -14.49335,-26.46525 -20.54321,-64.790133 -25.8107,-23.176955 z"
       id="path3"
       sodipodi:nodetypes="cccccccsscssccccccccc"
       inkscape:label="3rd" />
    <g
       inkscape:groupmode="layer"
       id="layer3"
       inkscape:label="2nd">
      <path
         style="fill:#b2d5ef;fill-opacity:1;stroke-width:1.42921"
         d="m 86.386831,253.89301 8.354484,17.90946 9.113985,-11.19341 15.18997,1.49246 -24.303955,-26.11798 z"
         id="path4" />
      <path
         d="m 332.99307,159.38955 -23.53372,16.73326 -2.51201,11.41977 -47.70289,18.28067 50.08669,-3.37154 21.70764,-1.48755 8.65847,-27.00929 z"
         style="baseline-shift:baseline;display:inline;overflow:visible;vector-effect:none;fill:#b2d5ef;enable-background:accumulate;stop-color:#000000;stop-opacity:1"
         id="path5"
         sodipodi:nodetypes="cccccccc" />
      <path
         d="m 224.19302,205.08642 14.42838,19.88547 -5.89384,11.59945 -33.68681,29.09064 44.21016,-14.89147 8.49356,-3.28131 32.30879,-2.98518 -30.49126,-9.36952 z"
         style="baseline-shift:baseline;display:inline;overflow:visible;vector-effect:none;fill:#b2d5ef;enable-background:accumulate;stop-color:#000000"
         id="path5-5"
         sodipodi:nodetypes="ccccccccc" />
      <path
         d="m 244.47285,67.028809 -46.80618,99.556251 8.35351,17.9082 20.17697,-25.94233 38.89315,-23.26501 7.36888,-47.094313 z"
         style="baseline-shift:baseline;display:inline;overflow:visible;vector-effect:none;fill:#b2d5ef;enable-background:accumulate;stop-color:#000000"
         id="path5-5-1"
         sodipodi:nodetypes="ccccccc" />
      <path
         d="m 363.84561,221.04801 -11.37179,14.42977 -21.5646,8.32247 -45.84055,9.15521 65.54411,-4.11647 17.61049,-4.65353 z"
         style="baseline-shift:baseline;display:inline;overflow:visible;vector-effect:none;fill:#b2d5ef;enable-background:accumulate;stop-color:#000000"
         id="path5-5-1-7"
         sodipodi:nodetypes="ccccccc" />
      <path
         d="m 396.84434,226.52983 -25.8595,20.70367 21.20365,38.02146 -1.31386,-40.99079 9.04373,-9.68184 z"
         style="baseline-shift:baseline;display:inline;overflow:visible;vector-effect:none;fill:#b2d5ef;enable-background:accumulate;stop-color:#000000"
         id="path5-5-1-7-2"
         sodipodi:nodetypes="cccccc" />
      <path
         d="m 148.18479,221.1358 -8.4852,14.09123 10.98726,-4.47863 -1.41974,16.0659 7.95136,-8.72118 10.92533,3.23394 z"
         style="baseline-shift:baseline;display:inline;overflow:visible;vector-effect:none;fill:#b2d5ef;enable-background:accumulate;stop-color:#000000"
         id="path5-5-1-7-2-1"
         sodipodi:nodetypes="ccccccc" />
    </g>
    <g
       inkscape:groupmode="layer"
       id="layer4"
       inkscape:label="top">
      <path
         d="m 248.19753,63.304131 -14.02902,28.042439 16.49123,16.61014 -21.54656,48.229 27.62633,-40.09611 12.44793,-5.01408 3.27174,-22.883913 z"
         style="baseline-shift:baseline;display:inline;overflow:visible;vector-effect:none;fill:#b1eef0;fill-opacity:1;enable-background:accumulate;stop-color:#000000"
         id="path6"
         sodipodi:nodetypes="cccccccc" />
    </g>
  </g>
  <path
     d="m 181.02474,278.62691 h 2.26587 l 0.21242,-0.35404 1.34536,1.06212 -0.28324,0.21243 -1.84101,2.76152 h 2.97394 v 5.169 h -1.84101 v 4.3901 q 0,0.49566 0.42485,0.49566 h 6.9392 q 0.42485,0 0.49566,-0.42485 l 0.14162,-1.20374 1.41616,0.35404 -0.14161,1.20374 q -0.14162,1.41617 -1.55779,1.41617 h -7.85971 q -1.27454,0 -1.27454,-1.27455 v -4.95657 h -1.48698 v 2.05343 q 0,3.11556 -3.18636,4.67334 l -0.77889,-1.34535 q 2.54909,-1.13293 2.54909,-3.3988 v -1.98262 h -0.63727 -0.63728 v -4.53173 q -0.56646,0.49566 -1.13293,0.92051 l -0.63727,-1.34536 q 2.47828,-1.62859 3.61122,-5.02738 l 1.41616,0.28323 q 0.28323,0.28323 -0.21242,0.35404 z m 9.06345,10.83365 q 0.56647,0 0.56647,-0.49565 l 0.35404,-6.79759 h -1.6994 l -0.14161,2.83233 q -0.21243,4.17768 -3.68203,6.37274 l -0.8497,-1.27455 q 3.04475,-1.62859 3.18637,-5.45223 l 0.0708,-2.47829 h -1.62859 v -1.34536 h 1.62859 v -2.76152 h 1.34535 q 0.56647,0.0708 0.0708,0.42485 v 2.33667 h 3.11556 l -0.35404,8.00133 q -0.0708,1.98263 -1.34535,1.98263 h -1.6994 l -0.14162,-1.34536 z M 179.46696,286.345 h 1.91182 v -2.90313 h -1.91182 z m 3.11556,0 h 1.91182 v -2.90313 h -1.91182 z m -1.98263,-6.58516 q -0.56646,1.13293 -1.7702,2.5491 h 2.54909 l 1.48698,-2.5491 z m 19.96792,6.72678 -0.42485,5.38142 q -0.14162,2.19506 -2.05344,2.19506 h -1.98263 l -0.14162,-1.34536 h 1.98263 q 0.70808,0 0.77889,-0.8497 l 0.35404,-4.24849 h -2.26586 l -0.0708,0.49566 -1.48697,-0.21243 q 0.42485,-2.26586 0.70808,-5.45223 h 3.32799 v -2.69071 h -4.03607 v -1.13293 h 5.23981 v 5.45223 h -1.20374 v -0.49566 h -2.05344 q -0.0708,1.62859 -0.35404,2.90314 z m 8.85102,6.08951 q -4.24849,0.77889 -7.57648,1.06212 -0.42485,0.56646 -0.49565,0 l -0.28324,-1.41617 q 2.19506,-0.0708 4.2485,-0.28323 v -2.54909 h -2.26587 v 0.56646 h -1.20374 v -5.02738 h 3.46961 v -1.91182 q -1.77021,0.14161 -3.32799,0.28323 -0.42485,0.77889 -0.56647,-0.0708 l -0.28323,-1.48697 q 0.8497,0.0708 1.6994,0 1.13293,-1.62859 2.19505,-3.89445 l 1.48698,0.56647 q 0.42484,0.21242 -0.21243,0.35404 -0.99131,1.7702 -1.84101,2.97394 1.69939,-0.0708 3.4696,-0.21242 -0.8497,-0.92051 -1.06212,-1.13294 l 1.13293,-0.84969 q 1.69939,1.55778 3.11556,3.39879 l -1.27455,0.92051 q -0.35404,-0.49566 -0.99131,-1.27455 l -2.33667,0.28323 v 2.05344 h 3.61121 v 4.46092 h -3.61121 v 2.47828 q 1.34535,-0.14161 2.33667,-0.28323 -0.42485,-0.63727 -0.99132,-1.27455 l 0.99132,-0.70808 q 1.55778,1.48697 2.54909,3.32799 l -1.34535,0.77889 q -0.14162,-0.42485 -0.63728,-1.13293 z m -6.37274,-4.3193 h 2.26587 v -2.19506 h -2.26587 z m 3.46961,0 h 2.40747 v -2.19506 h -2.40747 z m 20.39276,-0.21243 h -4.60254 v 5.38142 h -1.41616 v -5.38142 h -4.24849 q -0.14162,3.68203 -2.19506,5.87708 l -1.13293,-1.13293 q 1.91182,-2.12425 1.91182,-4.95657 v -9.06345 h 13.09952 v 13.52436 q 0,1.13293 -1.13293,1.13293 h -1.98263 l -0.35404,-1.55778 h 1.7702 q 0.28324,0 0.28324,-0.28323 z m -10.26719,-3.96526 v 2.6199 h 4.24849 v -2.6199 z m 0,-3.96526 v 2.61991 h 4.24849 v -2.61991 z m 5.66465,3.96526 v 2.6199 h 4.60254 v -2.6199 z m 0,-3.96526 v 2.61991 h 4.60254 v -2.61991 z m 17.84367,2.33667 q -1.20374,7.08082 -2.90314,8.78022 -0.9205,0.92051 -1.91182,0.92051 -1.13293,0 -1.7702,-0.63728 -1.6994,-1.69939 -1.6994,-4.24849 0,-3.11556 2.19506,-5.31061 2.40747,-2.40748 5.87708,-2.40748 3.11556,0 4.88576,1.7702 1.98263,1.98263 1.98263,4.67334 0,2.90314 -1.84101,4.74415 -1.20374,1.20374 -3.68203,2.33667 l -1.48697,-1.48697 q 2.47829,-0.77889 3.89445,-2.19505 1.34536,-1.34536 1.34536,-3.25718 0,-2.26586 -1.48698,-3.75284 -1.48697,-1.48697 -4.67334,-1.34535 l 1.27455,0.63727 q 0.8497,0.35404 0,0.77889 z M 238.521,281.1052 q -1.84101,0.42485 -3.18637,1.7702 -1.84101,1.84102 -1.84101,4.53173 0,1.62859 1.06212,2.69071 0.21243,0.21242 0.63728,0.21242 0.42485,0 0.9205,-0.49565 1.62859,-1.62859 2.40748,-8.70941 z m 24.21641,1.62859 q -1.34536,7.71809 -8.85103,11.04608 l -1.27455,-1.34536 q 6.93921,-2.83233 8.35537,-9.77153 h -5.66465 q -1.62859,2.69071 -3.3988,4.3193 l -1.41616,-0.92051 q 3.68203,-3.32798 4.74415,-7.7889 l 1.62859,0.56646 q 0.42485,0.21243 -0.14162,0.42485 -0.28323,0.92051 -0.77889,1.84102 h 5.09819 l 0.63727,-0.35404 1.27455,1.27454 q 0.49566,0.49566 -0.21242,0.70809 z m 18.62255,8.49698 h -1.62858 v -0.77889 h -7.85971 v 1.13293 h -1.62859 v -11.04608 h 11.11688 z m -9.48829,-9.13426 v 6.79759 h 7.85971 v -6.79759 z m 14.02002,4.53173 v -1.55778 h 15.79023 v 1.55778 z m 33.84632,-2.40748 q -3.75283,7.7889 -12.60386,8.21375 -0.35404,0.92051 -0.70808,0.14162 l -0.56647,-1.84102 q 9.20507,-0.21242 12.39144,-7.57648 z m -9.98396,0 q -1.91182,-1.77021 -3.61121,-2.90314 l 1.20373,-1.48697 q 1.48698,0.92051 3.75284,3.04475 z"
     id="text23"
     style="font-size:18.1269px;opacity:0.976048;stroke:#ccecfb;stroke-width:1.51057;stroke-opacity:0.269103"
     inkscape:label="Annotation"
     transform="scale(1.0120684,0.9880755)"
     aria-label="勉強用のクローン" />
</svg>
