<?xml version="1.0" encoding="UTF-8" standalone="no"?>
<!-- Created with Inkscape (http://www.inkscape.org/) -->

<svg
   width="128"
   height="128"
   viewBox="0 0 33.866666 33.866666"
   version="1.1"
   id="svg1"
   inkscape:version="1.4 (86a8ad7, 2024-10-11)"
   sodipodi:docname="BlueHeart.svg"
   xmlns:inkscape="http://www.inkscape.org/namespaces/inkscape"
   xmlns:sodipodi="http://sodipodi.sourceforge.net/DTD/sodipodi-0.dtd"
   xmlns="http://www.w3.org/2000/svg"
   xmlns:svg="http://www.w3.org/2000/svg">
  <sodipodi:namedview
     id="namedview1"
     pagecolor="#ffffff"
     bordercolor="#000000"
     borderopacity="0.25"
     inkscape:showpageshadow="2"
     inkscape:pageopacity="0.0"
     inkscape:pagecheckerboard="0"
     inkscape:deskcolor="#d1d1d1"
     inkscape:document-units="mm"
     inkscape:zoom="3.6204265"
     inkscape:cx="5.9385269"
     inkscape:cy="67.947796"
     inkscape:window-width="1920"
     inkscape:window-height="1010"
     inkscape:window-x="2553"
     inkscape:window-y="-6"
     inkscape:window-maximized="1"
     inkscape:current-layer="layer1" />
  <defs
     id="defs1" />
  <g
     inkscape:label="Layer 1"
     inkscape:groupmode="layer"
     id="layer1">
    <path
       d="m 32.670754,10.468275 q 0.156697,1.721994 -0.247006,3.513643 -0.387839,1.771342 -1.184798,3.523143 -0.779393,1.75021 -1.865919,3.433893 -1.086525,1.683684 -2.292069,3.227179 -1.207247,1.524779 -2.468362,2.846852 -1.243551,1.320479 -2.370419,2.366181 -1.128571,1.026986 -2.038476,1.732207 -0.909904,0.705223 -1.434,0.979179 Q 18.257428,31.910514 17.270241,31.377209 16.283057,30.843905 15.003433,30.016282 13.723807,29.188661 12.244682,28.114913 10.763852,27.022449 9.2835575,25.74122 7.8191242,24.439683 6.4288935,22.980447 5.0545252,21.500901 3.9543942,19.921018 2.8525603,18.322417 2.1144952,16.634236 1.3939955,14.944463 1.2372999,13.222469 1.1657649,12.436341 1.2579639,11.503274 1.3677284,10.568614 1.6531494,9.6180369 1.9561363,8.6658676 2.4415922,7.7726491 2.9446138,6.8778391 3.6420274,6.1730012 4.3377375,5.4494461 5.2346525,4.9907326 6.1474297,4.51171 7.2891966,4.4082411 8.3255702,4.3143237 9.4628637,4.55095 q 1.1531553,0.2163175 2.3579413,0.8053899 1.203082,0.5703551 2.42096,1.4979312 1.235444,0.9259843 2.43469,2.2326825 0.831022,-1.3774545 1.866656,-2.4526326 1.033931,-1.0938955 2.151217,-1.8556546 1.133148,-0.7820681 2.296955,-1.2272243 1.162102,-0.4638736 2.286304,-0.5657507 1.159331,-0.1050606 2.143645,0.2020445 0.982608,0.2883879 1.779978,0.8766376 0.795667,0.5695326 1.416845,1.3624656 0.619478,0.7742159 1.052544,1.6408113 0.433068,0.8665952 0.672912,1.7507004 0.257411,0.8825137 0.327243,1.6499242 z"
       id="text1"
       style="font-size:35.7526px;font-family:'Leelawadee UI';-inkscape-font-specification:'Leelawadee UI, Normal';fill:#30d0ff;fill-opacity:1;stroke:#18285b;stroke-width:1.31259;stroke-dasharray:none"
       aria-label="❤" />
    <path
       d="m 30.879403,10.862364 q 0.183132,1.628979 -0.13659,3.338929 -0.305929,1.690264 -0.980681,3.372881 -0.658975,1.68064 -1.596098,3.306353 -0.937122,1.62572 -1.984823,3.121646 -1.049693,1.47822 -2.152836,2.765627 -1.087366,1.285427 -2.07639,2.307151 -0.991015,1.004019 -1.793014,1.697059 -0.801999,0.693039 -1.267172,0.966802 -0.465617,-0.157122 -1.367441,-0.636653 -0.901823,-0.47953 -2.074126,-1.230411 -1.172303,-0.750885 -2.530235,-1.729886 -1.35992,-0.996707 -2.723971,-2.172455 Q 8.8457611,24.773974 7.5584509,23.42701 6.2849256,22.060359 5.2558561,20.591253 4.2247957,19.104441 3.5190626,17.522995 2.8291061,15.93957 2.6459756,14.310592 q -0.083603,-0.743668 -0.02338,-1.631045 0.076,-0.889355 0.309762,-1.79848 Q 3.1818956,9.9699652 3.5971566,9.1099192 4.0281939,8.2478961 4.6388886,7.5608731 5.2475916,6.8561439 6.0439154,6.3972396 6.8540237,5.918652 7.8794722,5.7901504 q 0.9307904,-0.1166398 1.9605161,0.077526 1.0435097,0.1744824 2.1426097,0.7011144 1.097107,0.5089253 2.21626,1.3562475 1.134926,0.8453451 2.246562,2.0527251 0.714561,-1.3284909 1.620724,-2.3757435 0.904172,-1.0649588 1.891504,-1.8171348 1.001117,-0.7718594 2.038061,-1.225005 1.034956,-0.4708523 2.044627,-0.5973768 1.041225,-0.1304786 1.934938,0.1345989 0.891718,0.2473711 1.623988,0.7840598 0.730274,0.5189828 1.30891,1.2544811 0.576643,0.7177919 0.987712,1.5281563 0.411069,0.8103629 0.648599,1.6424736 0.253309,0.830134 0.33492,1.556091 z"
       id="text1-8"
       style="font-size:35.7526px;font-family:'Leelawadee UI';-inkscape-font-specification:'Leelawadee UI, Normal';fill:#3086ff;fill-opacity:1;stroke:none;stroke-width:0.314299;stroke-dasharray:none"
       aria-label="❤" />
    <ellipse
       style="fill:#dbfcff;fill-opacity:1;stroke:none;stroke-width:0.175237;stroke-dasharray:none;stroke-opacity:1"
       id="path1"
       cx="16.27914"
       cy="22.500801"
       rx="1.4935942"
       ry="1.9550685"
       transform="matrix(0.77693979,-0.6295749,0.63114344,0.77566614,0,0)" />
  </g>
</svg>
