<?xml version="1.0" encoding="UTF-8" standalone="no"?>
<!-- Created with Inkscape (http://www.inkscape.org/) -->

<svg
   width="16mm"
   height="16mm"
   viewBox="0 0 16 16"
   version="1.1"
   id="svg1"
   inkscape:version="1.4 (86a8ad7, 2024-10-11)"
   sodipodi:docname="Options.svg"
   xmlns:inkscape="http://www.inkscape.org/namespaces/inkscape"
   xmlns:sodipodi="http://sodipodi.sourceforge.net/DTD/sodipodi-0.dtd"
   xmlns:xlink="http://www.w3.org/1999/xlink"
   xmlns="http://www.w3.org/2000/svg"
   xmlns:svg="http://www.w3.org/2000/svg">
  <sodipodi:namedview
     id="namedview1"
     pagecolor="#ffffff"
     bordercolor="#000000"
     borderopacity="0.25"
     inkscape:showpageshadow="2"
     inkscape:pageopacity="0.0"
     inkscape:pagecheckerboard="0"
     inkscape:deskcolor="#d1d1d1"
     inkscape:document-units="mm"
     inkscape:zoom="5.8939154"
     inkscape:cx="-4.411329"
     inkscape:cy="32.745634"
     inkscape:window-width="1920"
     inkscape:window-height="1010"
     inkscape:window-x="2553"
     inkscape:window-y="-6"
     inkscape:window-maximized="1"
     inkscape:current-layer="text3" />
  <defs
     id="defs1">
    <linearGradient
       id="linearGradient6"
       inkscape:collect="always">
      <stop
         style="stop-color:#3f3f3f;stop-opacity:1;"
         offset="0.67433769"
         id="stop5" />
      <stop
         style="stop-color:#000000;stop-opacity:0;"
         offset="1"
         id="stop6" />
    </linearGradient>
    <linearGradient
       id="linearGradient3"
       inkscape:collect="always">
      <stop
         style="stop-color:#d1d2d2;stop-opacity:1;"
         offset="0.02068966"
         id="stop3" />
      <stop
         style="stop-color:#a4a4c9;stop-opacity:0.95183486;"
         offset="0.12413792"
         id="stop4" />
    </linearGradient>
    <linearGradient
       id="linearGradient127"
       inkscape:collect="always">
      <stop
         style="stop-color:#93a1ca;stop-opacity:1;"
         offset="0"
         id="stop126" />
      <stop
         style="stop-color:#779f9f;stop-opacity:0;"
         offset="1"
         id="stop127" />
    </linearGradient>
    <linearGradient
       id="linearGradient114-1">
      <stop
         style="stop-color:#000000;stop-opacity:1;"
         offset="0"
         id="stop115" />
      <stop
         style="stop-color:#000000;stop-opacity:0;"
         offset="1"
         id="stop116" />
    </linearGradient>
    <linearGradient
       id="swatch108"
       inkscape:swatch="solid">
      <stop
         style="stop-color:#000000;stop-opacity:1;"
         offset="0"
         id="stop108" />
    </linearGradient>
    <linearGradient
       id="linearGradient91"
       inkscape:collect="always">
      <stop
         style="stop-color:#181128;stop-opacity:1;"
         offset="0"
         id="stop92" />
      <stop
         style="stop-color:#779f9f;stop-opacity:0;"
         offset="1"
         id="stop93" />
    </linearGradient>
    <linearGradient
       id="swatch35"
       inkscape:swatch="solid">
      <stop
         style="stop-color:#000000;stop-opacity:1;"
         offset="0"
         id="stop35" />
    </linearGradient>
    <linearGradient
       id="swatch18"
       inkscape:swatch="solid">
      <stop
         style="stop-color:#000000;stop-opacity:0.85035598;"
         offset="0"
         id="stop19" />
    </linearGradient>
    <linearGradient
       id="linearGradient16"
       inkscape:collect="always">
      <stop
         style="stop-color:#3f3f3f;stop-opacity:1;"
         offset="0.55351681"
         id="stop17" />
      <stop
         style="stop-color:#000000;stop-opacity:0;"
         offset="1"
         id="stop18" />
    </linearGradient>
    <linearGradient
       id="swatch15"
       inkscape:swatch="solid">
      <stop
         style="stop-color:#000000;stop-opacity:1;"
         offset="0"
         id="stop16" />
    </linearGradient>
    <linearGradient
       id="swatch14"
       inkscape:swatch="solid">
      <stop
         style="stop-color:#000000;stop-opacity:1;"
         offset="0"
         id="stop15" />
    </linearGradient>
    <radialGradient
       inkscape:collect="always"
       xlink:href="#linearGradient6"
       id="radialGradient18"
       cx="32.168797"
       cy="31.388266"
       fx="32.168797"
       fy="31.388266"
       r="29.809143"
       gradientTransform="matrix(0.82809543,0.00321709,-0.00181824,0.46802099,-18.35249,-6.6912206)"
       gradientUnits="userSpaceOnUse" />
    <linearGradient
       inkscape:collect="always"
       xlink:href="#linearGradient127"
       id="linearGradient93"
       x1="31.921558"
       y1="31.509169"
       x2="6.5430856"
       y2="31.580462"
       gradientUnits="userSpaceOnUse"
       gradientTransform="matrix(0.21650002,0,0,0.21650002,1.2646963,1.3667384)" />
    <linearGradient
       inkscape:collect="always"
       xlink:href="#linearGradient91"
       id="linearGradient126"
       gradientUnits="userSpaceOnUse"
       gradientTransform="matrix(0.2557347,0,0,0.2557347,0.00255812,0.14604238)"
       x1="31.921558"
       y1="31.509169"
       x2="6.5430856"
       y2="31.580462" />
    <radialGradient
       inkscape:collect="always"
       xlink:href="#linearGradient16"
       id="radialGradient1"
       gradientUnits="userSpaceOnUse"
       gradientTransform="matrix(0.24825495,0,0,0.26038853,0.24321029,-0.0705077)"
       cx="32.168797"
       cy="31.388266"
       fx="32.168797"
       fy="31.388266"
       r="29.809143" />
    <linearGradient
       inkscape:collect="always"
       xlink:href="#linearGradient3"
       id="linearGradient12"
       x1="12.150743"
       y1="1.8269711"
       x2="4.3078046"
       y2="14.378296"
       gradientUnits="userSpaceOnUse" />
  </defs>
  <g
     inkscape:label="Layer 1"
     inkscape:groupmode="layer"
     id="layer1">
    <g
       id="text3"
       transform="translate(-0.1689428)">
      <path
         id="path1"
         style="-inkscape-font-specification:'Ebrima, Normal';display:inline;fill:#ffffff;fill-opacity:1;stroke:url(#radialGradient1);stroke-width:0.248;stroke-opacity:1;stroke-dasharray:none"
         d="m 8.2293377,0.46480497 c -0.2942106,0 -0.5850994,0.0167281 -0.8726233,0.050161 L 7.0959018,2.3905556 C 6.647899,2.4774815 6.2099066,2.6179459 5.7819634,2.8118578 L 4.5181847,1.4979186 C 4.0100018,1.7988164 3.5420018,2.1632567 3.1140585,2.5912 L 3.9565343,4.1458098 C 3.6422631,4.4868272 3.3748712,4.8579073 3.1542129,5.2591044 L 1.4991528,4.9482593 C 1.2517481,5.5099354 1.074636,6.0983522 0.96765027,6.7135204 L 2.4520856,7.4055129 c -0.026747,0.234032 -0.040155,0.4647758 -0.040155,0.6921206 0,0.2273454 0.013407,0.4579609 0.040155,0.6919924 L 0.96765027,9.4917532 C 1.074636,10.100235 1.2517481,10.685331 1.4991528,11.247007 l 1.6550601,-0.310973 c 0.2206583,0.407884 0.4880502,0.779093 0.8023214,1.113423 l -0.8424758,1.55461 c 0.4279433,0.427942 0.8959433,0.795704 1.4041262,1.103288 l 1.2637787,-1.323946 c 0.4279432,0.193912 0.8659356,0.337695 1.3139384,0.431309 l 0.2608126,1.865454 c 0.2875239,0.04011 0.5784127,0.06029 0.8726233,0.06029 0.2942116,0 0.5849717,-0.02017 0.8724957,-0.06029 l 0.2608121,-1.865454 c 0.4480031,-0.09361 0.8859955,-0.237397 1.3139375,-0.431309 l 1.263779,1.323946 c 0.508182,-0.307584 0.976311,-0.675346 1.404256,-1.103288 l -0.842605,-1.55461 c 0.31427,-0.341017 0.581791,-0.712225 0.802449,-1.113423 l 1.654932,0.310973 C 15.2068,10.685331 15.38391,10.100235 15.490897,9.4917532 L 14.006589,8.7896259 c 0.02675,-0.2340315 0.04002,-0.464647 0.04002,-0.6919924 0,-0.2273448 -0.01327,-0.4580886 -0.04002,-0.6921206 L 15.490897,6.7135204 C 15.38391,6.0983522 15.2068,5.5099354 14.959394,4.9482593 L 13.304462,5.2591044 C 13.083804,4.8579073 12.816283,4.490147 12.502013,4.1558164 L 13.344618,2.5912 C 12.916673,2.1632567 12.448544,1.7988164 11.940362,1.4979186 L 10.676583,2.8218642 C 10.248641,2.6212656 9.8106486,2.4774815 9.3626455,2.3905556 L 9.1018334,0.51496607 C 8.8143094,0.48153302 8.5235493,0.46480499 8.2293377,0.46480497 Z m 0,5.27807823 A 2.2645226,2.3056498 0 0 1 10.493772,8.0484987 2.2645226,2.3056498 0 0 1 8.2293377,10.354242 2.2645226,2.3056498 0 0 1 5.9647751,8.0484987 2.2645226,2.3056498 0 0 1 8.2293377,5.7428832 Z" />
      <path
         id="path4"
         style="-inkscape-font-specification:'Ebrima, Normal';display:inline;fill:#143055;fill-opacity:0.84960938;stroke:none;stroke-width:0.248256"
         d="M 8.0059845,0.30094293 C 7.7392456,0.30884024 7.4730444,0.33077912 7.2083689,0.36446129 7.12156,0.99441994 7.0330373,1.6241433 6.9455676,2.254011 6.5609113,2.3367829 6.1848917,2.4584528 5.8235714,2.6137869 5.3981842,2.1714139 4.9727326,1.7291016 4.5473858,1.2866895 3.9441265,1.631752 3.3902491,2.0623733 2.9080303,2.5628752 3.1903801,3.083707 3.4723982,3.6047186 3.7546184,4.1256208 3.4959563,4.4175794 3.2658709,4.7351267 3.0709477,5.0730624 2.5138404,4.9684284 1.9566359,4.8643114 1.3995906,4.7593497 1.1006438,5.4110551 0.89459846,6.1039582 0.78040784,6.8113325 1.2784317,7.0434584 1.7763271,7.275861 2.2743014,7.5080944 2.2350594,7.900383 2.2344834,8.2965384 2.2747854,8.6887604 1.776693,8.9244794 1.2783216,9.1596102 0.78040713,9.3957047 0.89489529,10.099447 1.1024584,10.788033 1.3995899,11.436535 c 0.5568856,-0.104951 1.1139263,-0.20908 1.6708721,-0.313713 0.1937749,0.338948 0.4219294,0.658945 0.6841557,0.948412 -0.2822133,0.520582 -0.5642838,1.041242 -0.8465882,1.561775 0.4831106,0.502316 1.0382147,0.934125 1.6383856,1.287824 0.4253269,-0.446618 0.8515008,-0.892431 1.2771558,-1.338735 0.3618704,0.156208 0.7376068,0.280563 1.1219957,0.368019 0.08758,0.626135 0.1753221,1.252247 0.2628013,1.878397 0.6752396,0.10519 1.3665533,0.105057 2.0418,0 0.08748,-0.626149 0.1752191,-1.252263 0.2628008,-1.878397 0.384399,-0.08744 0.7601163,-0.211834 1.1219953,-0.368019 0.425655,0.446304 0.851829,0.892116 1.277155,1.338735 0.600162,-0.353716 1.155282,-0.785505 1.638386,-1.287824 -0.28235,-0.520831 -0.564368,-1.041843 -0.846587,-1.562745 0.2586,-0.291827 0.488425,-0.609651 0.683184,-0.947442 0.55727,0.104636 1.114638,0.208741 1.671843,0.313713 0.297124,-0.648502 0.504706,-1.337092 0.619183,-2.0408303 C 15.180215,9.1596062 14.68184,8.9244825 14.183749,8.6887604 14.224069,8.2965384 14.223459,7.900381 14.184247,7.5080944 14.68222,7.2758605 15.180116,7.0434593 15.678139,6.8113325 15.563934,6.1039561 15.357909,5.4110546 15.058958,4.7593497 14.501912,4.8643118 13.944707,4.9684281 13.3876,5.0730624 13.193656,4.7371239 12.963735,4.4223251 12.703929,4.1343484 12.986248,3.6098569 13.268875,3.0855308 13.551002,2.5609357 13.066073,2.0635859 12.514838,1.6303257 11.910666,1.2866895 11.485257,1.7322738 11.059878,2.1778883 10.634481,2.6234842 10.274844,2.4622785 9.8984005,2.337866 9.5129692,2.2549809 9.4254911,1.6247909 9.3370002,0.99473993 9.2501684,0.36446129 8.8378532,0.31129154 8.4216831,0.28932607 8.0059845,0.30094293 Z m 0.2230419,0.33165308 c 0.2427401,0.001897 0.4948906,0.0128203 0.7248845,0.0378197 0.086177,0.62081699 0.1734365,1.24148539 0.2589219,1.86239709 0.521104,0.0902 1.0269032,0.2599568 1.5016512,0.492146 0.41721,-0.4366606 0.833947,-0.8737744 1.250971,-1.3106116 0.42166,0.2600201 0.813974,0.5672047 1.169515,0.912046 -0.279497,0.5189491 -0.558593,1.0381151 -0.838344,1.5569269 0.370016,0.3803348 0.672578,0.793469 0.918833,1.2635794 0.546199,-0.1032774 1.092595,-0.2055106 1.638871,-0.3083795 0.200283,0.4755764 0.3484,0.9729248 0.444628,1.4798324 -0.490824,0.228923 -0.98189,0.4573246 -1.472559,0.6865796 0.06877,0.5198205 0.06897,1.0652732 0,1.5850499 0.490776,0.2324168 0.981718,0.4644831 1.472559,0.6967626 -0.09576,0.5011165 -0.241877,0.9859775 -0.444628,1.4706195 -0.546275,-0.102872 -1.092673,-0.205096 -1.638871,-0.308379 -0.243441,0.466046 -0.555363,0.894693 -0.917865,1.275215 0.279932,0.514747 0.558472,1.03025 0.837861,1.54529 -0.357008,0.346503 -0.749466,0.656651 -1.170968,0.92126 -0.416294,-0.436435 -0.832995,-0.872481 -1.249033,-1.309158 -0.485191,0.229315 -0.9798449,0.391496 -1.5026212,0.493601 -0.086043,0.617764 -0.1726568,1.235451 -0.2589219,1.853185 -0.4807563,0.05847 -0.9685302,0.05851 -1.449285,0 C 7.4183617,14.910644 7.3317465,14.292958 7.2457036,13.675193 6.7227996,13.57304 6.2282853,13.410908 5.7430824,13.181592 5.3270399,13.618266 4.910346,14.054318 4.4940497,14.49075 4.0725504,14.226142 3.6800759,13.915996 3.3230816,13.56949 3.6026314,13.05445 3.8813679,12.538965 4.1614267,12.0242 3.7957279,11.646163 3.4841022,11.216691 3.2430774,10.748985 2.6968789,10.852263 2.1504828,10.954496 1.604207,11.057364 1.4058869,10.584231 1.2551242,10.090798 1.1590936,9.5867445 1.6500946,9.3544615 2.1412104,9.1224212 2.6321377,8.8899826 2.5631255,8.3701755 2.5634109,7.824723 2.6321377,7.3049327 2.1414686,7.0756791 1.6504027,6.847274 1.1595785,6.6183529 1.255802,6.1114433 1.4039362,5.6140998 1.604207,5.1385205 2.1504821,5.2413929 2.6968801,5.3436171 3.2430774,5.4468995 3.4865192,4.980854 3.7984399,4.5522062 4.1609419,4.1716835 3.8810115,3.6569375 3.6024703,3.1414347 3.3230816,2.6263936 3.6791536,2.2819028 4.0712084,1.9736517 4.4935649,1.7143475 4.9102531,2.1474806 5.326768,2.5807809 5.7435674,3.013807 6.2202981,2.788432 6.725906,2.6231996 7.2457036,2.5328131 7.3311878,1.9119013 7.4184498,1.2912331 7.5046259,0.67041614 7.7347415,0.64548831 7.9862651,0.63444005 8.2290264,0.63259601 Z" />
      <path
         id="path3"
         style="-inkscape-font-specification:'Ebrima, Normal';display:inline;fill:url(#linearGradient12);fill-opacity:1;stroke:url(#radialGradient18);stroke-width:0.248;stroke-dasharray:none;stroke-opacity:1"
         d="m 8.2293377,0.46480497 c -0.2942106,0 -0.5850994,0.0167281 -0.8726233,0.050161 L 7.0959018,2.3905556 C 6.647899,2.4774815 6.2099066,2.6179459 5.7819634,2.8118578 L 4.5181847,1.4979186 C 4.0100018,1.7988164 3.5420018,2.1632567 3.1140585,2.5912 L 3.9565343,4.1458098 C 3.6422631,4.4868272 3.3748712,4.8579073 3.1542129,5.2591044 L 1.4991528,4.9482593 C 1.2517481,5.5099354 1.074636,6.0983522 0.96765027,6.7135204 L 2.4520856,7.4055129 c -0.026747,0.234032 -0.040155,0.4647758 -0.040155,0.6921206 0,0.2273454 0.013407,0.4579609 0.040155,0.6919924 L 0.96765027,9.4917532 C 1.074636,10.100235 1.2517481,10.685331 1.4991528,11.247007 l 1.6550601,-0.310973 c 0.2206583,0.407884 0.4880502,0.779093 0.8023214,1.113423 l -0.8424758,1.55461 c 0.4279433,0.427942 0.8959433,0.795704 1.4041262,1.103288 l 1.2637787,-1.323946 c 0.4279432,0.193912 0.8659356,0.337695 1.3139384,0.431309 l 0.2608126,1.865454 c 0.2875239,0.04011 0.5784127,0.06029 0.8726233,0.06029 0.2942116,0 0.5849717,-0.02017 0.8724957,-0.06029 l 0.2608121,-1.865454 c 0.4480031,-0.09361 0.8859955,-0.237397 1.3139375,-0.431309 l 1.263779,1.323946 c 0.508182,-0.307584 0.976311,-0.675346 1.404256,-1.103288 l -0.842605,-1.55461 c 0.31427,-0.341017 0.581791,-0.712225 0.802449,-1.113423 l 1.654932,0.310973 C 15.2068,10.685331 15.38391,10.100235 15.490897,9.4917532 L 14.006589,8.7896259 c 0.02675,-0.2340315 0.04002,-0.464647 0.04002,-0.6919924 0,-0.2273448 -0.01327,-0.4580886 -0.04002,-0.6921206 L 15.490897,6.7135204 C 15.38391,6.0983522 15.2068,5.5099354 14.959394,4.9482593 L 13.304462,5.2591044 C 13.083804,4.8579073 12.816283,4.490147 12.502013,4.1558164 L 13.344618,2.5912 C 12.916673,2.1632567 12.448544,1.7988164 11.940362,1.4979186 L 10.676583,2.8218642 C 10.248641,2.6212656 9.8106486,2.4774815 9.3626455,2.3905556 L 9.1018334,0.51496607 C 8.8143094,0.48153302 8.5235493,0.46480499 8.2293377,0.46480497 Z m 0,5.27807823 A 2.2645226,2.3056498 0 0 1 10.493772,8.0484987 2.2645226,2.3056498 0 0 1 8.2293377,10.354242 2.2645226,2.3056498 0 0 1 5.9647751,8.0484987 2.2645226,2.3056498 0 0 1 8.2293377,5.7428832 Z" />
      <ellipse
         style="display:inline;fill:none;fill-opacity:1;stroke:url(#linearGradient93);stroke-width:0.203942;stroke-dasharray:none;stroke-dashoffset:0.2272;stroke-opacity:1"
         id="path10"
         cx="8.2292738"
         cy="8.1026363"
         rx="2.0897639"
         ry="2.1014581" />
      <ellipse
         style="display:inline;fill:none;fill-opacity:1;stroke:url(#linearGradient126);stroke-width:0.24099;stroke-dasharray:none;stroke-dashoffset:0.2272;stroke-opacity:1"
         id="ellipse125"
         cx="8.2292738"
         cy="8.1026363"
         rx="2.4684761"
         ry="2.4822893" />
    </g>
  </g>
</svg>
