<?xml version="1.0" encoding="UTF-8" standalone="no"?>
<!-- Created with Inkscape (http://www.inkscape.org/) -->

<svg
   width="40"
   height="40"
   viewBox="0 0 10.583333 10.583333"
   version="1.1"
   id="svg1"
   inkscape:version="1.4.3 (0d15f75, 2025-12-25)"
   sodipodi:docname="Silence.svg"
   xmlns:inkscape="http://www.inkscape.org/namespaces/inkscape"
   xmlns:sodipodi="http://sodipodi.sourceforge.net/DTD/sodipodi-0.dtd"
   xmlns="http://www.w3.org/2000/svg"
   xmlns:svg="http://www.w3.org/2000/svg">
  <sodipodi:namedview
     id="namedview1"
     pagecolor="#ffffff"
     bordercolor="#000000"
     borderopacity="0.25"
     inkscape:showpageshadow="2"
     inkscape:pageopacity="0.0"
     inkscape:pagecheckerboard="0"
     inkscape:deskcolor="#d1d1d1"
     inkscape:document-units="mm"
     showguides="false"
     inkscape:zoom="11.859035"
     inkscape:cx="21.418269"
     inkscape:cy="16.569645"
     inkscape:window-width="1920"
     inkscape:window-height="1022"
     inkscape:window-x="1470"
     inkscape:window-y="30"
     inkscape:window-maximized="1"
     inkscape:current-layer="layer1" />
  <defs
     id="defs1" />
  <g
     inkscape:label="Layer 1"
     inkscape:groupmode="layer"
     id="layer1">
    <path
       style="font-size:11.2889px;font-family:'Bangla MN';-inkscape-font-specification:'Bangla MN, Normal';letter-spacing:-0.264583px;word-spacing:-0.209021px;stroke-width:0.529167"
       d="m 2.8249616,4.6300182 q 0.1379754,0 0.2634077,0.056444 0.1254322,0.050173 0.2195064,0.1379755 0.094074,0.087802 0.144247,0.2132348 0.056445,0.1191606 0.056445,0.2508644 0,0.1442471 -0.056445,0.2634077 -0.050173,0.1191606 -0.144247,0.2069632 -0.094074,0.094074 -0.2195064,0.144247 -0.1254323,0.050173 -0.2634077,0.050173 -0.1442471,0 -0.2696793,-0.050173 Q 2.4298501,5.8529824 2.3357759,5.7589083 2.2417017,5.6711057 2.1852572,5.5519451 2.1350844,5.4327845 2.1350844,5.2885374 q 0,-0.1317038 0.050173,-0.2508644 0.056445,-0.1254323 0.1505187,-0.2132348 0.094074,-0.087803 0.2195064,-0.1379755 0.1254322,-0.056444 0.2696793,-0.056444 z m 2.4698353,0 q 0.1379754,0 0.2634077,0.056444 0.1254322,0.050173 0.2195064,0.1379755 0.094074,0.087802 0.144247,0.2132348 0.056444,0.1191606 0.056444,0.2508644 0,0.1442471 -0.056444,0.2634077 -0.050173,0.1191606 -0.144247,0.2069632 -0.094074,0.094074 -0.2195064,0.144247 -0.1254323,0.050173 -0.2634077,0.050173 -0.1442471,0 -0.2696793,-0.050173 Q 4.8996854,5.8529824 4.8056112,5.7589083 4.711537,5.6711057 4.6550925,5.5519451 4.6049196,5.4327845 4.6049196,5.2885374 q 0,-0.1317038 0.050173,-0.2508644 0.056444,-0.1254323 0.1505187,-0.2132348 0.094074,-0.087803 0.2195064,-0.1379755 0.1254322,-0.056444 0.2696793,-0.056444 z m 2.4698353,0 q 0.1379754,0 0.2634076,0.056444 0.1254323,0.050173 0.2195064,0.1379755 0.094074,0.087802 0.1442471,0.2132348 0.056444,0.1191606 0.056444,0.2508644 0,0.1442471 -0.056444,0.2634077 -0.050173,0.1191606 -0.1442471,0.2069632 -0.094074,0.094074 -0.2195064,0.144247 -0.1254322,0.050173 -0.2634076,0.050173 -0.1442471,0 -0.2696793,-0.050173 Q 7.3695206,5.8529824 7.2754465,5.7589083 7.1813723,5.6711057 7.1249278,5.5519451 7.0747549,5.4327845 7.0747549,5.2885374 q 0,-0.1317038 0.050173,-0.2508644 0.056444,-0.1254323 0.1505187,-0.2132348 0.094074,-0.087803 0.2195064,-0.1379755 0.1254322,-0.056444 0.2696793,-0.056444 z"
       id="text1"
       aria-label="..." />
  </g>
</svg>
