<?xml version="1.0" encoding="UTF-8" standalone="no"?>
<!-- Created with Inkscape (http://www.inkscape.org/) -->

<svg
   width="1000"
   height="300"
   viewBox="0 0 264.58333 79.375"
   version="1.1"
   id="svg1"
   inkscape:version="1.4 (86a8ad7, 2024-10-11)"
   sodipodi:docname="TikectCover.svg"
   xmlns:inkscape="http://www.inkscape.org/namespaces/inkscape"
   xmlns:sodipodi="http://sodipodi.sourceforge.net/DTD/sodipodi-0.dtd"
   xmlns:xlink="http://www.w3.org/1999/xlink"
   xmlns="http://www.w3.org/2000/svg"
   xmlns:svg="http://www.w3.org/2000/svg">
  <sodipodi:namedview
     id="namedview1"
     pagecolor="#ffffff"
     bordercolor="#000000"
     borderopacity="0.25"
     inkscape:showpageshadow="2"
     inkscape:pageopacity="0.0"
     inkscape:pagecheckerboard="0"
     inkscape:deskcolor="#d1d1d1"
     inkscape:document-units="mm"
     inkscape:zoom="0.6122902"
     inkscape:cx="445.0504"
     inkscape:cy="220.48369"
     inkscape:window-width="1920"
     inkscape:window-height="1010"
     inkscape:window-x="2553"
     inkscape:window-y="-6"
     inkscape:window-maximized="1"
     inkscape:current-layer="layer1" />
  <defs
     id="defs1">
    <linearGradient
       id="linearGradient1"
       inkscape:collect="always">
      <stop
         style="stop-color:#f5e3ea;stop-opacity:1;"
         offset="0"
         id="stop1" />
      <stop
         style="stop-color:#e6eff8;stop-opacity:1;"
         offset="1"
         id="stop2" />
    </linearGradient>
    <linearGradient
       inkscape:collect="always"
       xlink:href="#linearGradient1"
       id="linearGradient2"
       x1="52.286617"
       y1="106.73384"
       x2="104.14111"
       y2="-18.149075"
       gradientUnits="userSpaceOnUse" />
  </defs>
  <g
     inkscape:label="Layer 1"
     inkscape:groupmode="layer"
     id="layer1">
    <path
       id="rect1"
       style="fill:url(#linearGradient2);fill-opacity:1;stroke:#4b648b;stroke-width:0.413;stroke-dasharray:none;stroke-opacity:1"
       d="M 10.605037 4.1439331 C 8.5427983 4.1439331 6.882784 5.8039474 6.882784 7.8661865 L 6.882784 24.301359 A 15.98847 15.98847 0 0 1 18.916158 39.6875 A 15.98847 15.98847 0 0 1 6.882784 55.036951 L 6.882784 71.451453 C 6.882784 72.614451 7.4218497 73.636331 8.2522095 74.317944 L 256.63446 74.317944 C 256.80535 74.177669 256.96193 74.024728 257.10524 73.856474 L 257.10524 55.198698 A 15.98847 15.98847 0 0 1 244.83777 39.6875 A 15.98847 15.98847 0 0 1 257.10524 24.176302 L 257.10524 5.4611654 C 256.4235 4.660763 255.42022 4.1439331 254.28164 4.1439331 L 10.605037 4.1439331 z " />
    <path
       id="path6"
       style="fill:#757575;fill-opacity:1;stroke:#4f4a3b;stroke-width:0.0746702;stroke-opacity:0.637108"
       d="m 9.4578306,70.282505 c -0.2835723,0.738013 -0.3352005,1.56958 -0.073204,2.320331 0.077603,0.487628 0.3563345,-0.207889 0.4249663,-0.377129 0.3797551,-0.78841 0.3923691,-1.720071 0.1399275,-2.539647 -0.231221,-0.192323 -0.3280054,0.49724 -0.4916898,0.596445 z" />
    <path
       id="path6-0"
       style="fill:#757575;fill-opacity:1;stroke:#4f4a3b;stroke-width:0.067251;stroke-opacity:0.637108"
       d="m 12.505021,71.179644 c -0.529167,0.15075 -1.093943,0.379682 -1.430204,0.925807 -0.143475,0.107172 -0.524099,0.590424 -0.101754,0.438735 0.639064,-0.147286 1.328766,-0.288949 1.811777,-0.861167 0.114119,-0.158889 0.487095,-0.490119 0.421565,-0.565923 -0.233795,0.02085 -0.467589,0.0417 -0.701384,0.06255 z" />
    <path
       id="path6-0-7"
       style="fill:#757575;fill-opacity:1;stroke:#4f4a3b;stroke-width:0.0377998;stroke-opacity:0.637108"
       d="m 15.017579,71.16168 c -0.393739,0.09205 -0.695123,0.533191 -0.930319,0.982602 -0.222354,0.156492 -0.02364,0.350246 0.117011,0.188289 0.407511,-0.124594 0.848009,-0.280564 1.126884,-0.779274 0.143211,-0.140384 0.379343,-0.591042 0.03226,-0.474606 -0.114909,0.03829 -0.227666,0.07564 -0.345837,0.08299 z" />
    <path
       id="path6-0-7-2"
       style="fill:#757575;fill-opacity:1;stroke:#4f4a3b;stroke-width:0.0249883;stroke-opacity:0.637108"
       d="m 17.704885,72.218523 c -0.521283,0.124238 -1.202782,0.44603 -1.330939,0.548407 0.956054,-0.120822 2.025701,-0.282074 2.727123,-0.611735 0.548544,-0.168419 0.194557,-0.241951 -0.287162,-0.127789 -0.385125,0.03335 -0.74693,0.107733 -1.109023,0.191116 z" />
    <path
       id="path6-4"
       style="fill:#b2b2b2;fill-opacity:1;stroke:#4f4a3b;stroke-width:0.06412;stroke-opacity:0.637108"
       d="m 9.5541579,6.9806438 c -0.045908,0.328161 -0.029427,0.6568359 0.2211357,0.8543931 0.1734382,0.2571922 0.3608384,0.5055109 0.5389424,0.759742 0.0238,-0.5116382 0.166346,-1.0516287 0.09527,-1.5404924 C 10.178288,6.7239547 9.8593488,6.4558722 9.5813753,6.1589566 9.5723033,6.4328522 9.5632304,6.7067479 9.5541579,6.9806438 Z" />
    <path
       id="path6-0-6"
       style="fill:#b2b2b2;fill-opacity:1;stroke:#4f4a3b;stroke-width:0.0396631;stroke-opacity:0.637108"
       d="m 11.859883,6.4013972 c 0.391777,0.430226 1.092736,0.5093961 1.693008,0.6307481 C 13.466801,6.7900505 13.190408,6.5810582 12.987935,6.3762667 12.716716,6.1360756 12.347493,5.9851471 11.957053,5.9143138 c -0.160184,-0.073502 -0.831572,-0.3195534 -0.522727,-0.0032 0.137059,0.1659761 0.284214,0.3266038 0.425557,0.490273 z" />
    <path
       id="path6-0-7-0"
       style="fill:#b2b2b2;fill-opacity:1;stroke:#4f4a3b;stroke-width:0.0451265;stroke-opacity:0.637108"
       d="m 14.662204,6.0421614 c 0.54125,0.3773471 1.292551,0.4453151 1.982254,0.4506561 C 16.336466,6.1568697 15.923457,5.8648189 15.443502,5.6985514 15.045862,5.5839941 14.622867,5.5246977 14.204051,5.4900461 c -0.372623,-0.03085 0.192538,0.276294 0.458153,0.5521153 z" />
    <path
       id="path6-4-7"
       style="fill:#a1a1a1;fill-opacity:1;stroke:#4f4a3b;stroke-width:0.0676366;stroke-opacity:0.637108"
       d="m 249.52135,6.3033754 c -0.25487,0.1509755 -0.34402,0.6150314 -0.32212,0.9969289 0.009,0.2275871 0.0696,0.6543042 0.27052,0.5850338 0.17533,-0.1031081 0.18479,-0.4421882 0.32679,-0.5989727 0.12262,-0.2868116 0.13555,-0.658475 0.0925,-0.9868102 -0.008,-0.222656 -0.17975,-0.3539758 -0.27774,-0.1583538 -0.034,0.048477 -0.062,0.1056048 -0.0898,0.162174 z" />
    <path
       id="path6-0-6-7"
       style="fill:#a1a1a1;fill-opacity:1;stroke:#4f4a3b;stroke-width:0.0706371;stroke-opacity:0.637108"
       d="m 254.13033,6.0304455 c -0.6366,0.099806 -1.28567,2.7100289 -0.20034,1.4691363 0.32558,-0.2606032 1.32762,-2.6878208 0.20034,-1.4691363 z" />
    <path
       id="path6-0-7-0-7"
       style="fill:#a1a1a1;fill-opacity:1;stroke:#4f4a3b;stroke-width:0.0738927;stroke-opacity:0.637108"
       d="m 251.79576,6.1498774 c -0.3091,0.3278123 -0.6937,2.1567599 -0.1806,2.22424 0.3705,-0.7946034 0.83688,-1.6899737 0.58005,-2.9493502 -0.18755,0.1758664 -0.21702,0.5425947 -0.39945,0.7251102 z" />
    <path
       id="path6-4-9"
       style="fill:#757575;fill-opacity:1;stroke:#4f4a3b;stroke-width:0.080939;stroke-opacity:0.637108"
       d="m 254.4285,69.813858 c -0.49164,0.727178 -0.42517,2.150829 -0.1611,2.881768 0.31352,-0.802644 0.83562,-1.677841 0.62806,-2.660127 -0.0735,-0.261462 -0.29741,-0.296687 -0.46696,-0.221641 z" />
    <path
       id="path6-0-6-9"
       style="fill:#757575;fill-opacity:1;stroke:#4f4a3b;stroke-width:0.0395299;stroke-opacity:0.637108"
       d="m 252.48587,71.059852 c -0.45968,0.147461 -0.95973,1.228337 -0.61239,1.410957 0.47628,-0.230035 1.2699,-1.04577 0.93563,-1.518347 -0.11114,0.02238 -0.20665,0.115136 -0.32324,0.10739 z" />
    <path
       id="path6-0-7-0-8"
       style="fill:#757575;fill-opacity:1;stroke:#4f4a3b;stroke-width:0.051613;stroke-opacity:0.637108"
       d="m 249.96794,71.504008 c -0.60607,0.169682 -1.18085,0.463807 -1.50777,0.899399 0.48214,0.04172 0.91491,-0.19145 1.33119,-0.342672 0.30373,-0.136848 0.83275,-0.479581 0.6805,-0.711258 -0.18169,0.02281 -0.32224,0.131076 -0.50392,0.154531 z" />
    <path
       id="path6-0-6-7-8"
       style="fill:#a1a1a1;fill-opacity:1;stroke:#4f4a3b;stroke-width:0.0448993;stroke-opacity:0.637108"
       d="m 247.60745,6.2615558 c -0.27815,0.05703 -0.46555,0.3049717 -0.61389,0.5334011 -0.0615,0.1001511 -0.19863,0.3745883 0.008,0.3772049 0.15804,-0.028166 0.2782,-0.1520698 0.4273,-0.2065619 0.21578,-0.1484853 0.38231,-0.3635337 0.51294,-0.5910195 0.0784,-0.092157 0.0988,-0.3165697 -0.079,-0.2493496 -0.0912,0.031627 -0.17327,0.086684 -0.25578,0.136325 z" />
  </g>
</svg>
