<?xml version="1.0" encoding="UTF-8" standalone="no"?>
<!-- Created with Inkscape (http://www.inkscape.org/) -->

<svg
   width="512"
   height="512"
   viewBox="0 0 512 512"
   version="1.1"
   id="svg1"
   sodipodi:docname="Title.svg"
   inkscape:version="1.4.3 (0d15f75, 2025-12-25)"
   xmlns:inkscape="http://www.inkscape.org/namespaces/inkscape"
   xmlns:sodipodi="http://sodipodi.sourceforge.net/DTD/sodipodi-0.dtd"
   xmlns:xlink="http://www.w3.org/1999/xlink"
   xmlns="http://www.w3.org/2000/svg"
   xmlns:svg="http://www.w3.org/2000/svg">
  <sodipodi:namedview
     id="namedview1"
     pagecolor="#ffffff"
     bordercolor="#000000"
     borderopacity="0.25"
     inkscape:showpageshadow="2"
     inkscape:pageopacity="0.0"
     inkscape:pagecheckerboard="0"
     inkscape:deskcolor="#d1d1d1"
     inkscape:document-units="px"
     inkscape:zoom="0.94921875"
     inkscape:cx="217.54733"
     inkscape:cy="357.66255"
     inkscape:window-width="1920"
     inkscape:window-height="1022"
     inkscape:window-x="1470"
     inkscape:window-y="30"
     inkscape:window-maximized="1"
     inkscape:current-layer="svg1" />
  <defs
     id="defs1">
    <inkscape:path-effect
       effect="perspective-envelope"
       up_left_point="44.191868,459.27501"
       up_right_point="440.19495,459.27501"
       down_left_point="13.649511,533.64842"
       down_right_point="467.75756,534.39336"
       id="path-effect3"
       is_visible="true"
       lpeversion="1"
       deform_type="perspective"
       horizontal_mirror="false"
       vertical_mirror="false"
       overflow_perspective="false" />
    <inkscape:path-effect
       effect="envelope"
       id="path-effect2"
       is_visible="true"
       lpeversion="1"
       yy="true"
       xx="true"
       bendpath1="m 62.070321,457.78514 358.756309,0.74493"
       bendpath2="m 440.19495,459.27501 v 75.11835"
       bendpath3="M 44.191868,534.39336 H 440.19495"
       bendpath4="m 44.191868,459.27501 v 75.11835"
       bendpath1-nodetypes="cc" />
    <linearGradient
       id="linearGradient23"
       inkscape:collect="always">
      <stop
         style="stop-color:#ffffff;stop-opacity:1;"
         offset="0.89948398"
         id="stop22" />
      <stop
         style="stop-color:#ffffff;stop-opacity:0.92888892;"
         offset="1"
         id="stop23" />
    </linearGradient>
    <linearGradient
       id="linearGradient21"
       inkscape:collect="always">
      <stop
         style="stop-color:#ffffff;stop-opacity:1;"
         offset="0.47413275"
         id="stop20" />
      <stop
         style="stop-color:#ffffff;stop-opacity:0.92888892;"
         offset="1"
         id="stop21" />
    </linearGradient>
    <linearGradient
       id="linearGradient17"
       inkscape:collect="always">
      <stop
         style="stop-color:#ffffff;stop-opacity:1;"
         offset="0.65582657"
         id="stop18" />
      <stop
         style="stop-color:#ffffff;stop-opacity:0.92888892;"
         offset="1"
         id="stop19" />
    </linearGradient>
    <inkscape:path-effect
       effect="perspective-envelope"
       up_left_point="64,231"
       up_right_point="435,231"
       down_left_point="30,300"
       down_right_point="460,300"
       id="path-effect18"
       is_visible="true"
       lpeversion="1"
       deform_type="perspective"
       horizontal_mirror="false"
       vertical_mirror="false"
       overflow_perspective="false" />
    <rect
       x="65.554327"
       y="84.922651"
       width="402.26518"
       height="143.77256"
       id="rect1" />
    <radialGradient
       inkscape:collect="always"
       xlink:href="#linearGradient17"
       id="radialGradient19"
       cx="89.129387"
       cy="364.4874"
       fx="89.129387"
       fy="364.4874"
       r="23.917595"
       gradientTransform="matrix(1,0,0,0.33533099,-9.744856,243.84373)"
       gradientUnits="userSpaceOnUse" />
    <radialGradient
       inkscape:collect="always"
       xlink:href="#linearGradient17"
       id="radialGradient19-5"
       cx="89.129387"
       cy="364.4874"
       fx="89.129387"
       fy="364.4874"
       r="23.917595"
       gradientTransform="matrix(1.0506121,-0.04282564,0.01365761,0.33505275,37.966551,248.15732)"
       gradientUnits="userSpaceOnUse" />
    <radialGradient
       inkscape:collect="always"
       xlink:href="#linearGradient17"
       id="radialGradient19-5-7"
       cx="89.129387"
       cy="364.4874"
       fx="89.129387"
       fy="364.4874"
       r="23.917595"
       gradientTransform="matrix(0.27322475,-0.03303524,0.04025127,0.33290646,146.62932,250.41971)"
       gradientUnits="userSpaceOnUse" />
    <radialGradient
       inkscape:collect="always"
       xlink:href="#linearGradient21"
       id="radialGradient19-5-7-3"
       cx="89.129387"
       cy="364.4874"
       fx="89.129387"
       fy="364.4874"
       r="23.917595"
       gradientTransform="matrix(1,0,0,0.33533099,154.09483,247.88457)"
       gradientUnits="userSpaceOnUse" />
    <radialGradient
       inkscape:collect="always"
       xlink:href="#linearGradient17"
       id="radialGradient19-5-7-3-7"
       cx="89.129387"
       cy="364.4874"
       fx="89.129387"
       fy="364.4874"
       r="23.917595"
       gradientTransform="matrix(1,0,0,0.33533099,217.57267,242.44772)"
       gradientUnits="userSpaceOnUse" />
    <radialGradient
       inkscape:collect="always"
       xlink:href="#linearGradient23"
       id="radialGradient19-5-7-3-7-1"
       cx="74.976326"
       cy="367.60193"
       fx="74.976326"
       fy="367.60193"
       r="23.917595"
       gradientTransform="matrix(0.11666629,0.04815565,-0.07231683,0.17520138,377.401,298.14661)"
       gradientUnits="userSpaceOnUse" />
    <radialGradient
       inkscape:collect="always"
       xlink:href="#linearGradient17"
       id="radialGradient19-5-7-3-7-1-8"
       cx="89.129387"
       cy="364.4874"
       fx="89.129387"
       fy="364.4874"
       r="23.917595"
       gradientTransform="matrix(1,0,0,0.33533099,328.35812,242.1724)"
       gradientUnits="userSpaceOnUse" />
    <inkscape:path-effect
       effect="perspective-envelope"
       up_left_point="44.191868,459.27501"
       up_right_point="440.19495,459.27501"
       down_left_point="13.649511,533.64842"
       down_right_point="467.75756,534.39336"
       id="path-effect3-6"
       is_visible="true"
       lpeversion="1"
       deform_type="perspective"
       horizontal_mirror="false"
       vertical_mirror="false"
       overflow_perspective="false" />
    <radialGradient
       inkscape:collect="always"
       xlink:href="#linearGradient23"
       id="radialGradient19-5-7-3-7-1-2"
       cx="74.976326"
       cy="367.60193"
       fx="74.976326"
       fy="367.60193"
       r="23.917595"
       gradientTransform="matrix(0.11666629,0.04815565,-0.07231683,0.17520138,418.44514,298.77347)"
       gradientUnits="userSpaceOnUse" />
  </defs>
  <g
     inkscape:groupmode="layer"
     id="layer6"
     inkscape:label="Background"
     style="display:none">
    <rect
       style="fill:#0c2959;fill-opacity:1;stroke:#cff4f8;stroke-width:1.52751;stroke-opacity:0.269103"
       id="rect16"
       width="479.34082"
       height="409.80994"
       x="22.913961"
       y="54.518898"
       ry="0" />
  </g>
  <g
     inkscape:label="Text"
     inkscape:groupmode="layer"
     id="layer1"
     style="display:inline">
    <path
       id="text2-8"
       style="font-style:normal;font-variant:normal;font-weight:normal;font-stretch:normal;font-size:85.0246px;font-family:Geneva;-inkscape-font-specification:'Geneva, Normal';font-variant-ligatures:normal;font-variant-caps:normal;font-variant-numeric:normal;font-variant-east-asian:normal;writing-mode:lr-tb;direction:ltr;fill:#6b5add;fill-opacity:1;stroke:none;stroke-width:7.08538;stroke-opacity:0.634551"
       d="m 75.086109,459.28438 c -19.373249,-0.47135 -39.619087,17.54378 -45.082591,34.89115 -8.885709,18.10376 -3.497779,39.50938 18.367383,39.38014 22.292786,2.26838 45.324114,-19.93676 49.120984,-39.20244 6.365045,-16.8828 -0.422576,-34.62172 -19.260504,-35.00916 z m 54.813241,1.62256 c -9.64267,0.62722 -23.74083,-3.87732 -23.23401,8.70251 l -17.465046,61.87515 18.814696,0.0299 7.28629,-29.15762 c 14.97873,1.56592 4.818,31.24255 22.30205,29.20471 l 64.92412,0.10323 c -0.79258,-5.01788 3.78473,-14.73535 -0.55107,-16.37831 l -32.0548,-0.0394 c 1.86888,-4.86774 -0.28926,-14.03928 4.24513,-15.7307 l 24.81007,0.0219 c -0.96963,-4.34121 4.43134,-13.95786 -1.42882,-14.01565 l -23.23817,-0.0134 c 1.74533,-4.19455 -1.30317,-13.24637 6.25182,-11.27059 l 24.64246,0.008 c -0.7358,-4.07817 3.35835,-12.00164 -0.56624,-13.33889 l -43.27308,-0.002 -11.64263,64.67869 c -3.49391,-14.60318 -18.52143,-26.4033 -0.13279,-37.62326 9.35083,-12.54387 1.13724,-28.29861 -14.27744,-27.02035 l -2.70066,-0.0457 -2.71187,0.0111 z m 97.74364,0.007 c -9.18424,-0.369 -19.85206,-2.12846 -17.25425,8.71911 l -5.12685,62.0383 c 19.96514,-1.09515 45.91837,5.4007 59.07631,-13.51625 11.2151,-17.68472 8.66203,-44.7905 -10.84539,-54.25599 -8.05012,-3.27185 -17.19125,-2.98117 -25.84982,-2.98517 z m 67.11176,1.06359 c -8.6471,21.33478 -18.04072,44.51497 -28.28625,69.78909 l 19.0021,0.0302 c 3.86002,-9.58519 4.56852,-22.84588 18.05158,-19.06864 7.05655,0.91346 17.35241,-3.53827 18.73476,7.03775 2.28167,11.90852 10.63817,13.53195 20.68082,12.12227 l 22.38359,0.0356 -5.56126,-28.89732 c 12.11394,8.56014 23.27401,23.41283 37.03934,28.94737 l 69.79851,0.11098 c -3.0946,-5.05038 -2.90867,-14.82933 -8.04182,-16.48252 l -32.41703,-0.0399 c -0.3336,-4.89764 -6.70164,-14.12426 -2.89134,-15.82563 l 25.08042,0.0222 c -1.07464,-11.31016 -6.50273,-16.32348 -17.32532,-14.10159 -4.93493,-1.28164 -14.36338,3.15238 -15.04928,-3.42984 -3.52953,-6.545 -2.08121,-9.51961 5.92882,-7.90941 l 21.18865,0.007 c -2.60527,-4.09992 -2.08632,-12.06471 -6.66135,-13.4088 l -63.09097,-0.002 c -5.53319,4.77001 -13.83653,21.43182 -17.97902,19.14324 l -3.68424,-19.14401 -16.70224,-6e-4 10.24502,64.12844 c -12.92317,-23.10154 -24.84119,-44.41193 -35.87328,-64.12936 -4.44761,0.68643 -11.66389,-1.38517 -14.57021,1.06577 z m 98.42329,0.69318 17.05679,62.52902 c -12.21191,-12.17603 -34.35151,-23.80499 -38.84772,-35.01868 7.42705,-9.205 15.13167,-20.36175 21.79093,-27.51034 z m -321.660827,9.22672 c 15.848999,1.41094 10.187341,21.28246 2.902541,33.42309 -11.32896,21.65489 -37.999207,11.35167 -27.812947,-7.24724 2.936146,-10.22353 10.96208,-25.95769 24.910406,-26.17585 z m 55.907967,1.76268 c 20.65183,-1.62101 -3.86272,24.63969 -7.94578,11.97718 2.37709,-3.90458 -0.0521,-13.27372 6.65156,-11.97761 l 0.91462,2.9e-4 0.37961,1.2e-4 z m 105.54932,0.0334 c 19.96216,-2.80008 23.50037,20.63086 16.91524,34.05192 -4.38775,8.78006 -29.96939,13.73175 -24.4707,-0.90215 l 1.66175,-33.15163 z m 77.83998,24.32599 c -4.37394,-1.00217 -16.31575,2.95501 -11.33139,-4.12434 2.23095,-8.15423 4.60818,-13.48806 8.45423,-1.37497 0.95258,1.82074 1.91162,3.6538 2.87716,5.49931 z"
       inkscape:path-effect="#path-effect3-6"
       inkscape:original-d="m 75.235965,459.28271 c -19.728466,-0.54668 -32.658128,19.6576 -31.04181,37.84749 -1.331619,17.78845 11.201097,37.37574 30.407463,37.2302 20.23237,1.95935 34.891552,-18.25374 33.327932,-37.10279 1.48915,-17.65217 -10.399068,-37.45772 -29.501524,-37.90578 z m 55.599605,1.87109 c -9.50732,0.72065 -24.94766,-4.49255 -20.84375,9.84148 0,20.49163 0,40.98325 0,61.47488 5.5306,0 11.0612,0 16.5918,0 0,-9.08008 0,-18.16016 0,-27.24024 14.21331,1.52106 11.08221,29.0656 26.06481,27.24027 19.02462,0 38.04924,0 57.07386,0 -1.08976,-4.47947 2.24914,-13.38761 -1.78972,-14.91797 -9.65864,0 -19.31727,0 -28.9759,0 1.04963,-4.60749 -2.18978,-13.50403 1.78972,-15.18164 7.68989,0 15.37977,0 23.06965,0 -1.31044,-4.33964 2.90867,-14.20881 -2.68459,-14.26563 -7.39159,0 -14.78319,0 -22.17478,0 1.08374,-4.41942 -3.1892,-14.19551 4.47431,-12.03515 8.00466,0 16.00931,0 24.01397,0 -1.08976,-4.47947 2.24914,-13.38761 -1.78972,-14.91797 -14.43012,0 -28.86024,0 -43.29036,0 0,21.98307 0,43.96615 0,65.94922 -5.58424,-13.55426 -21.69151,-25.02531 -6.56772,-36.42846 6.75038,-13.31141 -4.33797,-30.95221 -19.52694,-29.47936 l -2.71818,-0.0524 -2.71646,0.0129 z m 97.80078,0.004 c -9.19682,-0.42326 -20.01983,-2.45186 -16.51367,9.83748 0,20.49228 0,40.98455 0,61.47683 17.46836,-0.99896 40.28012,4.66826 52.0163,-12.3195 10.69114,-16.92749 9.2721,-45.06885 -9.709,-55.59362 -8.03327,-3.73081 -17.15019,-3.39696 -25.79363,-3.40119 z m 66.82227,1.21289 c -9.8951,23.36657 -19.78908,46.73362 -29.68555,70.09961 5.54232,0 11.08464,0 16.62696,0 3.90358,-8.61605 5.30794,-21.01576 17.27121,-17.43946 6.29211,0.85313 16.06148,-3.37991 16.15503,6.53981 0.73476,10.73672 7.84037,12.15497 16.7737,10.89965 6.50627,0 13.01254,0 19.51881,0 0,-8.9375 0,-17.875 0,-26.8125 9.4538,8.21885 16.51286,21.90559 27.41701,26.8125 20.21972,0 40.43944,0 60.65916,0 -1.08976,-4.47947 2.24914,-13.38761 -1.78972,-14.91797 -9.65864,0 -19.31727,0 -28.97591,0 1.04963,-4.60749 -2.18978,-13.50403 1.78972,-15.18164 7.68924,0 15.37847,0 23.06771,0 2.75726,-11.39022 -0.67556,-16.59033 -11.63321,-14.26563 -4.2689,-1.33232 -14.46904,3.2666 -13.22422,-3.57945 -1.47269,-6.97584 0.80118,-10.20513 8.05376,-8.4557 6.81086,0 13.62171,0 20.43257,0 -1.08976,-4.47947 2.24914,-13.38761 -1.78972,-14.91797 -20.83507,0 -41.67013,0 -62.5052,0 -6.54069,5.40454 -17.97397,23.52823 -21.50195,21.10838 0,-7.03612 0,-14.07225 0,-21.10838 -5.5306,0 -11.0612,0 -16.5918,0 0,21.73372 0,43.46745 0,65.20117 -8.49447,-21.7336 -16.98631,-43.46822 -25.48242,-65.20117 -4.49405,0.78517 -11.48707,-1.59024 -14.58594,1.21875 z m 97.38086,0.78125 c 0,21.08659 0,42.17317 0,63.25976 -7.99851,-11.20681 -25.60138,-22.36663 -27.48229,-33.60338 9.01184,-9.58496 19.09298,-21.65155 27.48229,-29.65638 z M 76.067996,473.53857 c 16.029503,1.54643 16.634636,22.54001 13.447526,34.6303 -3.871685,20.30351 -31.124092,10.87428 -28.248415,-7.12547 -0.878997,-10.42162 1.152678,-27.25999 14.800889,-27.50483 z m 55.361324,1.91797 c 19.8749,-1.78546 1.92605,25.74727 -4.8457,12.81539 1.35036,-4.11459 -3.30504,-14.23494 3.57945,-12.81541 h 0.89486 0.37139 z m 103.02539,0 c 19.42909,-3.07855 22.7576,21.64797 16.67081,34.88265 -3.89852,8.32074 -26.66484,12.93015 -22.411,-0.84462 0,-11.34601 0,-22.69202 0,-34.03803 1.91336,0 3.82696,0 5.74019,0 z m 73.19922,25.30859 c -3.96737,-0.99569 -15.34452,2.94011 -10.18868,-4.12744 2.77448,-8.36792 5.51522,-13.98061 8.03317,-1.39942 0.7185,1.84229 1.43701,3.68457 2.15551,5.52686 z"
       inkscape:label="shadow"
       transform="translate(8.4607606,-88.780536)" />
    <path
       id="text2"
       style="font-style:normal;font-variant:normal;font-weight:normal;font-stretch:normal;font-size:85.0246px;font-family:Geneva;-inkscape-font-specification:'Geneva, Normal';font-variant-ligatures:normal;font-variant-caps:normal;font-variant-numeric:normal;font-variant-east-asian:normal;writing-mode:lr-tb;direction:ltr;fill:#17d4fc;fill-opacity:1;stroke:none;stroke-width:7.08538;stroke-opacity:0.634551"
       d="m 75.086109,459.28438 c -19.373249,-0.47135 -39.619087,17.54378 -45.082591,34.89115 -8.885709,18.10376 -3.497779,39.50938 18.367383,39.38014 22.292786,2.26838 45.324114,-19.93676 49.120984,-39.20244 6.365045,-16.8828 -0.422576,-34.62172 -19.260504,-35.00916 z m 54.813241,1.62256 c -9.64267,0.62722 -23.74083,-3.87732 -23.23401,8.70251 l -17.465046,61.87515 18.814696,0.0299 7.28629,-29.15762 c 14.97873,1.56592 4.818,31.24255 22.30205,29.20471 l 64.92412,0.10323 c -0.79258,-5.01788 3.78473,-14.73535 -0.55107,-16.37831 l -32.0548,-0.0394 c 1.86888,-4.86774 -0.28926,-14.03928 4.24513,-15.7307 l 24.81007,0.0219 c -0.96963,-4.34121 4.43134,-13.95786 -1.42882,-14.01565 l -23.23817,-0.0134 c 1.74533,-4.19455 -1.30317,-13.24637 6.25182,-11.27059 l 24.64246,0.008 c -0.7358,-4.07817 3.35835,-12.00164 -0.56624,-13.33889 l -43.27308,-0.002 -11.64263,64.67869 c -3.49391,-14.60318 -18.52143,-26.4033 -0.13279,-37.62326 9.35083,-12.54387 1.13724,-28.29861 -14.27744,-27.02035 l -2.70066,-0.0457 -2.71187,0.0111 z m 97.74364,0.007 c -9.18424,-0.369 -19.85206,-2.12846 -17.25425,8.71911 l -5.12685,62.0383 c 19.96514,-1.09515 45.91837,5.4007 59.07631,-13.51625 11.2151,-17.68472 8.66203,-44.7905 -10.84539,-54.25599 -8.05012,-3.27185 -17.19125,-2.98117 -25.84982,-2.98517 z m 67.11176,1.06359 c -8.6471,21.33478 -18.04072,44.51497 -28.28625,69.78909 l 19.0021,0.0302 c 3.86002,-9.58519 4.56852,-22.84588 18.05158,-19.06864 7.05655,0.91346 17.35241,-3.53827 18.73476,7.03775 2.28167,11.90852 10.63817,13.53195 20.68082,12.12227 l 22.38359,0.0356 -5.56126,-28.89732 c 12.11394,8.56014 23.27401,23.41283 37.03934,28.94737 l 69.79851,0.11098 c -3.0946,-5.05038 -2.90867,-14.82933 -8.04182,-16.48252 l -32.41703,-0.0399 c -0.3336,-4.89764 -6.70164,-14.12426 -2.89134,-15.82563 l 25.08042,0.0222 c -1.07464,-11.31016 -6.50273,-16.32348 -17.32532,-14.10159 -4.93493,-1.28164 -14.36338,3.15238 -15.04928,-3.42984 -3.52953,-6.545 -2.08121,-9.51961 5.92882,-7.90941 l 21.18865,0.007 c -2.60527,-4.09992 -2.08632,-12.06471 -6.66135,-13.4088 l -63.09097,-0.002 c -5.53319,4.77001 -13.83653,21.43182 -17.97902,19.14324 l -3.68424,-19.14401 -16.70224,-6e-4 10.24502,64.12844 c -12.92317,-23.10154 -24.84119,-44.41193 -35.87328,-64.12936 -4.44761,0.68643 -11.66389,-1.38517 -14.57021,1.06577 z m 98.42329,0.69318 17.05679,62.52902 c -12.21191,-12.17603 -34.35151,-23.80499 -38.84772,-35.01868 7.42705,-9.205 15.13167,-20.36175 21.79093,-27.51034 z m -321.660827,9.22672 c 15.848999,1.41094 10.187341,21.28246 2.902541,33.42309 -11.32896,21.65489 -37.999207,11.35167 -27.812947,-7.24724 2.936146,-10.22353 10.96208,-25.95769 24.910406,-26.17585 z m 55.907967,1.76268 c 20.65183,-1.62101 -3.86272,24.63969 -7.94578,11.97718 2.37709,-3.90458 -0.0521,-13.27372 6.65156,-11.97761 l 0.91462,2.9e-4 0.37961,1.2e-4 z m 105.54932,0.0334 c 19.96216,-2.80008 23.50037,20.63086 16.91524,34.05192 -4.38775,8.78006 -29.96939,13.73175 -24.4707,-0.90215 l 1.66175,-33.15163 z m 77.83998,24.32599 c -4.37394,-1.00217 -16.31575,2.95501 -11.33139,-4.12434 2.23095,-8.15423 4.60818,-13.48806 8.45423,-1.37497 0.95258,1.82074 1.91162,3.6538 2.87716,5.49931 z"
       inkscape:path-effect="#path-effect3"
       inkscape:original-d="m 75.235965,459.28271 c -19.728466,-0.54668 -32.658128,19.6576 -31.04181,37.84749 -1.331619,17.78845 11.201097,37.37574 30.407463,37.2302 20.23237,1.95935 34.891552,-18.25374 33.327932,-37.10279 1.48915,-17.65217 -10.399068,-37.45772 -29.501524,-37.90578 z m 55.599605,1.87109 c -9.50732,0.72065 -24.94766,-4.49255 -20.84375,9.84148 0,20.49163 0,40.98325 0,61.47488 5.5306,0 11.0612,0 16.5918,0 0,-9.08008 0,-18.16016 0,-27.24024 14.21331,1.52106 11.08221,29.0656 26.06481,27.24027 19.02462,0 38.04924,0 57.07386,0 -1.08976,-4.47947 2.24914,-13.38761 -1.78972,-14.91797 -9.65864,0 -19.31727,0 -28.9759,0 1.04963,-4.60749 -2.18978,-13.50403 1.78972,-15.18164 7.68989,0 15.37977,0 23.06965,0 -1.31044,-4.33964 2.90867,-14.20881 -2.68459,-14.26563 -7.39159,0 -14.78319,0 -22.17478,0 1.08374,-4.41942 -3.1892,-14.19551 4.47431,-12.03515 8.00466,0 16.00931,0 24.01397,0 -1.08976,-4.47947 2.24914,-13.38761 -1.78972,-14.91797 -14.43012,0 -28.86024,0 -43.29036,0 0,21.98307 0,43.96615 0,65.94922 -5.58424,-13.55426 -21.69151,-25.02531 -6.56772,-36.42846 6.75038,-13.31141 -4.33797,-30.95221 -19.52694,-29.47936 l -2.71818,-0.0524 -2.71646,0.0129 z m 97.80078,0.004 c -9.19682,-0.42326 -20.01983,-2.45186 -16.51367,9.83748 0,20.49228 0,40.98455 0,61.47683 17.46836,-0.99896 40.28012,4.66826 52.0163,-12.3195 10.69114,-16.92749 9.2721,-45.06885 -9.709,-55.59362 -8.03327,-3.73081 -17.15019,-3.39696 -25.79363,-3.40119 z m 66.82227,1.21289 c -9.8951,23.36657 -19.78908,46.73362 -29.68555,70.09961 5.54232,0 11.08464,0 16.62696,0 3.90358,-8.61605 5.30794,-21.01576 17.27121,-17.43946 6.29211,0.85313 16.06148,-3.37991 16.15503,6.53981 0.73476,10.73672 7.84037,12.15497 16.7737,10.89965 6.50627,0 13.01254,0 19.51881,0 0,-8.9375 0,-17.875 0,-26.8125 9.4538,8.21885 16.51286,21.90559 27.41701,26.8125 20.21972,0 40.43944,0 60.65916,0 -1.08976,-4.47947 2.24914,-13.38761 -1.78972,-14.91797 -9.65864,0 -19.31727,0 -28.97591,0 1.04963,-4.60749 -2.18978,-13.50403 1.78972,-15.18164 7.68924,0 15.37847,0 23.06771,0 2.75726,-11.39022 -0.67556,-16.59033 -11.63321,-14.26563 -4.2689,-1.33232 -14.46904,3.2666 -13.22422,-3.57945 -1.47269,-6.97584 0.80118,-10.20513 8.05376,-8.4557 6.81086,0 13.62171,0 20.43257,0 -1.08976,-4.47947 2.24914,-13.38761 -1.78972,-14.91797 -20.83507,0 -41.67013,0 -62.5052,0 -6.54069,5.40454 -17.97397,23.52823 -21.50195,21.10838 0,-7.03612 0,-14.07225 0,-21.10838 -5.5306,0 -11.0612,0 -16.5918,0 0,21.73372 0,43.46745 0,65.20117 -8.49447,-21.7336 -16.98631,-43.46822 -25.48242,-65.20117 -4.49405,0.78517 -11.48707,-1.59024 -14.58594,1.21875 z m 97.38086,0.78125 c 0,21.08659 0,42.17317 0,63.25976 -7.99851,-11.20681 -25.60138,-22.36663 -27.48229,-33.60338 9.01184,-9.58496 19.09298,-21.65155 27.48229,-29.65638 z M 76.067996,473.53857 c 16.029503,1.54643 16.634636,22.54001 13.447526,34.6303 -3.871685,20.30351 -31.124092,10.87428 -28.248415,-7.12547 -0.878997,-10.42162 1.152678,-27.25999 14.800889,-27.50483 z m 55.361324,1.91797 c 19.8749,-1.78546 1.92605,25.74727 -4.8457,12.81539 1.35036,-4.11459 -3.30504,-14.23494 3.57945,-12.81541 h 0.89486 0.37139 z m 103.02539,0 c 19.42909,-3.07855 22.7576,21.64797 16.67081,34.88265 -3.89852,8.32074 -26.66484,12.93015 -22.411,-0.84462 0,-11.34601 0,-22.69202 0,-34.03803 1.91336,0 3.82696,0 5.74019,0 z m 73.19922,25.30859 c -3.96737,-0.99569 -15.34452,2.94011 -10.18868,-4.12744 2.77448,-8.36792 5.51522,-13.98061 8.03317,-1.39942 0.7185,1.84229 1.43701,3.68457 2.15551,5.52686 z"
       inkscape:label="title"
       transform="translate(6.7044198,-98.331491)" />
    <g
       inkscape:groupmode="layer"
       id="layer5"
       inkscape:label="Snow">
      <path
         style="opacity:0.976048;fill:url(#radialGradient19);stroke:#ccecfb;stroke-opacity:0.269103"
         d="m 56.625514,366.61729 c 5.060931,-3.51884 10.842716,-5.89746 16.794278,-7.41038 2.670266,-1.08523 5.547625,0.002 8.312291,-0.18823 6.083085,0.0178 12.548071,-0.74166 18.199891,2.02611 2.040676,1.00342 3.003096,3.25062 2.798556,5.4338 0.10209,2.20862 0.34254,4.78195 -1.15532,6.5931 -1.700296,1.19875 -3.684366,-0.15354 -5.078776,-1.19702 -1.53953,-1.43648 -3.47839,-2.34259 -5.52933,-2.77711 -7.872188,-2.0386 -16.087171,-3.59067 -24.224806,-2.4528 -1.903325,0.78387 -3.613456,2.06747 -5.751886,2.1876 -1.688627,0.34257 -4.092875,0.41055 -4.935014,-1.3979 l -0.06865,-0.34104 -0.01967,-0.34444"
         id="path16" />
      <path
         style="opacity:0.976048;fill:url(#radialGradient19-5);stroke:#ccecfb;stroke-opacity:0.269103"
         d="m 120.53039,362.54283 c 2.33724,-2.1927 5.7004,-2.32587 8.70223,-2.67198 2.94017,-0.74334 5.95808,-1.49581 9.01375,-1.16176 6.92304,-0.0368 14.21456,-0.43686 20.63599,2.62209 1.88129,0.5679 3.16715,2.55416 2.81252,4.50808 -0.3316,2.57176 -1.18215,5.16756 -2.73519,7.26358 -1.22347,1.37213 -3.37346,0.68777 -4.61281,-0.316 -1.02859,-0.79286 -1.74825,-2.01525 -3.10261,-2.31904 -1.77291,-0.54944 -3.82152,-0.7783 -5.05373,-2.34312 -1.12743,-1.80755 -2.88603,-3.39347 -5.15664,-2.60032 -1.96419,0.32378 -4.21907,-1.28855 -5.9023,0.21848 -1.24464,1.38337 -2.50065,3.09218 -4.61207,2.91625 -2.71552,0.35027 -5.84007,0.65827 -8.13463,-1.16581 -1.42626,-0.31305 -0.92083,-2.85417 0.50851,-2.19052 1.15376,-0.45659 3.64686,-1.14894 3.9557,-1.4568 -1.12757,-0.038 -3.20016,0.15642 -3.75545,-0.0223 1.00571,-0.50723 2.01143,-1.01445 3.01715,-1.52168"
         id="path16-8" />
      <path
         style="opacity:0.976048;fill:url(#radialGradient19-5-7);stroke:#ccecfb;stroke-opacity:0.269103"
         d="m 169.08304,361.5956 c 2.12322,-1.83916 5.07361,-1.27262 7.60414,-0.94181 2.54378,0.31961 27.54712,-1.22011 30.0955,-1.00642 1.85839,0.0942 3.75675,0.14837 5.56629,0.58117 1.55639,0.93486 1.04445,3.05905 0.74837,4.51782 -0.65439,2.97184 -0.1555,-0.42545 -0.56352,2.6052 0.73267,2.08224 -1.71239,4.00151 -2.22756,2.15045 -0.85163,-2.09543 -11.41493,-2.59629 -13.14346,-2.86179 -3.69523,-1.92881 -8.51784,1.50599 -8.71197,0.76506 -0.95209,-0.46258 -14.19623,1.208 -15.10984,1.9962 -1.6592,1.06873 -2.35734,2.08803 -3.75172,3.454 -0.81641,1.04049 -4.91592,3.09539 -4.25533,0.56449 0.64263,-3.87169 0.92633,-4.14209 1.31581,-6.37665 l -0.99571,-0.50679 1.25619,-2.96573"
         id="path16-8-3"
         sodipodi:nodetypes="ccccccccccccccc" />
      <path
         style="opacity:0.976048;fill:url(#radialGradient19-5-7-3);stroke:#ccecfb;stroke-opacity:0.269103"
         d="m 218.48989,366.70751 c -0.58168,-3.02263 -0.1522,-6.50886 3.85835,-5.19696 9.49715,-0.34682 18.96818,1.10971 28.46606,0.57934 3.93572,0.0881 15.53488,4.69619 12.76125,4.39469 -2.50581,-0.89626 -10.47757,-3.82196 -9.02255,-0.22053 1.28183,1.1548 2.6512,3.93112 -1.31725,2.5043 -2.78556,-1.14041 -1.74186,1.91048 -4.26394,-0.0792 -2.56498,-1.12428 -6.72816,-1.87158 -8.25183,1.17497 -2.38842,2.48145 -6.83142,0.28427 -9.04835,3.61299 -2.70839,3.62481 -7.05691,1.42491 -10.41784,3.34177 -3.51141,1.81401 -4.16374,-3.05829 -3.93153,-5.46702 -1.19663,-3.51289 3.03124,-2.97874 1.03633,-6.35631"
         id="path16-8-3-1"
         sodipodi:nodetypes="cccccccccccc" />
      <path
         style="opacity:0.976048;fill:url(#radialGradient19-5-7-3-7);stroke:#ccecfb;stroke-opacity:0.269103"
         d="m 293.99967,376.02284 c 4.77826,-3.51119 3.77383,-14.12644 9.42748,-15.28019 4.64181,0.22095 4.80707,1.19689 9.45112,1.07635 4.29571,0.18603 8.94819,0.79187 12.49081,3.33464 1.15199,4.05134 0.419,8.62113 -0.88808,12.58399 -2.12885,4.68605 -3.13851,-1.49293 -4.93772,-2.78976 -2.11909,0.53017 -7.40557,1.02633 -5.25868,-2.79048 -4.61873,-1.54573 -4.47751,-2.67326 -9.31654,-3.19576 -3.36958,-0.14883 -0.55474,8.57363 -3.71833,9.59241 0.0346,1.91105 2.45997,5.12104 -1.46441,4.16692 -3.48347,-1.13393 -5.50248,-2.54218 -6.86531,2.28586 -1.62587,1.68948 -2.16204,-3.60655 -2.20177,-4.79081 0.12941,-0.60889 0.25881,-1.21778 0.38822,-1.82667"
         id="path16-8-3-1-7"
         sodipodi:nodetypes="ccccccccccccc" />
      <path
         style="opacity:0.976048;fill:url(#radialGradient19-5-7-3-7-1);stroke:#ccecfb;stroke-opacity:0.269103"
         d="m 343.50979,369.69089 c -3.9195,-1.80238 -8.26112,-7.87363 -1.91417,-9.25779 24.37949,-1.47779 20.8923,7.91889 8.67874,5.18812"
         id="path16-8-3-1-7-5"
         sodipodi:nodetypes="ccc" />
      <path
         style="opacity:0.976048;fill:url(#radialGradient19-5-7-3-7-1-2);stroke:#ccecfb;stroke-opacity:0.269103"
         d="m 384.55393,370.31775 c -3.9195,-1.80238 -8.26112,-7.87363 -1.91417,-9.25779 24.37949,-1.47779 20.8923,7.91889 8.67874,5.18812"
         id="path16-8-3-1-7-5-5"
         sodipodi:nodetypes="ccc" />
      <path
         style="opacity:0.976048;fill:url(#radialGradient19-5-7-3-7-1-8);stroke:#ccecfb;stroke-opacity:0.269103"
         d="m 400.19318,362.24992 c 5.73024,-3.57534 5.75303,-2.94008 11.82896,-4.84141 4.08391,-0.83408 8.23561,0.33908 12.37121,-0.1102 5.16809,-0.003 14.87173,1.65961 19.02294,5.19879 1.57,3.12 0.6418,4.68807 2.87087,7.59828 2.91915,3.96275 -5.04062,5.03604 -8.65524,3.66739 -3.76223,-0.18492 -9.78901,-3.01086 -13.53128,-3.09338 -3.53748,1.45215 -8.12626,-0.36056 -11.76214,-0.14551 -4.50965,0.92775 0.11841,3.28322 -3.83178,1.72041 -2.88274,-2.27858 -4.71356,-0.10088 -7.69321,-1.87168 -2.51974,-1.7668 -0.77805,-5.00827 -2.79314,-7.20088"
         id="path16-8-3-1-7-5-4"
         sodipodi:nodetypes="ccccccccccc" />
    </g>
  </g>
  <g
     inkscape:groupmode="layer"
     id="layer2"
     inkscape:label="Image"
     style="display:inline">
    <path
       style="fill:#8e89d7;fill-opacity:1"
       d="m 206.48559,146.43622 -21.5967,50.56789 -18.43622,40.55968 -17.90946,-17.38272 -28.97119,38.97942 -24.757205,-23.17694 -60.049383,104.82304 c 0,0 86.913578,4.74074 89.020578,5.79424 2.10699,1.05349 42.66666,-5.79424 53.72839,-0.52675 11.06173,5.26749 63.20988,-0.52675 63.20988,-0.52675 0,0 76.3786,0.52674 82.17284,-0.52676 5.79423,-1.05349 62.68313,-4.74073 67.42387,-3.68723 4.74074,1.05349 55.87283,5.62899 55.87283,5.62899 L 397.16872,225.97531 376.09877,245.46503 333.4321,158.02469 311.83539,177.5144 292.87243,153.28396 272.32922,88.493827 246.51852,65.316872 Z"
       id="path2"
       sodipodi:nodetypes="cccccccsscssccccccccc"
       inkscape:label="bottom" />
    <path
       style="fill:#b9b2ef;fill-opacity:1"
       d="m 206.48559,146.43622 -21.5967,50.56789 -7.63465,53.59605 -28.71103,-30.41909 -25.24651,44.19397 -28.481885,-28.39149 -5.296621,57.51963 c 0,0 31.043416,-14.25511 33.150416,-13.20161 2.10699,1.05349 96.26093,32.22193 97.67958,31.50548 l 39.49975,-9.95075 26.54734,39.4396 c 3.28852,4.88554 56.30941,-44.00509 60.34698,-41.30648 2.13347,1.42596 71.14401,31.70173 71.14401,31.70173 l -20.71755,-105.71584 -27.77437,24.3318 -35.96225,-92.28242 -26.06632,21.72452 -14.49335,-26.46525 -20.54321,-64.790133 -25.8107,-23.176955 z"
       id="path3"
       sodipodi:nodetypes="cccccccsscssccccccccc"
       inkscape:label="3rd" />
    <g
       inkscape:groupmode="layer"
       id="layer3"
       inkscape:label="2nd">
      <path
         style="fill:#b2d5ef;fill-opacity:1;stroke-width:1.42921"
         d="m 86.386831,253.89301 8.354484,17.90946 9.113985,-11.19341 15.18997,1.49246 -24.303955,-26.11798 z"
         id="path4" />
      <path
         d="m 332.99307,159.38955 -23.53372,16.73326 -2.51201,11.41977 -47.70289,18.28067 50.08669,-3.37154 21.70764,-1.48755 8.65847,-27.00929 z"
         style="baseline-shift:baseline;display:inline;overflow:visible;vector-effect:none;fill:#b2d5ef;enable-background:accumulate;stop-color:#000000;stop-opacity:1"
         id="path5"
         sodipodi:nodetypes="cccccccc" />
      <path
         d="m 224.19302,205.08642 14.42838,19.88547 -5.89384,11.59945 -33.68681,29.09064 44.21016,-14.89147 8.49356,-3.28131 32.30879,-2.98518 -30.49126,-9.36952 z"
         style="baseline-shift:baseline;display:inline;overflow:visible;vector-effect:none;fill:#b2d5ef;enable-background:accumulate;stop-color:#000000"
         id="path5-5"
         sodipodi:nodetypes="ccccccccc" />
      <path
         d="m 244.47285,67.028809 -46.80618,99.556251 8.35351,17.9082 20.17697,-25.94233 38.89315,-23.26501 7.36888,-47.094313 z"
         style="baseline-shift:baseline;display:inline;overflow:visible;vector-effect:none;fill:#b2d5ef;enable-background:accumulate;stop-color:#000000"
         id="path5-5-1"
         sodipodi:nodetypes="ccccccc" />
      <path
         d="m 363.84561,221.04801 -11.37179,14.42977 -21.5646,8.32247 -45.84055,9.15521 65.54411,-4.11647 17.61049,-4.65353 z"
         style="baseline-shift:baseline;display:inline;overflow:visible;vector-effect:none;fill:#b2d5ef;enable-background:accumulate;stop-color:#000000"
         id="path5-5-1-7"
         sodipodi:nodetypes="ccccccc" />
      <path
         d="m 396.84434,226.52983 -25.8595,20.70367 21.20365,38.02146 -1.31386,-40.99079 9.04373,-9.68184 z"
         style="baseline-shift:baseline;display:inline;overflow:visible;vector-effect:none;fill:#b2d5ef;enable-background:accumulate;stop-color:#000000"
         id="path5-5-1-7-2"
         sodipodi:nodetypes="cccccc" />
      <path
         d="m 148.18479,221.1358 -8.4852,14.09123 10.98726,-4.47863 -1.41974,16.0659 7.95136,-8.72118 10.92533,3.23394 z"
         style="baseline-shift:baseline;display:inline;overflow:visible;vector-effect:none;fill:#b2d5ef;enable-background:accumulate;stop-color:#000000"
         id="path5-5-1-7-2-1"
         sodipodi:nodetypes="ccccccc" />
    </g>
    <g
       inkscape:groupmode="layer"
       id="layer4"
       inkscape:label="top">
      <path
         d="m 248.19753,63.304131 -14.02902,28.042439 16.49123,16.61014 -21.54656,48.229 27.62633,-40.09611 12.44793,-5.01408 3.27174,-22.883913 z"
         style="baseline-shift:baseline;display:inline;overflow:visible;vector-effect:none;fill:#b1eef0;fill-opacity:1;enable-background:accumulate;stop-color:#000000"
         id="path6"
         sodipodi:nodetypes="cccccccc" />
    </g>
  </g>
  <path
     d="m 187.38105,280.97831 c -0.77945,0 -1.16012,-0.0181 -1.63142,-0.0906 v 1.19638 c -0.45317,0.0362 -0.85196,0.0544 -1.39577,0.0544 h -1.63142 c 0.36254,-0.48943 0.79758,-1.2145 1.28701,-2.08459 0.1994,-0.36254 0.34441,-0.58006 0.48943,-0.79759 l -0.56194,-0.63444 c -0.41692,0.0363 -0.7432,0.0544 -1.32326,0.0544 h -1.72206 c 0.38067,-0.79758 0.58006,-1.19637 0.59819,-1.2145 l -1.50453,-0.2719 c -0.18127,0.83383 -0.68882,1.88519 -1.35952,2.91843 -0.61631,0.92447 -1.10574,1.46828 -2.12085,2.33837 0.29003,0.32628 0.52568,0.7432 0.70695,1.19637 l 0.58006,-0.61631 v 2.75529 c 0,0.56193 -0.0181,0.9426 -0.0544,1.32326 0.43505,-0.0363 0.90635,-0.0544 1.43203,-0.0544 h 0.32628 c -0.0544,1.37764 -0.14501,1.90332 -0.41692,2.66465 -0.43504,1.26889 -1.03323,1.95771 -2.50151,2.95469 0.41692,0.34441 0.70695,0.67069 0.96073,1.10574 1.6858,-1.30514 2.32024,-2.1571 2.80967,-3.67976 0.2719,-0.83384 0.38066,-1.54079 0.48942,-3.04532 h 1.23263 v 4.71299 c 0,0.77946 0.16314,1.12387 0.6707,1.32327 0.58006,0.21752 1.4864,0.30815 3.44411,0.30815 4.73112,0 5.83686,-0.0906 6.48943,-0.56193 0.56193,-0.39879 0.77945,-1.12387 0.88822,-2.75529 -0.48943,-0.0725 -0.8701,-0.19939 -1.37765,-0.45317 -0.0181,1.35952 -0.12689,1.86707 -0.4713,2.12085 -0.39879,0.30815 -1.43202,0.38066 -4.7855,0.38066 -1.77644,0 -2.66465,-0.0362 -3.04532,-0.12689 -0.38066,-0.10876 -0.48942,-0.23565 -0.48942,-0.63444 v -4.3142 h 0.96072 c 0.56193,0 0.97885,0.0181 1.4139,0.0544 -0.0363,-0.36254 -0.0544,-0.76133 -0.0544,-1.30514 v -2.39275 c 0,-0.41692 0.0181,-0.85196 0.0362,-1.10574 0.41692,-0.0725 0.79759,-0.0906 1.57704,-0.0906 h 0.4713 c -0.21752,2.6284 -0.67069,4.35045 -1.54078,5.80061 -0.58007,0.97885 -1.05136,1.50453 -2.0846,2.33837 0.48943,0.36253 0.79759,0.67069 1.01511,1.05136 0.99698,-0.97886 1.43202,-1.46828 1.93958,-2.28399 0.52568,-0.81571 0.9426,-1.72206 1.25075,-2.71904 0.34441,-1.14199 0.61632,-2.77341 0.72508,-4.18731 h 2.30211 c -0.0181,2.53776 -0.16314,4.3142 -0.41691,5.85499 -0.23565,1.30513 -0.36254,1.52266 -0.9426,1.52266 -0.48943,0 -1.01511,-0.0725 -1.92145,-0.25378 0.16314,0.50755 0.19939,0.70695 0.25377,1.37764 0.56194,0.0725 1.19638,0.10877 1.57704,0.10877 1.25076,0 1.79457,-0.27191 2.04834,-1.06949 0.32629,-1.03324 0.59819,-3.62538 0.70695,-6.9426 0.0544,-1.25076 0.0544,-1.30514 0.10876,-1.90333 -0.48942,0.0544 -0.88821,0.0725 -1.63142,0.0725 h -2.03021 c 0.0362,-0.81571 0.0362,-1.23263 0.0544,-2.08459 0,-0.65257 0.0181,-0.99698 0.10876,-1.43203 h -1.54078 c 0.0906,0.52568 0.10876,0.85196 0.10876,1.81269 0,0.58006 0,1.06949 -0.0363,1.70393 z m -8.80967,1.16012 c 0.92447,-1.08761 1.2145,-1.48641 1.70393,-2.30212 h 2.41088 c -0.38067,0.79759 -0.87009,1.63142 -1.37765,2.30212 z m 0.41692,1.17825 h 2.1571 v 2.55589 h -2.1571 z m 3.29909,0 h 2.22961 v 2.55589 h -2.22961 z m 22.93053,0.68882 h -2.28399 c -0.72507,0 -1.12386,-0.0181 -1.57704,-0.0725 0.0544,0.38067 0.0725,0.83384 0.0725,1.34139 v 2.19336 c 0,0.59819 -0.0181,1.01511 -0.0725,1.45015 0.48943,-0.0544 0.88822,-0.0725 1.59517,-0.0725 h 2.26586 v 2.71904 c -1.63142,0.14501 -3.51662,0.2719 -4.25982,0.2719 -0.16314,0 -0.2719,0 -0.50755,-0.0181 l 0.2719,1.48641 c 0.23565,-0.0544 0.36254,-0.0725 0.61632,-0.0906 3.35347,-0.32629 5.5287,-0.61632 8.32024,-1.142 0.36254,0.65257 0.50756,0.9426 0.85197,1.72206 l 1.17825,-0.54381 c -0.74321,-1.50453 -1.28701,-2.37462 -2.51964,-4.0423 l -1.06949,0.50755 c 0.48943,0.65257 0.61631,0.83384 0.9426,1.34139 -0.88822,0.14502 -1.28701,0.1994 -2.55589,0.36254 v -2.57402 h 2.55589 c 0.61631,0 1.03323,0.0181 1.52266,0.0725 -0.0544,-0.41692 -0.0725,-0.81571 -0.0725,-1.4139 v -2.35649 c 0,-0.52568 0.0181,-0.85197 0.0725,-1.21451 -0.45317,0.0544 -0.79759,0.0725 -1.4139,0.0725 h -2.66465 v -1.86707 c 1.32326,-0.0906 1.52266,-0.12689 2.97281,-0.29003 0.25377,0.36254 0.41692,0.61631 0.85196,1.30514 l 1.10574,-0.81571 c -1.17825,-1.63142 -2.13897,-2.79155 -3.44411,-4.11481 l -1.03323,0.61631 c 0.81571,0.85197 1.12387,1.19638 1.72205,1.93958 -1.61329,0.16314 -3.44411,0.29003 -4.44109,0.32629 -0.21752,0 -0.21752,0 -0.36253,0 0.68882,-0.99698 0.94259,-1.45016 1.93957,-3.37161 l -1.4864,-0.34441 c -0.43505,1.28701 -0.9426,2.30212 -1.86707,3.7704 -0.27191,0.0181 -0.52568,0.0181 -0.70695,0.0181 -0.34441,0 -0.58006,-0.0181 -0.87009,-0.0544 l 0.18127,1.37765 c 0.36253,-0.0544 0.61631,-0.0725 1.9577,-0.14502 0.97885,-0.0362 1.4139,-0.0725 2.21148,-0.10876 z m 0,1.142 v 2.53776 h -2.55589 v -2.53776 z m 1.26889,0 h 2.75528 v 2.53776 h -2.75528 z m -9.58913,0.96072 c 0.12688,-0.70695 0.29003,-2.06647 0.34441,-2.75529 h 1.86707 c 0.5438,0 0.88822,0.0181 1.28701,0.0544 -0.0363,-0.45317 -0.0544,-0.96072 -0.0544,-1.50453 v -2.48338 c 0,-0.54381 0.0181,-0.85197 0.0544,-1.30514 -0.38067,0.0362 -0.76133,0.0544 -1.25076,0.0544 h -2.10272 c -0.81571,0 -1.30514,-0.0362 -1.6858,-0.10876 v 1.4139 c 0.39879,-0.0544 0.90634,-0.0725 1.63142,-0.0725 h 2.03021 v 2.73716 h -1.39577 c -0.9426,0 -1.2145,-0.0181 -1.66767,-0.0725 -0.0544,2.03022 -0.23565,3.7704 -0.58006,5.27493 0.36253,-0.0181 0.7432,-0.0362 1.23263,-0.0362 h 2.32024 c -0.0363,1.81269 -0.16314,3.00906 -0.45317,4.1148 -0.18127,0.65257 -0.36254,0.77946 -1.06949,0.77946 -0.48943,0 -1.23263,-0.0725 -1.93958,-0.18127 0.16314,0.52568 0.1994,0.81571 0.25378,1.4139 0.72507,0.0725 1.2145,0.0906 1.84894,0.0906 1.12387,0 1.55891,-0.19939 1.92145,-0.85196 0.45317,-0.85197 0.70695,-2.64653 0.79759,-5.76436 0.0181,-0.39879 0.0181,-0.52568 0.0544,-0.85196 -0.38067,0.0362 -0.72508,0.0544 -1.34139,0.0544 z m 25.21451,1.77644 h 5.05741 v 3.8429 c 0,0.43505 -0.14502,0.52568 -0.97885,0.52568 -0.61632,0 -1.46828,-0.0725 -2.46526,-0.1994 0.19939,0.56194 0.2719,0.88822 0.32628,1.37765 0.70695,0.0544 1.54079,0.0906 2.12085,0.0906 1.92145,0 2.3565,-0.29003 2.3565,-1.54078 v -12.09065 c 0,-0.87009 0.0181,-1.30513 0.0725,-1.84894 -0.5438,0.0544 -1.03323,0.0725 -1.97583,0.0725 h -9.86103 c -0.9426,0 -1.46828,-0.0181 -2.01209,-0.0725 0.0544,0.65257 0.0725,1.19638 0.0725,2.1571 0,8.42901 -0.30816,10.36859 -1.97583,12.61632 0.58006,0.36254 0.76133,0.48943 1.25075,0.96073 1.19638,-1.8852 1.64955,-3.2991 1.90333,-5.89124 h 4.76737 v 3.31722 c 0,0.97885 -0.0181,1.48641 -0.0906,2.01209 h 1.52266 c -0.0725,-0.4713 -0.0906,-1.05136 -0.0906,-2.03022 z m 0,-5.52871 v -2.93655 h 5.05741 v 2.93655 z m -1.34139,0 h -4.5861 l 0.0181,-0.85196 v -2.08459 h 4.56798 z m 1.34139,1.26889 h 5.05741 v 2.97281 h -5.05741 z m -1.34139,0 v 2.97281 h -4.67674 c 0.0363,-0.81571 0.0363,-0.81571 0.0544,-1.79457 0,-0.25377 0,-0.67069 0.0181,-1.17824 z m 18.25379,7.61329 c 0.41692,0.50756 0.54381,0.74321 0.77946,1.46828 1.39577,-0.29003 2.1571,-0.52568 3.02719,-0.9426 2.53777,-1.2145 3.96979,-3.46223 3.96979,-6.2719 0,-3.82478 -2.73716,-6.36255 -6.85197,-6.36255 -2.46526,0 -4.49547,0.83384 -5.96375,2.44714 -1.25075,1.37764 -1.93958,3.19033 -1.93958,5.07553 0,2.64653 1.34139,4.5861 3.17221,4.5861 1.35952,0 2.44713,-1.08761 3.48037,-3.46223 0.85196,-1.92146 1.50453,-4.58611 1.81269,-7.25076 0.88821,0.0544 1.39577,0.18127 2.03021,0.48942 1.72205,0.83384 2.68278,2.42901 2.68278,4.40484 0,2.10272 -1.05136,3.87916 -2.86405,4.83988 -0.88822,0.4713 -1.75831,0.72508 -3.33535,0.97885 z m -0.0725,-10.67674 c -0.23565,2.24774 -0.88822,4.83988 -1.61329,6.52568 -0.7432,1.70393 -1.43203,2.53777 -2.13898,2.53777 -0.94259,0 -1.66767,-1.30514 -1.66767,-2.95468 0,-2.15711 1.06949,-4.15106 2.8278,-5.25681 0.79758,-0.52568 1.54078,-0.76133 2.59214,-0.85196 z m 17.1118,-2.93656 c -0.0906,0.63444 -0.41692,1.4139 -1.08762,2.57402 -1.28701,2.26586 -2.6284,3.75227 -4.5861,5.05741 0.63444,0.38066 0.83383,0.56193 1.23263,1.10574 1.72205,-1.32327 3.13595,-2.86405 4.29607,-4.67674 l 5.9275,-0.0906 c -0.65257,2.26587 -1.74019,4.31421 -3.0997,5.90937 -1.72206,2.03022 -3.60726,3.35348 -6.34442,4.45922 0.56194,0.4713 0.74321,0.68882 1.08762,1.32326 2.68278,-1.2145 4.67674,-2.64652 6.34441,-4.54985 1.55891,-1.79456 2.84592,-4.20544 3.64351,-6.87009 0.21752,-0.6707 0.23565,-0.70695 0.39879,-0.9426 l -0.88822,-0.87009 c -0.29003,0.10876 -0.39879,0.12689 -1.05136,0.14501 -0.54381,0.0181 -2.08459,0.0363 -4.62236,0.0725 -0.10876,0 -0.10876,0 -0.21752,0 -0.30816,0.0181 -0.30816,0.0181 -0.45317,0.0544 0.21752,-0.36254 0.36254,-0.65257 0.79758,-1.57704 0.21752,-0.48943 0.23565,-0.48943 0.39879,-0.70695 z m 24.34442,13.45016 v 1.26888 h 1.66768 c -0.0544,-0.41691 -0.0725,-0.96072 -0.0725,-1.79456 v -9.42599 c 0,-0.81571 0.0181,-1.17824 0.0725,-1.64954 -0.54381,0.0544 -0.88822,0.0725 -1.79457,0.0725 h -9.15408 c -0.83384,0 -1.25076,-0.0181 -1.81269,-0.0544 0.0544,0.4713 0.0725,0.81571 0.0725,1.63142 v 9.44412 c 0,0.79758 -0.0181,1.35952 -0.0725,1.77643 h 1.66767 v -1.26888 z m 0,-1.43202 h -9.42599 v -8.66466 h 9.42599 z m 5.85499,-3.24472 c 0.63444,-0.0725 1.08762,-0.0906 2.51964,-0.0906 h 10.15106 c 1.25076,0 1.77644,0.0181 2.46526,0.0906 v -1.79456 c -0.63444,0.0906 -0.99698,0.10876 -2.44713,0.10876 H 288.7648 c -1.25075,0 -1.92145,-0.0362 -2.50151,-0.10876 z m 17.81875,-5.74623 c 1.61329,0.96073 3.06344,2.13898 4.42296,3.58913 l 1.10574,-1.35952 c -1.32326,-1.28701 -2.44713,-2.1571 -4.45922,-3.44411 z m 0.2719,11.83687 c 0.39879,-0.12689 0.54381,-0.16314 1.12387,-0.29003 2.91843,-0.65257 4.94864,-1.45015 6.79758,-2.71904 2.42901,-1.64954 4.11481,-3.75226 5.60122,-6.97885 -0.63444,-0.41692 -0.83384,-0.61632 -1.34139,-1.25076 -1.48641,3.89729 -3.87916,6.52569 -7.3414,8.06647 -1.6858,0.74321 -3.86103,1.30514 -5.31118,1.35952 z"
     id="text23"
     style="font-size:18.1269px;opacity:0.976048;stroke:#ccecfb;stroke-width:1.51057;stroke-opacity:0.269103"
     inkscape:label="Annotation"
     transform="scale(1.0120684,0.9880755)"
     aria-label="勉強用のクローン" />
</svg>
