<?xml version="1.0" encoding="UTF-8" standalone="no"?>
<!-- Created with Inkscape (http://www.inkscape.org/) -->

<svg
   width="512"
   height="512"
   viewBox="0 0 512 512"
   version="1.1"
   id="svg1"
   sodipodi:docname="Title.svg"
   inkscape:version="1.4.3 (0d15f75, 2025-12-25)"
   xmlns:inkscape="http://www.inkscape.org/namespaces/inkscape"
   xmlns:sodipodi="http://sodipodi.sourceforge.net/DTD/sodipodi-0.dtd"
   xmlns:xlink="http://www.w3.org/1999/xlink"
   xmlns="http://www.w3.org/2000/svg"
   xmlns:svg="http://www.w3.org/2000/svg">
  <sodipodi:namedview
     id="namedview1"
     pagecolor="#ffffff"
     bordercolor="#000000"
     borderopacity="0.25"
     inkscape:showpageshadow="2"
     inkscape:pageopacity="0.0"
     inkscape:pagecheckerboard="0"
     inkscape:deskcolor="#d1d1d1"
     inkscape:document-units="px"
     inkscape:zoom="0.94921873"
     inkscape:cx="183.30865"
     inkscape:cy="193.31688"
     inkscape:window-width="1920"
     inkscape:window-height="1022"
     inkscape:window-x="1470"
     inkscape:window-y="30"
     inkscape:window-maximized="0"
     inkscape:current-layer="layer1" />
  <defs
     id="defs1">
    <linearGradient
       id="linearGradient3"
       inkscape:collect="always">
      <stop
         style="stop-color:#ffffff;stop-opacity:1;"
         offset="0.53366917"
         id="stop2" />
      <stop
         style="stop-color:#ffffff;stop-opacity:0.92888892;"
         offset="1"
         id="stop3" />
    </linearGradient>
    <inkscape:path-effect
       effect="perspective-envelope"
       up_left_point="39.911336,445.66897"
       up_right_point="463.96836,445.66897"
       down_left_point="3.4094947,513.99417"
       down_right_point="496.74553,512.5043"
       id="path-effect9"
       is_visible="true"
       lpeversion="1"
       deform_type="perspective"
       horizontal_mirror="false"
       vertical_mirror="false"
       overflow_perspective="false" />
    <inkscape:path-effect
       effect="perspective-envelope"
       up_left_point="39.911336,445.66897"
       up_right_point="463.96836,445.66897"
       down_left_point="3.4094947,513.99417"
       down_right_point="496.74553,512.5043"
       id="path-effect1"
       is_visible="true"
       lpeversion="1"
       deform_type="perspective"
       horizontal_mirror="false"
       vertical_mirror="false"
       overflow_perspective="false" />
    <inkscape:path-effect
       effect="perspective-envelope"
       up_left_point="44.191868,459.27501"
       up_right_point="440.19495,459.27501"
       down_left_point="13.649511,533.64842"
       down_right_point="467.75756,534.39336"
       id="path-effect3"
       is_visible="true"
       lpeversion="1"
       deform_type="perspective"
       horizontal_mirror="false"
       vertical_mirror="false"
       overflow_perspective="false" />
    <inkscape:path-effect
       effect="envelope"
       id="path-effect2"
       is_visible="true"
       lpeversion="1"
       yy="true"
       xx="true"
       bendpath1="m 62.070321,457.78514 358.756309,0.74493"
       bendpath2="m 440.19495,459.27501 v 75.11835"
       bendpath3="M 44.191868,534.39336 H 440.19495"
       bendpath4="m 44.191868,459.27501 v 75.11835"
       bendpath1-nodetypes="cc" />
    <linearGradient
       id="linearGradient23"
       inkscape:collect="always">
      <stop
         style="stop-color:#ffffff;stop-opacity:1;"
         offset="0.89948398"
         id="stop22" />
      <stop
         style="stop-color:#ffffff;stop-opacity:0.92888892;"
         offset="1"
         id="stop23" />
    </linearGradient>
    <linearGradient
       id="linearGradient21"
       inkscape:collect="always">
      <stop
         style="stop-color:#ffffff;stop-opacity:1;"
         offset="0.47413275"
         id="stop20" />
      <stop
         style="stop-color:#ffffff;stop-opacity:0.92888892;"
         offset="1"
         id="stop21" />
    </linearGradient>
    <linearGradient
       id="linearGradient17"
       inkscape:collect="always">
      <stop
         style="stop-color:#ffffff;stop-opacity:1;"
         offset="0.65582657"
         id="stop18" />
      <stop
         style="stop-color:#ffffff;stop-opacity:0.92888892;"
         offset="1"
         id="stop19" />
    </linearGradient>
    <inkscape:path-effect
       effect="perspective-envelope"
       up_left_point="64,231"
       up_right_point="435,231"
       down_left_point="30,300"
       down_right_point="460,300"
       id="path-effect18"
       is_visible="true"
       lpeversion="1"
       deform_type="perspective"
       horizontal_mirror="false"
       vertical_mirror="false"
       overflow_perspective="false" />
    <rect
       x="65.554327"
       y="84.922651"
       width="402.26518"
       height="143.77256"
       id="rect1" />
    <radialGradient
       inkscape:collect="always"
       xlink:href="#linearGradient17"
       id="radialGradient19"
       cx="89.129387"
       cy="364.4874"
       fx="89.129387"
       fy="364.4874"
       r="23.917595"
       gradientTransform="matrix(1,0,0,0.33533099,-23.153696,246.82347)"
       gradientUnits="userSpaceOnUse" />
    <radialGradient
       inkscape:collect="always"
       xlink:href="#linearGradient3"
       id="radialGradient19-5"
       cx="78.479706"
       cy="357.69757"
       fx="78.479706"
       fy="357.69757"
       r="23.917595"
       gradientTransform="matrix(0.66128807,-0.0583986,0.02949841,0.33403102,49.014539,252.15255)"
       gradientUnits="userSpaceOnUse" />
    <radialGradient
       inkscape:collect="always"
       xlink:href="#linearGradient17"
       id="radialGradient19-5-7"
       cx="89.129387"
       cy="364.4874"
       fx="89.129387"
       fy="364.4874"
       r="23.917595"
       gradientTransform="matrix(0.27322475,-0.03303524,0.04025127,0.33290646,146.62932,250.41971)"
       gradientUnits="userSpaceOnUse" />
    <radialGradient
       inkscape:collect="always"
       xlink:href="#linearGradient21"
       id="radialGradient19-5-7-3"
       cx="89.129387"
       cy="364.4874"
       fx="89.129387"
       fy="364.4874"
       r="23.917595"
       gradientTransform="matrix(1,0,0,0.33533099,162.58866,249.1356)"
       gradientUnits="userSpaceOnUse" />
    <radialGradient
       inkscape:collect="always"
       xlink:href="#linearGradient17"
       id="radialGradient19-5-7-3-7"
       cx="89.129387"
       cy="364.4874"
       fx="89.129387"
       fy="364.4874"
       r="23.917595"
       gradientTransform="matrix(1,0,0,0.33533099,224.88131,242.25019)"
       gradientUnits="userSpaceOnUse" />
    <radialGradient
       inkscape:collect="always"
       xlink:href="#linearGradient23"
       id="radialGradient19-5-7-3-7-1"
       cx="74.976326"
       cy="367.60193"
       fx="74.976326"
       fy="367.60193"
       r="23.917595"
       gradientTransform="matrix(0.11666629,0.04815565,-0.07231683,0.17520138,390.99607,299.45025)"
       gradientUnits="userSpaceOnUse" />
    <radialGradient
       inkscape:collect="always"
       xlink:href="#linearGradient17"
       id="radialGradient19-5-7-3-7-1-8"
       cx="89.129387"
       cy="364.4874"
       fx="89.129387"
       fy="364.4874"
       r="23.917595"
       gradientTransform="matrix(1,0,0,0.33533099,344.7467,242.7311)"
       gradientUnits="userSpaceOnUse" />
    <inkscape:path-effect
       effect="perspective-envelope"
       up_left_point="44.191868,459.27501"
       up_right_point="440.19495,459.27501"
       down_left_point="13.649511,533.64842"
       down_right_point="467.75756,534.39336"
       id="path-effect3-6"
       is_visible="true"
       lpeversion="1"
       deform_type="perspective"
       horizontal_mirror="false"
       vertical_mirror="false"
       overflow_perspective="false" />
    <radialGradient
       inkscape:collect="always"
       xlink:href="#linearGradient23"
       id="radialGradient19-5-7-3-7-1-2"
       cx="74.976326"
       cy="367.60193"
       fx="74.976326"
       fy="367.60193"
       r="23.917595"
       gradientTransform="matrix(0.11666629,0.04815565,-0.07231683,0.17520138,423.65969,299.79775)"
       gradientUnits="userSpaceOnUse" />
  </defs>
  <g
     inkscape:groupmode="layer"
     id="layer6"
     inkscape:label="Background"
     style="display:none">
    <rect
       style="fill:#0c2959;fill-opacity:1;stroke:#cff4f8;stroke-width:1.52751;stroke-opacity:0.269103"
       id="rect16"
       width="479.34082"
       height="409.80994"
       x="22.913961"
       y="54.518898"
       ry="0" />
  </g>
  <g
     inkscape:label="Text"
     inkscape:groupmode="layer"
     id="layer1"
     style="display:inline">
    <path
       id="path8"
       style="font-size:96px;font-family:Copperplate;-inkscape-font-specification:'Copperplate, Normal';fill:#6b5add;fill-opacity:1;stroke:none"
       d="m 460.53706,445.701 c -1.952,0.12893 -3.54263,0.82191 -5.17678,1.43239 -6.08666,1.84195 -13.57718,1.2299 -20.7639,0.9657 -6.69742,-0.31402 -13.53927,-0.71929 -19.41003,0.87831 1.79566,4.1745 4.6993,8.24523 6.57327,12.58314 1.11186,2.52915 1.56376,5.0628 2.63797,7.64987 3.95329,10.58834 8.112,21.70206 12.43083,33.38122 -0.27086,1.67585 -0.60208,3.81249 0.89332,5.88415 2.05086,2.19538 4.50001,2.32706 6.53425,2.47566 7.31676,0.48446 13.56581,-1.55394 20.92099,-0.927 1.00819,0.35278 1.846,0.20012 2.46036,-0.24654 3.93598,-1.54386 9.35789,-0.0595 14.4374,1.0994 3.96165,0.90554 8.28263,2.28434 11.45729,1.31192 0.97598,-0.49385 1.68664,-1.67732 1.05102,-3.31092 -3.02777,-4.79233 -3.97603,-9.48027 -6.5837,-14.08975 -0.8759,-1.75439 -2.81366,-3.74075 -4.44998,-3.79699 -1.30206,0.21185 -1.8728,1.41688 -3.14964,1.69222 -4.69711,1.9383 -10.84604,1.42756 -16.62793,1.40964 -4.03324,-0.0821 -8.06831,-0.16539 -12.01977,-0.0488 -2.06242,-0.58077 -4.16549,-2.66167 -5.08896,-4.8365 -1.61904,-3.59726 -1.07837,-7.45149 1.88288,-7.92719 1.61488,-0.243 3.63848,0.63287 5.50281,1.6594 2.00684,-0.80867 4.91709,-1.0295 7.63712,0.23068 2.63472,1.0795 4.01446,-1.49465 6.49055,-1.31502 1.20289,-0.45277 0.36774,-0.20515 -0.28968,-1.66274 -1.48207,-3.37987 -2.11981,-4.05694 -3.09783,-7.35918 -0.86645,-2.23943 -1.71234,-4.72422 -3.72528,-6.67804 -1.49834,-1.09519 -3.20677,-1.14085 -4.10366,-0.48491 -0.19469,1.0758 -0.90573,1.75373 -1.75451,2.25468 -2.58161,1.63031 -5.99588,2.24956 -9.68102,2.05454 -2.29068,-0.2031 -5.09372,-0.817 -7.2723,-3.04889 -1.37757,-1.39155 -2.33644,-3.34038 -2.11061,-4.73831 0.30885,-0.9893 1.40883,-1.21378 2.5311,-1.09784 7.45625,-0.46114 14.72235,-1.47862 22.94534,-0.12529 2.10957,0.3803 4.32472,1.17419 6.51925,1.95704 1.67535,0.26288 2.92131,-0.84985 2.20722,-2.66297 -1.15961,-3.8966 -4.29022,-7.70825 -5.86315,-11.48783 -0.40182,-0.81961 -0.5807,-1.62704 -0.89818,-2.42049 -0.83364,-0.91453 -1.81403,-0.63295 -2.59269,-0.68217 -0.15124,0.009 -0.30217,0.0183 -0.4533,0.0275 z m -245.34148,0.0837 c -1.58191,0.10384 -3.07341,1.00465 -4.64681,1.32454 -6.62165,1.72129 -13.25954,1.37511 -19.76768,1.11197 -4.79406,-0.21035 -9.4584,-0.50698 -14.32756,-0.32189 -2.70341,0.13701 -5.44642,0.49593 -8.20114,1.07932 -0.81059,4.40907 -0.12251,8.60525 -0.98306,13.21867 -0.48794,2.57839 -1.47829,5.171 -1.9663,7.81562 -2.27765,10.56785 -4.72302,21.65888 -7.29783,33.31154 -1.30978,1.66466 -2.81949,3.76717 -2.67591,5.86847 0.7309,2.2313 3.11829,2.45449 5.10448,2.58631 7.23731,0.49959 14.89793,-1.54488 22.10015,-0.9501 0.86504,0.42784 1.88109,0.14087 2.83895,-0.2662 4.96679,-1.41735 9.63113,0.0541 14.16616,1.18026 3.349,0.8479 6.80031,1.96996 10.42844,1.14632 1.93542,-0.6457 3.81637,-3.01553 3.50701,-5.42951 -0.0244,-4.77519 2.063,-9.48282 1.54566,-14.02739 -0.42995,-2.14238 -3.11347,-2.88717 -4.53434,-0.99244 -2.84465,2.2795 -6.24392,2.23906 -9.34303,2.2644 -8.49757,-0.11956 -17.02986,-0.0472 -25.55909,-0.0333 0.17154,-2.81653 -0.0852,-5.9322 1.75141,-8.49876 1.57981,-2.20225 4.11238,-2.90886 6.23887,-3.06646 3.65336,-0.19451 7.40811,0.19602 10.84974,0.38607 0.90494,0.0377 1.64068,-0.74947 2.54442,-0.71349 0.38902,1.59309 -0.0495,0.91137 1.53124,1.46486 1.55336,-0.52959 3.55581,2.04218 4.27315,0.55833 1.48796,-2.9015 1.89197,-6.19602 1.47297,-9.11493 1.10551,-2.84939 1.69443,-6.2667 0.18966,-8.58952 -1.27718,-2.06723 -4.57079,-1.67343 -6.22326,0.47847 -0.5705,0.74307 -1.21844,1.52724 -1.99592,1.95733 -4.93962,0.54315 -10.14102,0.83094 -14.29841,-1.43598 -1.22422,-0.76849 -1.76072,-2.69617 -0.68514,-4.26279 0.79131,-1.29629 1.8738,-2.57705 3.22947,-3.03662 9.30491,0.0407 18.7707,-0.62029 27.80585,0.94637 1.76789,0.32568 3.51375,0.74525 5.23366,1.25177 0.59441,-5.88985 1.1825,-11.621 1.71335,-17.19963 -1.34668,0.0632 -2.6714,-0.0834 -4.01916,-0.0116 z m -144.751678,1.72333 c -10.556017,-0.25908 -24.199153,5.23703 -35.466016,15.0612 -6.784027,5.89868 -12.363449,13.71249 -14.735722,21.13242 -3.044178,9.07047 -1.85836,17.31082 3.066726,22.00549 1.796144,1.85018 4.018383,3.27954 6.536134,4.31879 0.384834,0.1492 1.106738,0.4288 1.638396,0.59968 7.589662,2.39878 17.217919,1.78668 27.23195,-2.06487 5.346965,-2.0739 10.75747,-5.10668 15.731435,-9.05588 0.353171,-0.29271 1.210615,-0.97581 1.748274,-1.44702 9.191154,-7.86685 16.093422,-19.05938 17.006754,-28.44151 0.824136,-7.89851 -2.234112,-14.06259 -7.129775,-17.70554 -4.055239,-3.07402 -9.500875,-4.57178 -15.628156,-4.40276 z m 53.050358,0.0231 c -2.04819,0.17989 -4.27187,0.91989 -6.15451,0.53124 -2.13526,-0.0938 -4.40495,-0.45377 -6.79972,0.79617 -1.85942,1.4142 -2.38691,3.76874 -2.11581,5.40135 0.26434,1.72885 0.52455,3.50406 0.12881,5.5059 -0.80951,5.76406 -3.34164,11.90172 -5.72783,18.0997 -2.796,7.01111 -5.910561,14.17237 -8.275246,21.6741 -0.447921,1.42361 -0.844813,2.85164 -1.261319,4.28966 -1.689724,1.25465 -3.862165,2.54123 -4.712954,4.72494 -0.166443,1.93684 1.653485,2.20633 2.972806,2.52064 5.53025,1.25739 11.839303,0.51083 17.866543,0.40779 2.15401,-0.14717 4.45914,0.0974 6.81833,-0.60129 6.77516,-1.34229 12.64279,0.51579 18.68712,1.5442 3.54966,0.64751 7.31862,1.43234 11.34263,-0.24973 0.45598,-0.34194 1.29411,-0.49225 1.44363,-1.10144 0.42648,-3.05735 1.37775,-6.18952 2.28257,-9.05211 0.87497,-3.01413 2.08099,-6.24199 1.52637,-8.96621 -0.18529,-0.58187 -0.54096,-1.06376 -0.97238,-1.39258 -7.69516,3.19099 -15.29422,3.28492 -22.62928,3.24098 -3.26616,0.0121 -6.49086,-0.16396 -9.81466,0.0612 -1.69116,0.51862 -3.2785,0.40551 -4.56876,-0.22516 -0.41965,-2.1171 0.0127,-4.65688 1.00454,-7.07242 1.50233,-3.7857 2.97194,-7.52767 3.85573,-11.20122 1.51282,-5.02 3.16604,-9.93405 4.68701,-14.73581 0.83463,-2.5923 1.65925,-5.15352 2.47502,-7.68423 1.45041,-0.68914 3.29624,-1.47145 3.98095,-3.12847 0.2161,-1.79833 -1.36689,-2.54854 -2.71715,-2.97678 -1.02609,-0.31073 -2.14749,-0.44436 -3.32207,-0.41042 z m 197.73386,0.15692 c -2.71192,0.2686 -5.41334,0.8736 -8.24573,0.30741 -1.43803,-0.12783 -3.12837,-0.34396 -4.19734,0.6822 -0.81246,1.18403 -0.29577,2.87382 0.1347,4.27507 0.40532,2.46582 -0.14059,4.86098 -0.4177,7.27617 -1.59159,10.54977 -5.7789,20.54294 -9.67263,31.12934 -1.49037,3.9047 -2.87754,7.96508 -4.46322,11.97404 -0.8692,1.34655 -2.2473,2.86907 -1.68165,4.8725 0.8931,2.1649 3.06572,2.58178 4.78876,2.90263 2.31657,0.39647 4.60437,0.0279 6.85552,-0.1953 2.08416,0.66579 4.59496,1.31971 6.261,-0.32476 1.60666,-2.12053 1.15573,-5.39568 1.12572,-8.15473 -0.0648,-1.97882 -0.0209,-3.92541 0.0451,-5.85103 1.73351,-1.3007 3.77553,-2.056 5.9505,-2.05018 4.5867,-0.025 9.39349,1.10547 13.76181,-0.121 2.096,-0.2861 4.50242,1.72737 5.11983,4.28786 1.38427,3.55988 1.50216,7.54701 3.51599,11.0143 1.34106,1.92939 3.5709,2.10703 5.05215,1.31763 1.95809,-0.74847 4.12675,-0.93027 6.35278,-0.50432 2.92675,0.25953 6.14225,1.15282 8.66233,-0.16667 1.04779,-0.73666 1.4506,-2.81729 0.19065,-4.20748 -3.06246,-4.05929 -6.03361,-8.363 -8.84212,-12.51781 -8.44792,-12.58339 -15.7125,-24.9849 -23.07828,-36.4213 0.33557,-2.32558 0.62014,-5.01981 -0.90655,-7.25671 -1.53641,-2.11417 -4.24214,-2.33464 -6.31158,-2.2679 z m 35.66977,0.10765 c -1.41057,-0.0745 -3.02243,0.84503 -2.5851,2.56129 0.21684,1.13337 0.56783,2.27039 0.86687,3.414 1.44272,0.76389 2.63156,2.2471 2.98739,3.84916 0.85469,2.684 1.17055,5.58761 1.59285,8.21369 0.34487,2.70269 1.36826,5.4311 1.98468,8.2039 1.69439,7.32746 3.38549,14.9025 5.18568,22.73687 l 1.44026,6.32217 c -0.99902,1.00624 -2.23321,2.3073 -1.70793,4.34018 1.32002,2.43433 3.80863,3.16826 5.81899,3.5944 2.2554,0.4526 4.34981,0.049 6.39887,-0.26986 3.31662,1.07135 7.0082,0.76958 8.46327,-2.25615 0.73986,-1.7917 -0.65951,-4.61685 -2.47364,-5.82291 -1.72154,-1.47344 -2.1537,-3.77836 -2.72393,-5.72585 -1.13708,-4.36862 -1.48167,-8.87805 -0.0369,-12.20528 0.80451,-1.4688 2.91834,-1.54015 4.5796,-0.20082 1.22598,0.77351 2.20896,2.05376 3.37368,2.93563 4.00748,1.72096 7.38229,5.71739 10.08881,9.75883 2.7163,3.90828 4.94328,8.51683 8.66471,11.70252 2.0178,1.65486 4.22314,1.83905 6.02086,1.47227 5.0865,-0.57258 11.09793,1.22824 15.62239,-0.64885 0.3882,-0.17694 0.96513,-0.52263 0.32981,-1.224 -1.64748,-2.11225 -3.24353,-4.27518 -5.05308,-6.18639 -0.6538,-0.72025 -1.4322,-1.52205 -1.94697,-2.04715 -6.26862,-6.26715 -12.97613,-11.39198 -19.28018,-16.79434 -3.94927,-3.33195 -7.73229,-6.82682 -11.17846,-10.58484 -0.19407,-1.28294 -0.10099,-2.54826 0.65248,-3.29669 3.55041,-5.5762 9.59135,-8.35748 13.48803,-13.19744 1.23304,-1.64029 2.36436,-3.7898 1.32602,-6.47268 -0.23836,-0.65058 -0.62837,-1.28255 -1.03117,-1.8929 l -21.71657,0.002 c 0.91993,1.75508 1.15273,3.62519 0.76841,5.19869 -0.6698,3.57405 -2.73779,6.35216 -4.95488,8.87441 -1.53709,1.66247 -3.43657,2.93998 -5.49599,3.97185 -1.16222,-0.5373 -2.41585,-1.32563 -2.97782,-2.63779 -1.34202,-3.5255 -0.80903,-6.81888 -0.79556,-10.02775 -0.0723,-1.34577 -5.1e-4,-2.86726 -0.94651,-4.16516 -1.18667,-1.48832 -2.99957,-1.42867 -4.3491,-1.27631 -1.77962,0.24094 -3.58669,0.49245 -5.52052,0.12601 -1.63684,-0.17433 -3.28154,-0.37783 -4.87976,-0.34506 z m -103.1363,0.3013 c -8.50525,0.001 -17.05019,-0.0235 -25.54889,0.0128 -0.38117,2.58507 0.10555,5.15496 0.8924,7.5606 0.71508,2.57177 0.96928,5.44778 0.17681,8.23715 -0.57497,3.70085 -0.56801,7.4839 -0.95727,11.32275 l -2.08193,28.24603 c -1.15683,1.3793 -2.64589,3.03539 -2.50532,5.10418 0.81623,2.0999 3.0108,2.29104 4.76568,2.52908 7.76286,1.03516 15.70582,-1.07375 23.46896,0.0734 7.34448,0.82238 14.93012,-0.24728 21.61807,-3.86154 5.00738,-2.69407 9.40071,-7.03309 11.73624,-12.79329 1.28488,-2.98781 1.89569,-6.28621 2.11869,-9.57536 0.69833,-5.9855 0.27517,-12.11853 -1.64212,-17.65542 -2.46312,-7.43721 -7.38469,-14.0349 -13.87673,-17.04445 -3.53071,-1.65952 -7.39143,-2.04308 -11.1661,-2.12542 -2.33136,-0.0743 -4.66513,-0.0409 -6.99849,-0.0303 z m 0.28209,11.03312 c 7.00535,0.0236 14.12945,4.43618 17.31548,11.70443 2.69099,6.01786 1.78731,13.68541 -1.72211,19.2355 -0.65009,1.35198 -1.79509,2.35202 -3.1341,2.55737 -6.14545,2.12037 -12.63474,4.15815 -19.11139,3.08621 -2.57003,-0.50726 -5.02838,-2.81579 -5.1106,-6.01186 -0.20855,-2.65869 0.95393,-5.18949 0.83426,-7.78708 0.32439,-7.09853 0.57642,-13.97675 0.84468,-20.64458 3.22979,-0.95409 6.44391,-2.21316 9.79153,-2.13556 0.0974,-0.001 0.19482,-0.004 0.2922,-0.004 z m -186.908804,1.55439 c 7.503702,0.063 11.325184,6.91206 9.085229,15.2566 -0.996891,3.9353 -3.510762,8.29638 -7.17807,11.57457 -3.320648,3.07833 -7.185077,4.7512 -10.867056,6.38225 -6.872972,2.94049 -13.20088,2.34975 -17.367077,-0.47481 -3.529071,-2.28575 -5.581746,-6.56214 -4.151089,-12.1383 1.602406,-6.21155 7.620512,-12.94733 13.842409,-16.24075 5.472785,-3.14686 10.915692,-4.16428 15.758923,-4.32269 0.298935,-0.0282 0.588299,-0.0339 0.876711,-0.0368 z M 321.8344,472.57061 c 1.78572,1.39685 3.62072,2.98292 4.63288,5.23159 0.60547,0.65393 -0.0736,1.16858 -0.25065,1.73974 -0.90709,2.05366 -3.20563,2.34954 -5.17398,2.45626 -1.83733,0.0412 -3.61983,-1.0469 -5.39269,-1.71094 0.53285,-1.76626 0.97104,-3.62532 2.10812,-4.9408 0.65363,-0.69919 0.91847,-1.68842 1.3436,-2.55092 0.4286,-0.47744 0.9353,-0.87425 1.39233,-1.31926 0.44606,0.36419 0.89286,0.72896 1.34039,1.09433 z"
       inkscape:original-d="m 475.87775,450.17122 c -2.18077,0.13129 -4.25721,0.83552 -6.33166,1.45385 -7.46116,1.85386 -15.21406,1.23864 -22.81405,0.9722 -7.05768,-0.31673 -14.23931,-0.72578 -21.18241,0.87863 0.26786,4.13626 1.7337,8.09218 1.99748,12.22495 0.17125,2.37133 -0.33893,4.71867 -0.22823,7.08794 -0.002,9.41134 0.005,18.82272 -0.0368,28.23399 -0.84744,1.31042 -1.90585,2.96763 -1.22163,4.56405 1.15329,1.67782 3.39067,1.78315 5.2344,1.90034 6.64297,0.38322 13.2501,-1.15188 19.88762,-0.65775 0.80173,0.27065 1.6465,0.1564 2.40172,-0.18239 4.3245,-1.17214 8.78933,-0.0247 13.04857,0.86835 3.30792,0.69503 6.72903,1.74472 10.12393,1.01912 1.13522,-0.37114 2.34032,-1.26744 2.49414,-2.51563 -0.64698,-3.71402 0.63838,-7.41671 0.30492,-11.13396 -0.0153,-1.43409 -0.95655,-3.07263 -2.52758,-3.1219 -1.3709,0.17289 -2.49119,1.16478 -3.86132,1.38868 -5.44127,1.57564 -11.16909,1.14864 -16.76061,1.12373 -3.8702,-0.0741 -7.7418,-0.1492 -11.61244,-0.0612 -1.76536,-0.47757 -2.98384,-2.18907 -3.02344,-3.99219 -0.15654,-3.0205 1.93376,-6.30713 5.07399,-6.71272 1.70875,-0.20742 3.35332,0.55003 4.76976,1.43342 2.33787,-0.69067 5.32672,-0.87641 7.47467,0.20842 2.1323,0.92509 4.65722,-1.2772 7.04017,-1.11907 1.40623,-0.3884 0.46024,-0.17613 0.47528,-1.4368 0.0779,-2.95498 -0.24999,-3.55276 0.30235,-6.49199 0.17185,-2.01871 0.48318,-4.28278 -0.65962,-6.08243 -1.02758,-1.01609 -2.77225,-1.0599 -4.00566,-0.45214 -0.70069,0.99379 -1.74518,1.61697 -2.84681,2.07588 -3.38228,1.48611 -7.14441,2.04514 -10.82136,1.86454 -2.25189,-0.18667 -4.85662,-0.74778 -6.15429,-2.79297 -0.83562,-1.2857 -1.01023,-3.09934 -0.18746,-4.40975 0.74072,-0.93248 1.98222,-1.144 3.10152,-1.03361 7.97693,-0.43173 16.03913,-1.39415 23.98633,-0.10352 2.01528,0.36124 3.93207,1.11193 5.82617,1.84961 1.60986,0.24783 3.46955,-0.79723 3.64858,-2.51378 0.7861,-3.73858 -0.55848,-7.46352 -0.26916,-11.22372 -0.002,-0.82444 0.23027,-1.63979 0.30613,-2.44414 -0.41926,-0.93092 -1.63007,-0.64386 -2.44774,-0.69401 -0.16846,0.009 -0.33693,0.0187 -0.50539,0.028 z m -262.82617,0.084 c -1.66311,0.10455 -3.13008,1.0093 -4.75124,1.32955 -6.73897,1.71432 -13.76636,1.36977 -20.65016,1.10745 -5.07692,-0.20978 -10.03782,-0.50562 -15.11618,-0.32176 -2.80913,0.13604 -5.60699,0.49237 -8.35937,1.07031 0.17586,4.31856 1.83714,8.34632 1.98514,12.68346 0.0743,2.38373 -0.35305,4.75173 -0.2632,7.13879 0.0296,9.25753 0.007,18.51569 -0.0208,27.77345 -0.87337,1.2834 -1.83479,2.89168 -1.27539,4.48828 1.11547,1.68142 3.33341,1.85384 5.16711,1.95689 6.67892,0.38952 13.31836,-1.1276 19.99463,-0.66424 0.85372,0.32329 1.7395,0.11 2.55587,-0.19408 4.35069,-1.05946 8.81706,0.0617 13.09939,0.91755 3.15228,0.64179 6.41576,1.48567 9.63808,0.88037 1.70457,-0.47812 3.20842,-2.25586 2.70312,-4.08985 -0.46737,-3.68188 1.04973,-7.38145 0.13672,-11.02929 -0.61431,-1.74489 -3.25233,-2.35945 -4.41211,-0.81366 -2.45793,1.84073 -5.68204,1.80216 -8.61356,1.81712 -8.05911,-0.11127 -16.11961,-0.068 -24.17941,-0.0718 -0.33109,-2.28061 -1.12948,-4.83683 0.17605,-6.96566 1.13588,-1.8461 3.46557,-2.43942 5.50026,-2.56981 3.51189,-0.15965 7.2144,0.17643 10.57955,0.34211 0.88279,0.0332 1.48625,-0.63258 2.36909,-0.60078 0.59553,1.34748 0.0775,0.77163 1.68406,1.24107 1.43508,-0.44476 3.7003,1.71928 4.20808,0.47638 1.0857,-2.45407 1.07455,-5.28111 0.29737,-7.8218 0.73652,-2.51083 0.89443,-5.56614 -0.91496,-7.67197 -1.56365,-1.89278 -4.83836,-1.5337 -6.19442,0.42978 -0.465,0.67346 -0.99995,1.38162 -1.71485,1.76852 -4.85468,0.48363 -9.99993,0.73676 -14.55722,-1.31016 -1.36937,-0.6984 -2.26908,-2.45877 -1.47598,-3.89976 0.56044,-1.20041 1.42375,-2.39341 2.7211,-2.82264 9.49888,0.044 19.07122,-0.57057 28.4983,0.9033 1.83955,0.30511 3.6642,0.69721 5.4681,1.16934 1.4e-4,-5.54493 0.0104,-11.08991 -0.0234,-16.63477 -1.42004,0.0636 -2.84008,-0.084 -4.25977,-0.0117 z m -151.53516,1.7168 c -11.120078,-0.25805 -22.400465,5.12651 -28.673474,14.40595 -3.648235,5.36871 -5.021094,12.26265 -3.48523,18.59181 1.675507,7.46109 6.779594,13.99768 13.484803,17.62988 2.475572,1.41202 5.131704,2.49735 7.869214,3.28447 0.413225,0.11279 1.187601,0.32397 1.742187,0.45312 7.859977,1.80419 16.281841,1.37082 23.838149,-1.49557 4.080313,-1.56357 7.898749,-3.88058 11.025133,-6.94779 0.219473,-0.22947 0.763667,-0.76604 1.089909,-1.13721 5.750696,-6.31054 8.288861,-15.68502 5.683927,-23.91876 -2.224924,-7.20883 -7.809172,-13.02194 -14.373422,-16.53717 -5.546567,-3.01246 -11.895749,-4.49611 -18.201196,-4.32873 z m 55.39258,0.0273 c -2.07986,0.17868 -4.14176,0.91253 -6.24652,0.52713 -2.26441,-0.0933 -4.76882,-0.45099 -6.80035,0.78733 -1.40089,1.39204 -1.06058,3.68934 -0.1718,5.26749 0.91049,1.65806 1.82633,3.34671 2.15017,5.23387 1.24649,5.33712 0.88756,10.86527 0.70158,16.29341 -0.29705,5.96102 -0.83539,11.86162 -0.54729,17.85039 0.0544,1.11489 0.15705,2.22657 0.24429,3.33921 -1.14225,0.96256 -2.7098,1.94333 -2.76562,3.60156 0.48482,1.45937 2.22425,1.66549 3.5223,1.90388 5.40561,0.9514 10.89421,0.40805 16.33121,0.34417 1.91304,-0.10542 4.07392,0.0826 6.02344,-0.43555 5.80744,-0.99515 11.62688,0.41412 17.36714,1.19593 3.37099,0.49015 6.96308,1.08147 10.24244,-0.16129 0.34036,-0.25454 1.07019,-0.36514 1.0752,-0.82129 -0.27161,-2.30756 -0.0789,-4.70142 0.13236,-6.91711 0.1526,-2.36252 0.57133,-4.92615 -0.55892,-7.12046 -0.30646,-0.47214 -0.75264,-0.86438 -1.23674,-1.13281 -6.52904,2.56839 -13.66169,2.63046 -20.57612,2.58229 -3.06921,0.004 -6.15184,-0.14303 -9.21276,0.0319 -1.43756,0.41262 -2.96119,0.31925 -4.36122,-0.18873 -1.03325,-1.70834 -1.39675,-3.77687 -1.19193,-5.76465 0.27524,-3.15817 0.53695,-6.33237 0.25114,-9.50123 -0.0963,-4.41553 -0.0202,-8.83645 -0.0398,-13.25408 0.003,-2.42617 0.006,-4.85234 0.01,-7.27852 1.26911,-0.66531 2.92122,-1.42324 3.0918,-3.03906 -0.36302,-1.76825 -2.26352,-2.5106 -3.81836,-2.93555 -1.17857,-0.30886 -2.39775,-0.44187 -3.61524,-0.4082 z m 208.70899,0.17383 c -2.9261,0.26888 -5.88356,0.87345 -8.8155,0.30716 -1.51198,-0.12812 -3.28196,-0.34483 -4.54388,0.68112 -1.00294,1.17747 -0.65861,2.84666 -0.37305,4.2207 0.13026,2.3958 -0.71999,4.69593 -1.28553,6.98925 -2.7809,9.71999 -7.93164,18.5003 -12.62044,27.38234 -1.72655,3.17268 -3.33749,6.41548 -5.10293,9.56157 -0.90046,1.04396 -2.28019,2.2163 -1.87781,3.75239 0.69105,1.64611 2.66751,1.9658 4.23345,2.21161 2.10498,0.30376 4.24069,0.0312 6.33414,-0.13216 1.86404,0.50633 4.11678,1.00339 5.80629,-0.23147 1.69376,-1.60634 1.60111,-4.1221 1.85073,-6.2679 0.14,-1.55465 0.38092,-3.09667 0.64257,-4.63477 1.78933,-1.04316 3.82273,-1.64984 5.90112,-1.64128 4.38876,-0.0121 8.83265,0.90964 13.18091,-0.0736 2.04963,-0.22827 4.04381,1.4026 4.23737,3.45199 0.76083,2.81332 0.26177,5.91137 1.60639,8.56754 0.94345,1.46204 2.97448,1.60077 4.47012,1.00889 1.93575,-0.56185 3.97624,-0.69489 5.96527,-0.36728 2.66451,0.20282 5.47588,0.88427 8.05882,-0.10715 1.11491,-0.55676 1.89779,-2.14433 0.99407,-3.2161 -2.08732,-3.16408 -4.07715,-6.57775 -5.97552,-9.93302 -5.90447,-10.53694 -10.97679,-21.509 -16.60847,-32.19003 0.73735,-2.24126 1.49203,-4.86901 0.25834,-7.0769 -1.2776,-2.10838 -4.12261,-2.32969 -6.33646,-2.26294 z m 38.00586,0.11133 c -1.48785,-0.0749 -3.42743,0.84611 -3.36914,2.55469 -0.0379,1.12062 0.0651,2.23882 0.11132,3.35742 1.33636,0.74429 2.22968,2.1813 2.2195,3.72186 0.25108,2.55531 -0.1075,5.2835 -0.28786,7.71954 -0.27462,2.47639 0.13391,4.94609 0.11854,7.42436 0.0249,6.40205 -0.009,12.80456 0.006,19.20689 v 5.01133 c -1.15484,0.78272 -2.58666,1.78985 -2.51757,3.35742 0.72374,1.86112 2.87948,2.42316 4.65234,2.75 1.99111,0.34683 4.0213,0.0467 5.99381,-0.18993 2.82664,0.81653 6.31822,0.59722 8.41024,-1.69755 1.13751,-1.37309 0.53138,-3.56486 -0.87866,-4.51095 -1.26359,-1.16131 -1.10405,-2.98809 -1.16406,-4.5461 6.4e-4,-3.54256 0.80931,-7.26915 3.08446,-10.06398 1.17942,-1.24681 3.28142,-1.3046 4.55226,-0.16336 0.9921,0.65649 1.60331,1.73666 2.49853,2.47797 3.42515,1.44142 5.55954,4.73841 7.00537,8.01422 1.46855,3.11479 2.2522,6.7201 4.82198,9.17646 1.40038,1.26349 3.39811,1.40799 5.18023,1.13385 4.91427,-0.42386 9.94431,0.9546 14.76928,-0.45875 0.42112,-0.13391 1.07516,-0.39623 0.71484,-0.93359 -0.84161,-1.62723 -1.62525,-3.30828 -2.70216,-4.80726 -0.38137,-0.56797 -0.85538,-1.20238 -1.17144,-1.61903 -3.9473,-5.04518 -8.7968,-9.27487 -13.26959,-13.8345 -2.87231,-2.86618 -5.57081,-5.91744 -7.89197,-9.25093 0.19314,-1.14987 0.67357,-2.29027 1.66944,-2.96725 5.40403,-5.12109 12.58452,-7.72313 18.36377,-12.33939 1.89693,-1.589 3.8919,-3.69058 3.79636,-6.34492 -0.009,-0.64879 -0.18737,-1.28099 -0.38816,-1.89337 H 394.6976 c 0.41834,1.75438 0.0676,3.60747 -0.83804,5.15367 -1.81915,3.46919 -4.82186,6.12447 -7.86492,8.50471 -2.06391,1.55329 -4.37634,2.73804 -6.77164,3.68928 -1.04516,-0.49657 -2.11943,-1.22695 -2.34571,-2.44727 -0.4405,-3.31558 1.01121,-6.46161 1.91414,-9.57473 0.30028,-1.31986 0.80525,-2.82227 0.16594,-4.11277 -0.84687,-1.48967 -2.80108,-1.42995 -4.28468,-1.27718 -1.9652,0.24137 -3.95986,0.49299 -5.92747,0.12577 -1.70244,-0.17499 -3.40715,-0.37938 -5.12183,-0.34663 z m -109.60352,0.29101 c -8.98763,1.9e-4 -18.01191,-0.0253 -26.97656,0.01 -0.18608,2.5603 0.53304,5.07468 1.54149,7.401 0.93573,2.4581 1.41094,5.17197 0.80978,7.7689 -0.30557,3.39444 -0.0185,6.80572 -0.12471,10.20744 v 23.32774 c -0.97952,1.06564 -2.24054,2.33662 -1.96094,3.91601 0.89895,1.59069 2.92401,1.73944 4.54773,1.92241 7.16515,0.79414 14.36742,-0.77528 21.52844,0.10689 6.74645,0.63408 13.71583,-0.15334 19.95487,-2.88365 4.73548,-2.06322 9.02342,-5.44495 11.50784,-10.04043 1.3839,-2.4293 2.15202,-5.14967 2.55315,-7.9026 1.03387,-5.11349 0.98287,-10.49869 -0.62019,-15.49207 -2.10251,-6.90928 -6.89337,-13.24258 -13.6028,-16.19785 -3.68758,-1.64711 -7.76513,-2.02995 -11.75753,-2.11253 -2.46612,-0.0744 -4.9338,-0.0413 -7.40057,-0.031 z m 0.48828,10.72461 c 7.21678,0.0263 14.48446,4.16816 17.56139,10.80554 2.52468,5.33276 1.42596,11.91721 -2.09227,16.5408 -0.64767,1.10951 -1.75956,1.92484 -3.04264,2.08993 -5.87077,1.70861 -12.01175,3.33414 -18.17007,2.46317 -2.45343,-0.41252 -4.87484,-2.28445 -5.07788,-4.90118 -0.30645,-2.20494 0.72038,-4.32583 0.50385,-6.5295 0.0419,-6.15291 0.021,-12.30599 0.0246,-18.45899 3.27577,-0.89412 6.54316,-2.08113 9.99213,-2.00574 0.10028,-10e-4 0.20055,-0.004 0.30084,-0.004 z m -190.234377,1.34961 c 7.607246,0.0634 14.368595,6.35641 15.594436,13.75772 0.61987,3.39514 -0.05645,7.0868 -2.247684,9.81241 -1.912476,2.52373 -4.879855,3.87744 -7.671161,5.1877 -5.199997,2.33775 -11.347625,1.85681 -16.48528,-0.41186 -4.350608,-1.85585 -8.280795,-5.36926 -9.56597,-10.04365 -1.461002,-5.34486 1.146835,-11.30806 5.725294,-14.28916 3.966832,-2.89251 8.967497,-3.83467 13.781984,-3.97932 0.288917,-0.0261 0.578461,-0.0313 0.868381,-0.0338 z m 258.333987,11.0625 c 1.59467,1.2447 3.20126,2.64848 3.88183,4.61992 0.50505,0.57 -0.24266,1.01595 -0.50036,1.51038 -1.18722,1.76696 -3.48938,2.01717 -5.43886,2.10574 -1.81118,0.0327 -3.4285,-0.90248 -5.09495,-1.47627 0.74076,-1.52741 1.40487,-3.14841 2.70312,-4.30274 0.74245,-0.61633 1.13608,-1.49245 1.67562,-2.25935 0.49374,-0.42562 1.05623,-0.77992 1.57634,-1.17815 0.39908,0.32683 0.79817,0.65365 1.19726,0.98047 z"
       inkscape:path-effect="#path-effect9"
       transform="translate(-5.2145488,-81.942909)"
       inkscape:label="Shadow"
       sodipodi:nodetypes="sccccccccccccccccccccccccccccccccccccccsssccccccccccccccccccccccccccccccccccssccccccccccccsccccccccccccccccccccccccccssscccccccccccccccccccccccssccccccccccccccccccccccccccccccccccccccccccccccccccccccccccsccccccccssscccccccssccccccccc" />
    <path
       id="text1"
       style="font-size:96px;font-family:Copperplate;-inkscape-font-specification:'Copperplate, Normal';fill:#17d4fc;stroke:none"
       d="m 460.53706,445.70102 c -1.95199,0.12893 -3.54262,0.82191 -5.17677,1.43239 -6.08666,1.84195 -13.57718,1.2299 -20.7639,0.9657 -6.69742,-0.31402 -13.53927,-0.71929 -19.41003,0.87831 1.79565,4.1745 4.6993,8.24523 6.57327,12.58314 1.11186,2.52915 1.56375,5.06279 2.63796,7.64987 3.95329,10.58833 8.112,21.70205 12.43084,33.3812 -0.27087,1.67585 -0.60209,3.8125 0.89331,5.88415 2.05086,2.19538 4.50001,2.32706 6.53425,2.47566 7.31676,0.48446 13.56581,-1.55394 20.92099,-0.927 1.00819,0.35278 1.846,0.20012 2.46036,-0.24654 3.93598,-1.54385 9.35789,-0.0595 14.4374,1.09941 3.96165,0.90553 8.28263,2.28433 11.45729,1.31191 0.97598,-0.49385 1.68664,-1.67732 1.05102,-3.31092 -3.02777,-4.79232 -3.97603,-9.48027 -6.5837,-14.08975 -0.8759,-1.75438 -2.81366,-3.74074 -4.44998,-3.79698 -1.30206,0.21185 -1.87279,1.41688 -3.14964,1.69222 -4.69711,1.9383 -10.84603,1.42756 -16.62793,1.40964 -4.03324,-0.0821 -8.06831,-0.16539 -12.01977,-0.0488 -2.06241,-0.58077 -4.16549,-2.66168 -5.08896,-4.8365 -1.61903,-3.59726 -1.07837,-7.45149 1.88288,-7.92719 1.61488,-0.243 3.63848,0.63287 5.50281,1.6594 2.00684,-0.80867 4.75826,-0.32445 7.48218,0.93964 2.63856,1.08286 2.3468,-1.12064 4.82855,-0.94023 3.09826,-0.85233 3.14699,-2.09964 3.33648,-3.21249 -1.49404,-3.37259 -3.3915,-5.22001 -4.36993,-8.49796 -1.07491,-1.3023 1.37228,1.23988 -0.67676,-0.75275 -1.52208,-1.11679 -3.75345,-1.22389 -5.27538,-1.3217 -2.05942,0.95013 0.34137,-0.394 -4.19057,0.40887 -2.59151,1.64288 -5.97377,0.61165 -9.65892,0.41661 -2.29068,-0.2031 -5.09372,-0.817 -7.2723,-3.04889 -1.37757,-1.39155 -2.33644,-3.34038 -2.11062,-4.7383 0.30886,-0.98931 1.40884,-1.21379 2.53111,-1.09784 7.45625,-0.46114 14.72235,-1.47863 22.94534,-0.1253 2.10957,0.38031 4.32472,1.17419 6.51925,1.95705 1.67535,0.26288 2.92131,-0.84986 2.20722,-2.66298 -1.15961,-3.89659 -4.29022,-7.70825 -5.86315,-11.48782 -0.40182,-0.81961 -0.5807,-1.62704 -0.89817,-2.42049 -0.83365,-0.91453 -1.81404,-0.63295 -2.5927,-0.68217 -0.15124,0.009 -0.30217,0.0183 -0.45329,0.0275 z m -245.34148,0.0837 c -1.58191,0.10384 -3.07341,1.00465 -4.64681,1.32454 -6.62165,1.72129 -13.25954,1.37511 -19.76768,1.11197 -4.79407,-0.21035 -9.4584,-0.50698 -14.32757,-0.32189 -2.7034,0.13701 -5.44641,0.49593 -8.20114,1.07932 -0.81059,4.40907 -0.1225,8.60525 -0.98306,13.21867 -0.48793,2.57838 -1.47828,5.17099 -1.96629,7.81562 -2.27765,10.56784 -4.72302,21.65887 -7.29784,33.31152 -1.30977,1.66467 -2.81948,3.76718 -2.6759,5.86847 0.7309,2.2313 3.11829,2.45449 5.10448,2.58632 7.23731,0.49958 14.89793,-1.54489 22.10015,-0.95011 0.86504,0.42784 1.88109,0.14087 2.83895,-0.2662 4.96679,-1.41734 9.63112,0.0541 14.16616,1.18026 3.349,0.8479 6.80031,1.96996 10.42844,1.14632 1.93542,-0.6457 3.81637,-3.01553 3.50701,-5.42951 -0.0244,-4.77518 2.063,-9.48281 1.54566,-14.02738 -0.42995,-2.14239 -3.11347,-2.88717 -4.53434,-0.99244 -2.84465,2.2795 -6.24392,2.23906 -9.34303,2.2644 -8.49757,-0.11956 -17.02986,-0.0472 -25.55909,-0.0333 0.17154,-2.81653 -0.0852,-5.9322 1.7514,-8.49876 1.57981,-2.20225 4.11239,-2.90886 6.23887,-3.06646 3.65337,-0.19452 7.40812,0.19602 10.84975,0.38607 0.90494,0.0377 0.17639,0.40819 1.08244,0.44432 0.38491,1.60135 2.62927,1.0222 4.21572,1.57869 1.68316,-0.0336 2.33331,0.77054 3.05065,-0.71331 1.48796,-2.9015 1.89197,-6.19602 1.47297,-9.11492 1.1055,-2.84939 1.79164,-4.8155 0.28141,-7.15358 -2.13165,0.12294 -4.54835,-0.30092 -6.25514,-0.0847 2.9072,0.12388 -0.55773,-0.78649 -2.05579,1.08451 -4.93961,0.54315 -10.14102,0.83094 -14.29841,-1.43598 -1.22421,-0.76848 -1.76072,-2.69616 -0.68513,-4.26278 0.7913,-1.2963 1.87379,-2.57705 3.22946,-3.03663 9.30491,0.0407 18.7707,-0.62028 27.80585,0.94637 1.76789,0.32568 3.51375,0.74526 5.23366,1.25177 0.59442,-5.88984 1.1825,-11.621 1.71335,-17.19962 -1.34668,0.0632 -2.6714,-0.0834 -4.01916,-0.0116 z m -144.751687,1.72333 c -10.556017,-0.25908 -24.199154,5.23702 -35.466015,15.0612 -6.784027,5.89867 -12.363447,13.71248 -14.735719,21.13241 -3.044177,9.07046 -1.858357,17.31082 3.06673,22.00548 1.796144,1.85018 4.018383,3.27954 6.536134,4.31879 0.384835,0.14921 1.106738,0.4288 1.638396,0.59968 7.589663,2.39878 17.21792,1.78668 27.231951,-2.06486 5.346964,-2.07391 10.757469,-5.10669 15.731433,-9.05588 0.353171,-0.29272 1.210615,-0.97581 1.748274,-1.44703 9.191153,-7.86684 16.09342,-19.05937 17.006751,-28.44149 0.824135,-7.89851 -2.234114,-14.06259 -7.129778,-17.70554 -4.055239,-3.07402 -9.500876,-4.57178 -15.628157,-4.40276 z m 53.050357,0.0231 c -2.04819,0.17988 -4.27187,0.91989 -6.15451,0.53124 -2.13526,-0.0938 -4.40495,-0.45378 -6.79972,0.79617 -1.85941,1.4142 -2.38691,3.76874 -2.1158,5.40134 0.26434,1.72885 0.52454,3.50407 0.1288,5.5059 -0.8095,5.76406 -3.34163,11.90172 -5.72783,18.0997 -2.79599,7.01111 -5.910554,14.17237 -8.275238,21.6741 -0.44792,1.4236 -0.844812,2.85163 -1.261318,4.28965 -1.689724,1.25465 -3.862165,2.54124 -4.712953,4.72494 -0.166444,1.93684 1.653485,2.20633 2.972806,2.52064 5.53025,1.2574 11.839303,0.51084 17.866543,0.40779 2.15401,-0.14717 4.45914,0.0974 6.81833,-0.60129 6.77516,-1.34229 12.64279,0.51579 18.68712,1.5442 3.54966,0.64751 7.31862,1.43234 11.34263,-0.24973 0.45598,-0.34194 1.29411,-0.49224 1.44363,-1.10144 0.42648,-3.05735 1.37774,-6.18951 2.28257,-9.05211 0.87497,-3.01413 2.08099,-6.24198 1.52637,-8.9662 -0.18529,-0.58188 -0.54097,-1.06376 -0.97238,-1.39259 -7.69516,3.191 -15.29422,3.28492 -22.62928,3.24098 -3.26616,0.0121 -6.49086,-0.16395 -9.81467,0.0612 -1.69116,0.51862 -3.2785,0.40551 -4.56875,-0.22517 -0.41965,-2.11709 0.0127,-4.65687 1.00454,-7.07242 1.50233,-3.78569 2.97194,-7.52766 3.85573,-11.20121 1.51281,-5.02 3.16604,-9.93404 4.687,-14.73581 0.83463,-2.59229 1.65926,-5.15351 2.47503,-7.68423 1.4504,-0.68913 3.29624,-1.47144 3.98094,-3.12846 0.21611,-1.79833 -1.36689,-2.54854 -2.71714,-2.97678 -1.0261,-0.31073 -2.14749,-0.44436 -3.32208,-0.41042 z m 197.73387,0.15692 c -2.71192,0.2686 -5.41334,0.8736 -8.24572,0.30741 -1.43804,-0.12783 -3.12838,-0.34396 -4.19735,0.6822 -0.81245,1.18403 -0.29577,2.87382 0.13471,4.27507 0.40531,2.46582 -0.1406,4.86098 -0.41771,7.27616 -1.59158,10.54977 -5.7789,20.54294 -9.67263,31.12934 -1.49037,3.9047 -2.87754,7.96507 -4.46322,11.97404 -0.8692,1.34654 -2.2473,2.86907 -1.68165,4.87249 0.8931,2.1649 3.06572,2.58178 4.78876,2.90263 2.31657,0.39647 4.60437,0.0279 6.85552,-0.1953 2.08416,0.66579 4.59496,1.31971 6.261,-0.32476 1.60666,-2.12053 1.15573,-5.39567 1.12572,-8.15473 -0.0648,-1.97881 -0.0209,-3.92541 0.0451,-5.85103 1.73351,-1.30069 3.77553,-2.05599 5.9505,-2.05018 4.5867,-0.025 9.39349,1.10548 13.76181,-0.12099 2.096,-0.28611 4.50242,1.72737 5.11983,4.28786 1.38427,3.55988 1.50216,7.547 3.51599,11.01429 1.34106,1.92939 3.57091,2.10703 5.05215,1.31763 1.95809,-0.74847 4.12675,-0.93027 6.35278,-0.50432 2.92675,0.25953 6.14225,1.15282 8.66233,-0.16667 1.04779,-0.73666 1.4506,-2.81729 0.19065,-4.20748 -3.06246,-4.05929 -6.0336,-8.36299 -8.84211,-12.51781 -8.44793,-12.58338 -15.71251,-24.98489 -23.07829,-36.42128 0.33558,-2.32559 0.62015,-5.01982 -0.90654,-7.25671 -1.53641,-2.11417 -4.24214,-2.33464 -6.31159,-2.2679 z m 35.66977,0.10765 c -1.41057,-0.0745 -3.02243,0.84503 -2.5851,2.56129 0.21684,1.13337 0.56784,2.27039 0.86688,3.414 1.44271,0.76389 2.63155,2.24709 2.98738,3.84915 0.8547,2.68401 1.17055,5.58761 1.59286,8.21369 0.34486,2.70269 1.36825,5.4311 1.98468,8.20391 1.69438,7.32745 3.38548,14.90248 5.18568,22.73685 l 1.44025,6.32217 c -0.99902,1.00624 -2.23321,2.3073 -1.70793,4.34018 1.32002,2.43433 3.80863,3.16827 5.81899,3.5944 2.2554,0.4526 4.34981,0.049 6.39887,-0.26986 3.31662,1.07135 7.0082,0.76958 8.46327,-2.25615 0.73986,-1.79169 -0.65951,-4.61684 -2.47364,-5.82291 -1.72154,-1.47344 -2.1537,-3.77836 -2.72393,-5.72585 -1.13708,-4.36861 -1.48167,-8.87804 -0.0369,-12.20527 0.8045,-1.4688 2.91833,-1.54015 4.57959,-0.20082 1.22598,0.7735 2.20897,2.05376 3.37368,2.93562 4.00748,1.72097 7.38229,5.7174 10.08881,9.75883 2.7163,3.90829 4.94328,8.51683 8.66471,11.70252 2.0178,1.65486 4.22314,1.83905 6.02086,1.47227 5.0865,-0.57257 11.09793,1.22824 15.62239,-0.64885 0.3882,-0.17694 0.96513,-0.52263 0.32982,-1.224 -1.64749,-2.11225 -3.24354,-4.27518 -5.05309,-6.18639 -0.6538,-0.72025 -1.4322,-1.52205 -1.94697,-2.04715 -6.26862,-6.26714 -12.97613,-11.39197 -19.28018,-16.79433 -3.94926,-3.33195 -7.73229,-6.82682 -11.17846,-10.58484 -0.19406,-1.28294 -0.10099,-2.54826 0.65248,-3.29669 3.55042,-5.5762 9.59135,-8.35747 13.48803,-13.19743 1.23305,-1.64029 2.36436,-3.7898 1.32603,-6.47268 -0.23836,-0.65058 -0.62837,-1.28256 -1.03117,-1.8929 l -21.71657,0.002 c 0.91993,1.75508 1.15272,3.62519 0.7684,5.19869 -0.6698,3.57405 -2.73778,6.35215 -4.95488,8.8744 -1.53708,1.66248 -3.43656,2.93999 -5.49599,3.97185 -1.16222,-0.53729 -2.41585,-1.32563 -2.97782,-2.63778 -1.34202,-3.5255 -0.80902,-6.81888 -0.79556,-10.02775 -0.0723,-1.34577 -5.1e-4,-2.86726 -0.94651,-4.16516 -1.18666,-1.48832 -2.99957,-1.42867 -4.3491,-1.27632 -1.77962,0.24095 -3.58669,0.49246 -5.52052,0.12602 -1.63684,-0.17433 -3.28153,-0.37783 -4.87976,-0.34506 z m -103.1363,0.3013 c -8.50525,0.001 -17.05019,-0.0235 -25.54889,0.0128 -0.38117,2.58507 0.10555,5.15496 0.8924,7.5606 0.71507,2.57177 0.96928,5.44777 0.17681,8.23714 -0.57497,3.70085 -0.56801,7.4839 -0.95728,11.32275 l -2.08192,28.24602 c -1.15683,1.3793 -2.64589,3.03539 -2.50532,5.10418 0.81623,2.0999 3.0108,2.29104 4.76568,2.52908 7.76286,1.03516 15.70582,-1.07375 23.46896,0.0734 7.34448,0.82238 14.93012,-0.24728 21.61807,-3.86154 5.00738,-2.69406 9.40071,-7.03308 11.73624,-12.79328 1.28489,-2.98782 1.89569,-6.28621 2.11869,-9.57536 0.69833,-5.9855 0.27517,-12.11852 -1.64212,-17.65541 -2.46312,-7.43722 -7.38469,-14.0349 -13.87673,-17.04445 -3.53071,-1.65952 -7.39143,-2.04309 -11.1661,-2.12542 -2.33136,-0.0743 -4.66513,-0.0409 -6.99849,-0.0303 z m 0.28209,11.03312 c 7.00535,0.0236 14.12945,4.43618 17.31548,11.70443 2.69099,6.01785 1.78731,13.6854 -1.72211,19.23549 -0.65009,1.35198 -1.79509,2.35202 -3.1341,2.55737 -6.14545,2.12037 -12.63474,4.15815 -19.11139,3.08621 -2.57003,-0.50726 -5.02839,-2.8158 -5.1106,-6.01186 -0.20856,-2.65869 0.95393,-5.18949 0.83426,-7.78708 0.32439,-7.09853 0.57642,-13.97674 0.84468,-20.64457 3.22979,-0.95409 6.44391,-2.21316 9.79153,-2.13556 0.0974,-0.001 0.19481,-0.004 0.2922,-0.004 z m -186.908812,1.55439 c 7.503703,0.063 11.325186,6.91205 9.085232,15.2566 -0.99689,3.93529 -3.510761,8.29637 -7.178069,11.57456 -3.320647,3.07833 -7.185076,4.75119 -10.867055,6.38224 -6.872971,2.9405 -13.200879,2.34975 -17.367077,-0.47481 -3.529071,-2.28575 -5.581748,-6.56213 -4.151092,-12.13829 1.602406,-6.21155 7.620511,-12.94732 13.842408,-16.24075 5.472784,-3.14686 10.915692,-4.16427 15.758922,-4.32268 0.298936,-0.0282 0.588299,-0.034 0.876712,-0.0368 z M 321.8344,472.57062 c 1.78572,1.39685 3.62072,2.98292 4.63288,5.23159 0.60547,0.65393 -0.0736,1.16859 -0.25065,1.73974 -0.90709,2.05366 -3.20563,2.34954 -5.17398,2.45626 -1.83733,0.0412 -3.61983,-1.0469 -5.39269,-1.71094 0.53285,-1.76626 0.97105,-3.62531 2.10812,-4.94079 0.65363,-0.6992 0.91847,-1.68843 1.3436,-2.55093 0.4286,-0.47744 0.9353,-0.87425 1.39233,-1.31925 0.44607,0.36419 0.89287,0.72896 1.34039,1.09432 z"
       inkscape:original-d="m 475.87775,450.17122 c -2.18077,0.13129 -4.25721,0.83552 -6.33166,1.45385 -7.46116,1.85386 -15.21406,1.23864 -22.81405,0.9722 -7.05768,-0.31673 -14.23931,-0.72578 -21.18241,0.87863 0.26786,4.13626 1.7337,8.09218 1.99748,12.22495 0.17125,2.37133 -0.33893,4.71867 -0.22823,7.08794 -0.002,9.41134 0.005,18.82272 -0.0368,28.23399 -0.84744,1.31042 -1.90585,2.96763 -1.22163,4.56405 1.15329,1.67782 3.39067,1.78315 5.2344,1.90034 6.64297,0.38322 13.2501,-1.15188 19.88762,-0.65775 0.80173,0.27065 1.6465,0.1564 2.40172,-0.18239 4.3245,-1.17214 8.78933,-0.0247 13.04857,0.86835 3.30792,0.69503 6.72903,1.74472 10.12393,1.01912 1.13522,-0.37114 2.34032,-1.26744 2.49414,-2.51563 -0.64698,-3.71402 0.63838,-7.41671 0.30492,-11.13396 -0.0153,-1.43409 -0.95655,-3.07263 -2.52758,-3.1219 -1.3709,0.17289 -2.49119,1.16478 -3.86132,1.38868 -5.44127,1.57564 -11.16909,1.14864 -16.76061,1.12373 -3.8702,-0.0741 -7.7418,-0.1492 -11.61244,-0.0612 -1.76536,-0.47757 -2.98384,-2.18907 -3.02344,-3.99219 -0.15654,-3.0205 1.93376,-6.30713 5.07399,-6.71272 1.70875,-0.20742 3.35332,0.55003 4.76976,1.43342 2.33787,-0.69067 4.86114,-0.27115 7.00909,0.81368 2.1323,0.92509 2.82352,-0.9546 5.20647,-0.79647 3.46804,-0.72698 4.09277,-1.80237 4.79917,-2.76674 0.0779,-2.95498 -0.97096,-4.59399 -0.41866,-7.53322 -0.47997,-1.18066 0.80909,1.118 -0.33371,-0.68165 -1.02758,-1.01609 -3.2618,-1.11582 -4.77456,-1.20643 -2.54431,0.8621 0.53304,-0.35914 -4.47596,0.36822 -3.38228,1.48611 -6.37591,0.54962 -10.05286,0.369 -2.25189,-0.18667 -4.85662,-0.74778 -6.15429,-2.79297 -0.83562,-1.2857 -1.01023,-3.09934 -0.18746,-4.40975 0.74072,-0.93248 1.98222,-1.144 3.10152,-1.03361 7.97693,-0.43173 16.03913,-1.39415 23.98633,-0.10352 2.01528,0.36124 3.93207,1.11193 5.82617,1.84961 1.60986,0.24783 3.46955,-0.79723 3.64858,-2.51378 0.7861,-3.73858 -0.55848,-7.46352 -0.26916,-11.22372 -0.002,-0.82444 0.23027,-1.63979 0.30613,-2.44414 -0.41926,-0.93092 -1.63007,-0.64386 -2.44774,-0.69401 -0.16846,0.009 -0.33693,0.0187 -0.50539,0.028 z m -262.82617,0.084 c -1.66311,0.10455 -3.13008,1.0093 -4.75124,1.32955 -6.73897,1.71432 -13.76636,1.36977 -20.65016,1.10745 -5.07692,-0.20978 -10.03782,-0.50562 -15.11618,-0.32176 -2.80913,0.13604 -5.60699,0.49237 -8.35937,1.07031 0.17586,4.31856 1.83714,8.34632 1.98514,12.68346 0.0743,2.38373 -0.35305,4.75173 -0.2632,7.13879 0.0296,9.25753 0.007,18.51569 -0.0208,27.77345 -0.87337,1.2834 -1.83479,2.89168 -1.27539,4.48828 1.11547,1.68142 3.33341,1.85384 5.16711,1.95689 6.67892,0.38952 13.31836,-1.1276 19.99463,-0.66424 0.85372,0.32329 1.7395,0.11 2.55587,-0.19408 4.35069,-1.05946 8.81706,0.0617 13.09939,0.91755 3.15228,0.64179 6.41576,1.48567 9.63808,0.88037 1.70457,-0.47812 3.20842,-2.25586 2.70312,-4.08985 -0.46737,-3.68188 1.04973,-7.38145 0.13672,-11.02929 -0.61431,-1.74489 -3.25233,-2.35945 -4.41211,-0.81366 -2.45793,1.84073 -5.68204,1.80216 -8.61356,1.81712 -8.05911,-0.11127 -16.11961,-0.068 -24.17941,-0.0718 -0.33109,-2.28061 -1.12948,-4.83683 0.17605,-6.96566 1.13588,-1.8461 3.46557,-2.43942 5.50026,-2.56981 3.51189,-0.15965 7.2144,0.17643 10.57955,0.34211 0.88279,0.0332 0.22917,0.34515 1.11201,0.37695 0.59553,1.34748 2.6848,0.86475 4.29134,1.33419 1.62131,-0.0257 2.3501,0.64843 2.85788,-0.59447 1.0857,-2.45407 1.07455,-5.28111 0.29737,-7.8218 0.73652,-2.51083 1.17378,-4.2625 -0.63561,-6.36833 -2.12235,0.10923 -4.60557,-0.27662 -6.28754,-0.0824 2.93377,0.11476 -0.67404,-0.71351 -1.90108,0.97703 -4.85468,0.48363 -9.99993,0.73676 -14.55722,-1.31016 -1.36937,-0.6984 -2.26908,-2.45877 -1.47598,-3.89976 0.56044,-1.20041 1.42375,-2.39341 2.7211,-2.82264 9.49888,0.044 19.07122,-0.57057 28.4983,0.9033 1.83955,0.30511 3.6642,0.69721 5.4681,1.16934 1.4e-4,-5.54493 0.0104,-11.08991 -0.0234,-16.63477 -1.42004,0.0636 -2.84008,-0.084 -4.25977,-0.0117 z m -151.53516,1.7168 c -11.120078,-0.25805 -22.400465,5.12651 -28.673474,14.40595 -3.648235,5.36871 -5.021094,12.26265 -3.48523,18.59181 1.675507,7.46109 6.779594,13.99768 13.484803,17.62988 2.475572,1.41202 5.131704,2.49735 7.869214,3.28447 0.413225,0.11279 1.187601,0.32397 1.742187,0.45312 7.859977,1.80419 16.281841,1.37082 23.838149,-1.49557 4.080313,-1.56357 7.898749,-3.88058 11.025133,-6.94779 0.219473,-0.22947 0.763667,-0.76604 1.089909,-1.13721 5.750696,-6.31054 8.288861,-15.68502 5.683927,-23.91876 -2.224924,-7.20883 -7.809172,-13.02194 -14.373422,-16.53717 -5.546567,-3.01246 -11.895749,-4.49611 -18.201196,-4.32873 z m 55.39258,0.0273 c -2.07986,0.17868 -4.14176,0.91253 -6.24652,0.52713 -2.26441,-0.0933 -4.76882,-0.45099 -6.80035,0.78733 -1.40089,1.39204 -1.06058,3.68934 -0.1718,5.26749 0.91049,1.65806 1.82633,3.34671 2.15017,5.23387 1.24649,5.33712 0.88756,10.86527 0.70158,16.29341 -0.29705,5.96102 -0.83539,11.86162 -0.54729,17.85039 0.0544,1.11489 0.15705,2.22657 0.24429,3.33921 -1.14225,0.96256 -2.7098,1.94333 -2.76562,3.60156 0.48482,1.45937 2.22425,1.66549 3.5223,1.90388 5.40561,0.9514 10.89421,0.40805 16.33121,0.34417 1.91304,-0.10542 4.07392,0.0826 6.02344,-0.43555 5.80744,-0.99515 11.62688,0.41412 17.36714,1.19593 3.37099,0.49015 6.96308,1.08147 10.24244,-0.16129 0.34036,-0.25454 1.07019,-0.36514 1.0752,-0.82129 -0.27161,-2.30756 -0.0789,-4.70142 0.13236,-6.91711 0.1526,-2.36252 0.57133,-4.92615 -0.55892,-7.12046 -0.30646,-0.47214 -0.75264,-0.86438 -1.23674,-1.13281 -6.52904,2.56839 -13.66169,2.63046 -20.57612,2.58229 -3.06921,0.004 -6.15184,-0.14303 -9.21276,0.0319 -1.43756,0.41262 -2.96119,0.31925 -4.36122,-0.18873 -1.03325,-1.70834 -1.39675,-3.77687 -1.19193,-5.76465 0.27524,-3.15817 0.53695,-6.33237 0.25114,-9.50123 -0.0963,-4.41553 -0.0202,-8.83645 -0.0398,-13.25408 0.003,-2.42617 0.006,-4.85234 0.01,-7.27852 1.26911,-0.66531 2.92122,-1.42324 3.0918,-3.03906 -0.36302,-1.76825 -2.26352,-2.5106 -3.81836,-2.93555 -1.17857,-0.30886 -2.39775,-0.44187 -3.61524,-0.4082 z m 208.70899,0.17383 c -2.9261,0.26888 -5.88356,0.87345 -8.8155,0.30716 -1.51198,-0.12812 -3.28196,-0.34483 -4.54388,0.68112 -1.00294,1.17747 -0.65861,2.84666 -0.37305,4.2207 0.13026,2.3958 -0.71999,4.69593 -1.28553,6.98925 -2.7809,9.71999 -7.93164,18.5003 -12.62044,27.38234 -1.72655,3.17268 -3.33749,6.41548 -5.10293,9.56157 -0.90046,1.04396 -2.28019,2.2163 -1.87781,3.75239 0.69105,1.64611 2.66751,1.9658 4.23345,2.21161 2.10498,0.30376 4.24069,0.0312 6.33414,-0.13216 1.86404,0.50633 4.11678,1.00339 5.80629,-0.23147 1.69376,-1.60634 1.60111,-4.1221 1.85073,-6.2679 0.14,-1.55465 0.38092,-3.09667 0.64257,-4.63477 1.78933,-1.04316 3.82273,-1.64984 5.90112,-1.64128 4.38876,-0.0121 8.83265,0.90964 13.18091,-0.0736 2.04963,-0.22827 4.04381,1.4026 4.23737,3.45199 0.76083,2.81332 0.26177,5.91137 1.60639,8.56754 0.94345,1.46204 2.97448,1.60077 4.47012,1.00889 1.93575,-0.56185 3.97624,-0.69489 5.96527,-0.36728 2.66451,0.20282 5.47588,0.88427 8.05882,-0.10715 1.11491,-0.55676 1.89779,-2.14433 0.99407,-3.2161 -2.08732,-3.16408 -4.07715,-6.57775 -5.97552,-9.93302 -5.90447,-10.53694 -10.97679,-21.509 -16.60847,-32.19003 0.73735,-2.24126 1.49203,-4.86901 0.25834,-7.0769 -1.2776,-2.10838 -4.12261,-2.32969 -6.33646,-2.26294 z m 38.00586,0.11133 c -1.48785,-0.0749 -3.42743,0.84611 -3.36914,2.55469 -0.0379,1.12062 0.0651,2.23882 0.11132,3.35742 1.33636,0.74429 2.22968,2.1813 2.2195,3.72186 0.25108,2.55531 -0.1075,5.2835 -0.28786,7.71954 -0.27462,2.47639 0.13391,4.94609 0.11854,7.42436 0.0249,6.40205 -0.009,12.80456 0.006,19.20689 v 5.01133 c -1.15484,0.78272 -2.58666,1.78985 -2.51757,3.35742 0.72374,1.86112 2.87948,2.42316 4.65234,2.75 1.99111,0.34683 4.0213,0.0467 5.99381,-0.18993 2.82664,0.81653 6.31822,0.59722 8.41024,-1.69755 1.13751,-1.37309 0.53138,-3.56486 -0.87866,-4.51095 -1.26359,-1.16131 -1.10405,-2.98809 -1.16406,-4.5461 6.4e-4,-3.54256 0.80931,-7.26915 3.08446,-10.06398 1.17942,-1.24681 3.28142,-1.3046 4.55226,-0.16336 0.9921,0.65649 1.60331,1.73666 2.49853,2.47797 3.42515,1.44142 5.55954,4.73841 7.00537,8.01422 1.46855,3.11479 2.2522,6.7201 4.82198,9.17646 1.40038,1.26349 3.39811,1.40799 5.18023,1.13385 4.91427,-0.42386 9.94431,0.9546 14.76928,-0.45875 0.42112,-0.13391 1.07516,-0.39623 0.71484,-0.93359 -0.84161,-1.62723 -1.62525,-3.30828 -2.70216,-4.80726 -0.38137,-0.56797 -0.85538,-1.20238 -1.17144,-1.61903 -3.9473,-5.04518 -8.7968,-9.27487 -13.26959,-13.8345 -2.87231,-2.86618 -5.57081,-5.91744 -7.89197,-9.25093 0.19314,-1.14987 0.67357,-2.29027 1.66944,-2.96725 5.40403,-5.12109 12.58452,-7.72313 18.36377,-12.33939 1.89693,-1.589 3.8919,-3.69058 3.79636,-6.34492 -0.009,-0.64879 -0.18737,-1.28099 -0.38816,-1.89337 H 394.6976 c 0.41834,1.75438 0.0676,3.60747 -0.83804,5.15367 -1.81915,3.46919 -4.82186,6.12447 -7.86492,8.50471 -2.06391,1.55329 -4.37634,2.73804 -6.77164,3.68928 -1.04516,-0.49657 -2.11943,-1.22695 -2.34571,-2.44727 -0.4405,-3.31558 1.01121,-6.46161 1.91414,-9.57473 0.30028,-1.31986 0.80525,-2.82227 0.16594,-4.11277 -0.84687,-1.48967 -2.80108,-1.42995 -4.28468,-1.27718 -1.9652,0.24137 -3.95986,0.49299 -5.92747,0.12577 -1.70244,-0.17499 -3.40715,-0.37938 -5.12183,-0.34663 z m -109.60352,0.29101 c -8.98763,1.9e-4 -18.01191,-0.0253 -26.97656,0.01 -0.18608,2.5603 0.53304,5.07468 1.54149,7.401 0.93573,2.4581 1.41094,5.17197 0.80978,7.7689 -0.30557,3.39444 -0.0185,6.80572 -0.12471,10.20744 v 23.32774 c -0.97952,1.06564 -2.24054,2.33662 -1.96094,3.91601 0.89895,1.59069 2.92401,1.73944 4.54773,1.92241 7.16515,0.79414 14.36742,-0.77528 21.52844,0.10689 6.74645,0.63408 13.71583,-0.15334 19.95487,-2.88365 4.73548,-2.06322 9.02342,-5.44495 11.50784,-10.04043 1.3839,-2.4293 2.15202,-5.14967 2.55315,-7.9026 1.03387,-5.11349 0.98287,-10.49869 -0.62019,-15.49207 -2.10251,-6.90928 -6.89337,-13.24258 -13.6028,-16.19785 -3.68758,-1.64711 -7.76513,-2.02995 -11.75753,-2.11253 -2.46612,-0.0744 -4.9338,-0.0413 -7.40057,-0.031 z m 0.48828,10.72461 c 7.21678,0.0263 14.48446,4.16816 17.56139,10.80554 2.52468,5.33276 1.42596,11.91721 -2.09227,16.5408 -0.64767,1.10951 -1.75956,1.92484 -3.04264,2.08993 -5.87077,1.70861 -12.01175,3.33414 -18.17007,2.46317 -2.45343,-0.41252 -4.87484,-2.28445 -5.07788,-4.90118 -0.30645,-2.20494 0.72038,-4.32583 0.50385,-6.5295 0.0419,-6.15291 0.021,-12.30599 0.0246,-18.45899 3.27577,-0.89412 6.54316,-2.08113 9.99213,-2.00574 0.10028,-10e-4 0.20055,-0.004 0.30084,-0.004 z m -190.234377,1.34961 c 7.607246,0.0634 14.368595,6.35641 15.594436,13.75772 0.61987,3.39514 -0.05645,7.0868 -2.247684,9.81241 -1.912476,2.52373 -4.879855,3.87744 -7.671161,5.1877 -5.199997,2.33775 -11.347625,1.85681 -16.48528,-0.41186 -4.350608,-1.85585 -8.280795,-5.36926 -9.56597,-10.04365 -1.461002,-5.34486 1.146835,-11.30806 5.725294,-14.28916 3.966832,-2.89251 8.967497,-3.83467 13.781984,-3.97932 0.288917,-0.0261 0.578461,-0.0313 0.868381,-0.0338 z m 258.333987,11.0625 c 1.59467,1.2447 3.20126,2.64848 3.88183,4.61992 0.50505,0.57 -0.24266,1.01595 -0.50036,1.51038 -1.18722,1.76696 -3.48938,2.01717 -5.43886,2.10574 -1.81118,0.0327 -3.4285,-0.90248 -5.09495,-1.47627 0.74076,-1.52741 1.40487,-3.14841 2.70312,-4.30274 0.74245,-0.61633 1.13608,-1.49245 1.67562,-2.25935 0.49374,-0.42562 1.05623,-0.77992 1.57634,-1.17815 0.39908,0.32683 0.79817,0.65365 1.19726,0.98047 z"
       inkscape:path-effect="#path-effect1"
       inkscape:label="Text"
       transform="translate(-6.7044198,-92.372007)"
       sodipodi:nodetypes="sccccccccccccccccccccccccccccccccccccccsssccccccccccccccccccccccccccccccccccssccccccccccccsccccccccccccccccccccccccccssscccccccccccccccccccccccssccccccccccccccccccccccccccccccccccccccccccccccccccccccccccsccccccccssscccccccssccccccccc" />
    <g
       inkscape:groupmode="layer"
       id="layer5"
       inkscape:label="Snow"
       transform="translate(-5.9594843,-7.4493554)">
      <path
         style="opacity:0.976048;fill:url(#radialGradient19);stroke:#ccecfb;stroke-opacity:0.269103"
         d="m 43.216674,369.59703 c 5.060931,-3.51884 10.842716,-5.89746 16.794278,-7.41038 2.670266,-1.08523 5.547625,0.002 8.312291,-0.18823 6.083085,0.0178 12.548071,-0.74166 18.199891,2.02611 2.040676,1.00342 3.003096,3.25062 2.798556,5.4338 0.10209,2.20862 0.34254,4.78195 -1.15532,6.5931 -1.700296,1.19875 -3.684366,-0.15354 -5.078776,-1.19702 -1.53953,-1.43648 -3.47839,-2.34259 -5.52933,-2.77711 -7.872188,-2.0386 -16.087171,-3.59067 -24.224806,-2.4528 -1.903325,0.78387 -3.613456,2.06747 -5.751886,2.1876 -1.688627,0.34257 -4.092875,0.41055 -4.935014,-1.3979 l -0.06865,-0.34104 -0.01967,-0.34444"
         id="path16" />
      <path
         style="opacity:0.976048;fill:url(#radialGradient19-5);stroke:#ccecfb;stroke-opacity:0.269103"
         d="m 106.86593,364.51426 c 5.11921,-3.07883 14.3143,-4.45722 20.70083,-1.25296 2.88206,1.46099 2.15149,3.86382 -3.58383,8.22482 -4.97405,-2.21113 2.0319,-4.08504 -4.20334,-2.96026 -4.12526,-0.84196 -7.20632,4.72597 -12.64136,2.30456"
         id="path16-8"
         sodipodi:nodetypes="ccccc" />
      <path
         style="opacity:0.976048;fill:url(#radialGradient19-5-7);stroke:#ccecfb;stroke-opacity:0.269103"
         d="m 169.08304,361.5956 c 2.12322,-1.83916 5.07361,-1.27262 7.60414,-0.94181 2.54378,0.31961 27.54712,-1.22011 30.0955,-1.00642 1.85839,0.0942 10.14358,0.28006 11.95312,0.71286 1.55639,0.93486 -0.0749,3.32242 -0.37097,4.78119 1.05754,2.31341 0.10787,1.02311 -0.30015,2.53936 0.73267,2.08224 -2.30498,3.5406 -2.82015,1.68954 -0.85163,-2.09543 -12.92933,-2.79382 -14.65786,-3.05932 -3.69523,-1.92881 -13.45611,1.17677 -13.65024,0.43584 -0.95209,-0.46258 -11.82586,1.99813 -13.59544,2.65464 -1.6592,1.06873 -2.35734,2.08803 -3.75172,3.454 -0.81641,1.04049 -3.73073,4.28058 -3.07014,1.74968 0.64263,-3.87169 -0.0613,-4.603 0.32815,-6.83756 l -1.25908,-1.23107 1.32203,-2.96573"
         id="path16-8-3"
         sodipodi:nodetypes="ccccccccccccccc" />
      <path
         style="opacity:0.976048;fill:url(#radialGradient19-5-7-3);stroke:#ccecfb;stroke-opacity:0.269103"
         d="m 227.11541,366.44414 c -0.58168,-3.02263 -0.28389,-4.99446 3.72666,-3.68256 9.49715,-0.34682 19.69246,0.25374 29.19034,-0.27663 4.19909,-0.30696 16.06163,4.56451 13.55137,4.13132 -2.30828,-1.68639 -10.41172,-3.09768 -8.9567,0.50375 1.28183,1.1548 1.07095,4.32618 -2.8975,2.89936 -2.78556,-1.14041 -1.74186,1.91048 -4.26394,-0.0792 -2.56498,-1.12428 -6.72816,-1.87158 -8.25183,1.17497 -2.38842,2.48145 -6.83142,0.28427 -9.04835,3.61299 -2.70839,3.62481 -5.74004,1.49075 -9.10097,3.40761 -3.51141,1.81401 -2.97855,-3.25582 -2.74634,-5.66455 -1.19663,-3.51289 -1.84119,-4.36145 -1.86079,-7.87071"
         id="path16-8-3-1"
         sodipodi:nodetypes="cccccccccccc" />
      <path
         style="opacity:0.976048;fill:url(#radialGradient19-5-7-3-7);stroke:#ccecfb;stroke-opacity:0.269103"
         d="m 305.85152,379.97346 c 3.26386,-3.90626 -1.75703,-15.50916 2.44806,-19.49418 4.64181,0.22095 7.50665,0.0117 11.75564,0.5496 4.29571,0.78073 4.93173,0.75519 8.47435,3.26879 0.82277,4.18303 -0.43697,8.02854 3.26007,13.24243 -2.12885,4.68605 -4.6433,-0.59516 -6.05706,-2.8556 -2.11909,0.53017 -6.81298,0.69711 -4.66609,-3.1197 -2.39629,-4.32378 -3.95076,-2.2782 -8.78979,-2.8007 -3.36958,-0.14883 0.1037,8.57363 -3.05989,9.59241 0.0346,1.91105 1.01141,3.67248 -2.91297,2.71836"
         id="path16-8-3-1-7"
         sodipodi:nodetypes="cccccccccc" />
      <path
         style="opacity:0.976048;fill:url(#radialGradient19-5-7-3-7-1);stroke:#ccecfb;stroke-opacity:0.269103"
         d="m 357.10486,370.99453 c -3.9195,-1.80238 -8.26112,-7.87363 -1.91417,-9.25779 24.37949,-1.47779 20.8923,7.91889 8.67874,5.18812"
         id="path16-8-3-1-7-5"
         sodipodi:nodetypes="ccc" />
      <path
         style="opacity:0.976048;fill:url(#radialGradient19-5-7-3-7-1-2);stroke:#ccecfb;stroke-opacity:0.269103"
         d="m 386.36971,369.71248 c -0.85281,-1.77662 -0.92845,-3.87061 -1.26259,-6.57431 -0.0979,-0.79217 1.63402,-0.85109 2.74719,-1.05393 8.35153,-0.50624 16.50576,-0.38817 19.08642,0.73315 2.11459,0.91882 2.40137,2.04151 0.98939,2.95153 -1.21861,0.7854 -2.41518,-1.18984 -7.13179,-0.16001 -0.96206,0.21006 -4.47548,-0.19787 -6.46059,0.1893 -0.38209,0.0745 -1.92497,2.53573 -3.85729,3.19681"
         id="path16-8-3-1-7-5-5"
         sodipodi:nodetypes="cscssssc" />
      <path
         style="opacity:0.976048;fill:url(#radialGradient19-5-7-3-7-1-8);stroke:#ccecfb;stroke-opacity:0.269103"
         d="m 415.37124,362.62239 c 2.80566,-1.87166 5.10448,-1.05715 8.40306,-1.83046 2.58711,-0.9045 7.30749,-0.82494 10.02363,-0.51165 2.66574,0.22389 7.53128,-0.43947 10.19768,-0.45925 5.7272,0.37143 14.32351,-2.28257 19.33062,0.63334 2.22634,1.60124 0.88302,3.90304 2.08625,6.08666 1.11591,1.47294 5.08227,4.74014 2.5394,5.76425 -11.49385,0.39872 -8.90355,-1.93311 -11.68548,-2.57747 -4.34513,-0.59519 -11.37527,1.7928 -15.77716,1.50028 -4.10515,1.59672 -8.40106,-0.71953 -12.58932,0.0171 -1.66483,0.14475 -0.56767,2.04066 -2.30671,0.72729 -1.842,-1.47627 -4.39175,-0.26291 -6.58078,-0.37757 -2.86662,-0.22543 -3.67792,-3.26828 -4.08118,-5.61674 -0.21921,-0.77106 -0.55959,-1.52864 -1.12754,-2.10802"
         id="path16-8-3-1-7-5-4"
         sodipodi:nodetypes="cccccccccccccc" />
    </g>
  </g>
  <g
     inkscape:groupmode="layer"
     id="layer2"
     inkscape:label="Image"
     style="display:inline">
    <path
       style="fill:#8e89d7;fill-opacity:1"
       d="m 206.48559,146.43622 -21.5967,50.56789 -18.43622,40.55968 -17.90946,-17.38272 -28.97119,38.97942 -24.757205,-23.17694 -60.049383,104.82304 c 0,0 86.913578,4.74074 89.020578,5.79424 2.10699,1.05349 42.66666,-5.79424 53.72839,-0.52675 11.06173,5.26749 63.20988,-0.52675 63.20988,-0.52675 0,0 76.3786,0.52674 82.17284,-0.52676 5.79423,-1.05349 62.68313,-4.74073 67.42387,-3.68723 4.74074,1.05349 55.87283,5.62899 55.87283,5.62899 L 397.16872,225.97531 376.09877,245.46503 333.4321,158.02469 311.83539,177.5144 292.87243,153.28396 272.32922,88.493827 246.51852,65.316872 Z"
       id="path2"
       sodipodi:nodetypes="cccccccsscssccccccccc"
       inkscape:label="bottom" />
    <path
       style="fill:#b9b2ef;fill-opacity:1"
       d="m 206.48559,146.43622 -21.5967,50.56789 -7.63465,53.59605 -28.71103,-30.41909 -25.24651,44.19397 -28.481885,-28.39149 -5.296621,57.51963 c 0,0 31.043416,-14.25511 33.150416,-13.20161 2.10699,1.05349 96.26093,32.22193 97.67958,31.50548 l 39.49975,-9.95075 26.54734,39.4396 c 3.28852,4.88554 56.30941,-44.00509 60.34698,-41.30648 2.13347,1.42596 71.14401,31.70173 71.14401,31.70173 l -20.71755,-105.71584 -27.77437,24.3318 -35.96225,-92.28242 -26.06632,21.72452 -14.49335,-26.46525 -20.54321,-64.790133 -25.8107,-23.176955 z"
       id="path3"
       sodipodi:nodetypes="cccccccsscssccccccccc"
       inkscape:label="3rd" />
    <g
       inkscape:groupmode="layer"
       id="layer3"
       inkscape:label="2nd">
      <path
         style="fill:#b2d5ef;fill-opacity:1;stroke-width:1.42921"
         d="m 86.386831,253.89301 8.354484,17.90946 9.113985,-11.19341 15.18997,1.49246 -24.303955,-26.11798 z"
         id="path4" />
      <path
         d="m 332.99307,159.38955 -23.53372,16.73326 -2.51201,11.41977 -47.70289,18.28067 50.08669,-3.37154 21.70764,-1.48755 8.65847,-27.00929 z"
         style="baseline-shift:baseline;display:inline;overflow:visible;vector-effect:none;fill:#b2d5ef;enable-background:accumulate;stop-color:#000000;stop-opacity:1"
         id="path5"
         sodipodi:nodetypes="cccccccc" />
      <path
         d="m 224.19302,205.08642 14.42838,19.88547 -5.89384,11.59945 -33.68681,29.09064 44.21016,-14.89147 8.49356,-3.28131 32.30879,-2.98518 -30.49126,-9.36952 z"
         style="baseline-shift:baseline;display:inline;overflow:visible;vector-effect:none;fill:#b2d5ef;enable-background:accumulate;stop-color:#000000"
         id="path5-5"
         sodipodi:nodetypes="ccccccccc" />
      <path
         d="m 244.47285,67.028809 -46.80618,99.556251 8.35351,17.9082 20.17697,-25.94233 38.89315,-23.26501 7.36888,-47.094313 z"
         style="baseline-shift:baseline;display:inline;overflow:visible;vector-effect:none;fill:#b2d5ef;enable-background:accumulate;stop-color:#000000"
         id="path5-5-1"
         sodipodi:nodetypes="ccccccc" />
      <path
         d="m 363.84561,221.04801 -11.37179,14.42977 -21.5646,8.32247 -45.84055,9.15521 65.54411,-4.11647 17.61049,-4.65353 z"
         style="baseline-shift:baseline;display:inline;overflow:visible;vector-effect:none;fill:#b2d5ef;enable-background:accumulate;stop-color:#000000"
         id="path5-5-1-7"
         sodipodi:nodetypes="ccccccc" />
      <path
         d="m 396.84434,226.52983 -25.8595,20.70367 21.20365,38.02146 -1.31386,-40.99079 9.04373,-9.68184 z"
         style="baseline-shift:baseline;display:inline;overflow:visible;vector-effect:none;fill:#b2d5ef;enable-background:accumulate;stop-color:#000000"
         id="path5-5-1-7-2"
         sodipodi:nodetypes="cccccc" />
      <path
         d="m 148.18479,221.1358 -8.4852,14.09123 10.98726,-4.47863 -1.41974,16.0659 7.95136,-8.72118 10.92533,3.23394 z"
         style="baseline-shift:baseline;display:inline;overflow:visible;vector-effect:none;fill:#b2d5ef;enable-background:accumulate;stop-color:#000000"
         id="path5-5-1-7-2-1"
         sodipodi:nodetypes="ccccccc" />
    </g>
    <g
       inkscape:groupmode="layer"
       id="layer4"
       inkscape:label="top">
      <path
         d="m 248.19753,63.304131 -14.02902,28.042439 16.49123,16.61014 -21.54656,48.229 27.62633,-40.09611 12.44793,-5.01408 3.27174,-22.883913 z"
         style="baseline-shift:baseline;display:inline;overflow:visible;vector-effect:none;fill:#b1eef0;fill-opacity:1;enable-background:accumulate;stop-color:#000000"
         id="path6"
         sodipodi:nodetypes="cccccccc" />
    </g>
  </g>
  <path
     d="m 187.38105,280.97831 c -0.77945,0 -1.16012,-0.0181 -1.63142,-0.0906 v 1.19638 c -0.45317,0.0362 -0.85196,0.0544 -1.39577,0.0544 h -1.63142 c 0.36254,-0.48943 0.79758,-1.2145 1.28701,-2.08459 0.1994,-0.36254 0.34441,-0.58006 0.48943,-0.79759 l -0.56194,-0.63444 c -0.41692,0.0363 -0.7432,0.0544 -1.32326,0.0544 h -1.72206 c 0.38067,-0.79758 0.58006,-1.19637 0.59819,-1.2145 l -1.50453,-0.2719 c -0.18127,0.83383 -0.68882,1.88519 -1.35952,2.91843 -0.61631,0.92447 -1.10574,1.46828 -2.12085,2.33837 0.29003,0.32628 0.52568,0.7432 0.70695,1.19637 l 0.58006,-0.61631 v 2.75529 c 0,0.56193 -0.0181,0.9426 -0.0544,1.32326 0.43505,-0.0363 0.90635,-0.0544 1.43203,-0.0544 h 0.32628 c -0.0544,1.37764 -0.14501,1.90332 -0.41692,2.66465 -0.43504,1.26889 -1.03323,1.95771 -2.50151,2.95469 0.41692,0.34441 0.70695,0.67069 0.96073,1.10574 1.6858,-1.30514 2.32024,-2.1571 2.80967,-3.67976 0.2719,-0.83384 0.38066,-1.54079 0.48942,-3.04532 h 1.23263 v 4.71299 c 0,0.77946 0.16314,1.12387 0.6707,1.32327 0.58006,0.21752 1.4864,0.30815 3.44411,0.30815 4.73112,0 5.83686,-0.0906 6.48943,-0.56193 0.56193,-0.39879 0.77945,-1.12387 0.88822,-2.75529 -0.48943,-0.0725 -0.8701,-0.19939 -1.37765,-0.45317 -0.0181,1.35952 -0.12689,1.86707 -0.4713,2.12085 -0.39879,0.30815 -1.43202,0.38066 -4.7855,0.38066 -1.77644,0 -2.66465,-0.0362 -3.04532,-0.12689 -0.38066,-0.10876 -0.48942,-0.23565 -0.48942,-0.63444 v -4.3142 h 0.96072 c 0.56193,0 0.97885,0.0181 1.4139,0.0544 -0.0363,-0.36254 -0.0544,-0.76133 -0.0544,-1.30514 v -2.39275 c 0,-0.41692 0.0181,-0.85196 0.0362,-1.10574 0.41692,-0.0725 0.79759,-0.0906 1.57704,-0.0906 h 0.4713 c -0.21752,2.6284 -0.67069,4.35045 -1.54078,5.80061 -0.58007,0.97885 -1.05136,1.50453 -2.0846,2.33837 0.48943,0.36253 0.79759,0.67069 1.01511,1.05136 0.99698,-0.97886 1.43202,-1.46828 1.93958,-2.28399 0.52568,-0.81571 0.9426,-1.72206 1.25075,-2.71904 0.34441,-1.14199 0.61632,-2.77341 0.72508,-4.18731 h 2.30211 c -0.0181,2.53776 -0.16314,4.3142 -0.41691,5.85499 -0.23565,1.30513 -0.36254,1.52266 -0.9426,1.52266 -0.48943,0 -1.01511,-0.0725 -1.92145,-0.25378 0.16314,0.50755 0.19939,0.70695 0.25377,1.37764 0.56194,0.0725 1.19638,0.10877 1.57704,0.10877 1.25076,0 1.79457,-0.27191 2.04834,-1.06949 0.32629,-1.03324 0.59819,-3.62538 0.70695,-6.9426 0.0544,-1.25076 0.0544,-1.30514 0.10876,-1.90333 -0.48942,0.0544 -0.88821,0.0725 -1.63142,0.0725 h -2.03021 c 0.0362,-0.81571 0.0362,-1.23263 0.0544,-2.08459 0,-0.65257 0.0181,-0.99698 0.10876,-1.43203 h -1.54078 c 0.0906,0.52568 0.10876,0.85196 0.10876,1.81269 0,0.58006 0,1.06949 -0.0363,1.70393 z m -8.80967,1.16012 c 0.92447,-1.08761 1.2145,-1.48641 1.70393,-2.30212 h 2.41088 c -0.38067,0.79759 -0.87009,1.63142 -1.37765,2.30212 z m 0.41692,1.17825 h 2.1571 v 2.55589 h -2.1571 z m 3.29909,0 h 2.22961 v 2.55589 h -2.22961 z m 22.93053,0.68882 h -2.28399 c -0.72507,0 -1.12386,-0.0181 -1.57704,-0.0725 0.0544,0.38067 0.0725,0.83384 0.0725,1.34139 v 2.19336 c 0,0.59819 -0.0181,1.01511 -0.0725,1.45015 0.48943,-0.0544 0.88822,-0.0725 1.59517,-0.0725 h 2.26586 v 2.71904 c -1.63142,0.14501 -3.51662,0.2719 -4.25982,0.2719 -0.16314,0 -0.2719,0 -0.50755,-0.0181 l 0.2719,1.48641 c 0.23565,-0.0544 0.36254,-0.0725 0.61632,-0.0906 3.35347,-0.32629 5.5287,-0.61632 8.32024,-1.142 0.36254,0.65257 0.50756,0.9426 0.85197,1.72206 l 1.17825,-0.54381 c -0.74321,-1.50453 -1.28701,-2.37462 -2.51964,-4.0423 l -1.06949,0.50755 c 0.48943,0.65257 0.61631,0.83384 0.9426,1.34139 -0.88822,0.14502 -1.28701,0.1994 -2.55589,0.36254 v -2.57402 h 2.55589 c 0.61631,0 1.03323,0.0181 1.52266,0.0725 -0.0544,-0.41692 -0.0725,-0.81571 -0.0725,-1.4139 v -2.35649 c 0,-0.52568 0.0181,-0.85197 0.0725,-1.21451 -0.45317,0.0544 -0.79759,0.0725 -1.4139,0.0725 h -2.66465 v -1.86707 c 1.32326,-0.0906 1.52266,-0.12689 2.97281,-0.29003 0.25377,0.36254 0.41692,0.61631 0.85196,1.30514 l 1.10574,-0.81571 c -1.17825,-1.63142 -2.13897,-2.79155 -3.44411,-4.11481 l -1.03323,0.61631 c 0.81571,0.85197 1.12387,1.19638 1.72205,1.93958 -1.61329,0.16314 -3.44411,0.29003 -4.44109,0.32629 -0.21752,0 -0.21752,0 -0.36253,0 0.68882,-0.99698 0.94259,-1.45016 1.93957,-3.37161 l -1.4864,-0.34441 c -0.43505,1.28701 -0.9426,2.30212 -1.86707,3.7704 -0.27191,0.0181 -0.52568,0.0181 -0.70695,0.0181 -0.34441,0 -0.58006,-0.0181 -0.87009,-0.0544 l 0.18127,1.37765 c 0.36253,-0.0544 0.61631,-0.0725 1.9577,-0.14502 0.97885,-0.0362 1.4139,-0.0725 2.21148,-0.10876 z m 0,1.142 v 2.53776 h -2.55589 v -2.53776 z m 1.26889,0 h 2.75528 v 2.53776 h -2.75528 z m -9.58913,0.96072 c 0.12688,-0.70695 0.29003,-2.06647 0.34441,-2.75529 h 1.86707 c 0.5438,0 0.88822,0.0181 1.28701,0.0544 -0.0363,-0.45317 -0.0544,-0.96072 -0.0544,-1.50453 v -2.48338 c 0,-0.54381 0.0181,-0.85197 0.0544,-1.30514 -0.38067,0.0362 -0.76133,0.0544 -1.25076,0.0544 h -2.10272 c -0.81571,0 -1.30514,-0.0362 -1.6858,-0.10876 v 1.4139 c 0.39879,-0.0544 0.90634,-0.0725 1.63142,-0.0725 h 2.03021 v 2.73716 h -1.39577 c -0.9426,0 -1.2145,-0.0181 -1.66767,-0.0725 -0.0544,2.03022 -0.23565,3.7704 -0.58006,5.27493 0.36253,-0.0181 0.7432,-0.0362 1.23263,-0.0362 h 2.32024 c -0.0363,1.81269 -0.16314,3.00906 -0.45317,4.1148 -0.18127,0.65257 -0.36254,0.77946 -1.06949,0.77946 -0.48943,0 -1.23263,-0.0725 -1.93958,-0.18127 0.16314,0.52568 0.1994,0.81571 0.25378,1.4139 0.72507,0.0725 1.2145,0.0906 1.84894,0.0906 1.12387,0 1.55891,-0.19939 1.92145,-0.85196 0.45317,-0.85197 0.70695,-2.64653 0.79759,-5.76436 0.0181,-0.39879 0.0181,-0.52568 0.0544,-0.85196 -0.38067,0.0362 -0.72508,0.0544 -1.34139,0.0544 z m 25.21451,1.77644 h 5.05741 v 3.8429 c 0,0.43505 -0.14502,0.52568 -0.97885,0.52568 -0.61632,0 -1.46828,-0.0725 -2.46526,-0.1994 0.19939,0.56194 0.2719,0.88822 0.32628,1.37765 0.70695,0.0544 1.54079,0.0906 2.12085,0.0906 1.92145,0 2.3565,-0.29003 2.3565,-1.54078 v -12.09065 c 0,-0.87009 0.0181,-1.30513 0.0725,-1.84894 -0.5438,0.0544 -1.03323,0.0725 -1.97583,0.0725 h -9.86103 c -0.9426,0 -1.46828,-0.0181 -2.01209,-0.0725 0.0544,0.65257 0.0725,1.19638 0.0725,2.1571 0,8.42901 -0.30816,10.36859 -1.97583,12.61632 0.58006,0.36254 0.76133,0.48943 1.25075,0.96073 1.19638,-1.8852 1.64955,-3.2991 1.90333,-5.89124 h 4.76737 v 3.31722 c 0,0.97885 -0.0181,1.48641 -0.0906,2.01209 h 1.52266 c -0.0725,-0.4713 -0.0906,-1.05136 -0.0906,-2.03022 z m 0,-5.52871 v -2.93655 h 5.05741 v 2.93655 z m -1.34139,0 h -4.5861 l 0.0181,-0.85196 v -2.08459 h 4.56798 z m 1.34139,1.26889 h 5.05741 v 2.97281 h -5.05741 z m -1.34139,0 v 2.97281 h -4.67674 c 0.0363,-0.81571 0.0363,-0.81571 0.0544,-1.79457 0,-0.25377 0,-0.67069 0.0181,-1.17824 z m 18.25379,7.61329 c 0.41692,0.50756 0.54381,0.74321 0.77946,1.46828 1.39577,-0.29003 2.1571,-0.52568 3.02719,-0.9426 2.53777,-1.2145 3.96979,-3.46223 3.96979,-6.2719 0,-3.82478 -2.73716,-6.36255 -6.85197,-6.36255 -2.46526,0 -4.49547,0.83384 -5.96375,2.44714 -1.25075,1.37764 -1.93958,3.19033 -1.93958,5.07553 0,2.64653 1.34139,4.5861 3.17221,4.5861 1.35952,0 2.44713,-1.08761 3.48037,-3.46223 0.85196,-1.92146 1.50453,-4.58611 1.81269,-7.25076 0.88821,0.0544 1.39577,0.18127 2.03021,0.48942 1.72205,0.83384 2.68278,2.42901 2.68278,4.40484 0,2.10272 -1.05136,3.87916 -2.86405,4.83988 -0.88822,0.4713 -1.75831,0.72508 -3.33535,0.97885 z m -0.0725,-10.67674 c -0.23565,2.24774 -0.88822,4.83988 -1.61329,6.52568 -0.7432,1.70393 -1.43203,2.53777 -2.13898,2.53777 -0.94259,0 -1.66767,-1.30514 -1.66767,-2.95468 0,-2.15711 1.06949,-4.15106 2.8278,-5.25681 0.79758,-0.52568 1.54078,-0.76133 2.59214,-0.85196 z m 17.1118,-2.93656 c -0.0906,0.63444 -0.41692,1.4139 -1.08762,2.57402 -1.28701,2.26586 -2.6284,3.75227 -4.5861,5.05741 0.63444,0.38066 0.83383,0.56193 1.23263,1.10574 1.72205,-1.32327 3.13595,-2.86405 4.29607,-4.67674 l 5.9275,-0.0906 c -0.65257,2.26587 -1.74019,4.31421 -3.0997,5.90937 -1.72206,2.03022 -3.60726,3.35348 -6.34442,4.45922 0.56194,0.4713 0.74321,0.68882 1.08762,1.32326 2.68278,-1.2145 4.67674,-2.64652 6.34441,-4.54985 1.55891,-1.79456 2.84592,-4.20544 3.64351,-6.87009 0.21752,-0.6707 0.23565,-0.70695 0.39879,-0.9426 l -0.88822,-0.87009 c -0.29003,0.10876 -0.39879,0.12689 -1.05136,0.14501 -0.54381,0.0181 -2.08459,0.0363 -4.62236,0.0725 -0.10876,0 -0.10876,0 -0.21752,0 -0.30816,0.0181 -0.30816,0.0181 -0.45317,0.0544 0.21752,-0.36254 0.36254,-0.65257 0.79758,-1.57704 0.21752,-0.48943 0.23565,-0.48943 0.39879,-0.70695 z m 24.34442,13.45016 v 1.26888 h 1.66768 c -0.0544,-0.41691 -0.0725,-0.96072 -0.0725,-1.79456 v -9.42599 c 0,-0.81571 0.0181,-1.17824 0.0725,-1.64954 -0.54381,0.0544 -0.88822,0.0725 -1.79457,0.0725 h -9.15408 c -0.83384,0 -1.25076,-0.0181 -1.81269,-0.0544 0.0544,0.4713 0.0725,0.81571 0.0725,1.63142 v 9.44412 c 0,0.79758 -0.0181,1.35952 -0.0725,1.77643 h 1.66767 v -1.26888 z m 0,-1.43202 h -9.42599 v -8.66466 h 9.42599 z m 5.85499,-3.24472 c 0.63444,-0.0725 1.08762,-0.0906 2.51964,-0.0906 h 10.15106 c 1.25076,0 1.77644,0.0181 2.46526,0.0906 v -1.79456 c -0.63444,0.0906 -0.99698,0.10876 -2.44713,0.10876 H 288.7648 c -1.25075,0 -1.92145,-0.0362 -2.50151,-0.10876 z m 17.81875,-5.74623 c 1.61329,0.96073 3.06344,2.13898 4.42296,3.58913 l 1.10574,-1.35952 c -1.32326,-1.28701 -2.44713,-2.1571 -4.45922,-3.44411 z m 0.2719,11.83687 c 0.39879,-0.12689 0.54381,-0.16314 1.12387,-0.29003 2.91843,-0.65257 4.94864,-1.45015 6.79758,-2.71904 2.42901,-1.64954 4.11481,-3.75226 5.60122,-6.97885 -0.63444,-0.41692 -0.83384,-0.61632 -1.34139,-1.25076 -1.48641,3.89729 -3.87916,6.52569 -7.3414,8.06647 -1.6858,0.74321 -3.86103,1.30514 -5.31118,1.35952 z"
     id="text23"
     style="font-size:18.1269px;opacity:0.976048;stroke:#ccecfb;stroke-width:1.51057;stroke-opacity:0.269103"
     inkscape:label="Annotation"
     transform="scale(1.0120684,0.9880755)"
     aria-label="" />
</svg>
